<?xml version="1.0" encoding="UTF-8"?>
<svg version="1.1" xmlns="http://www.w3.org/2000/svg" width="1440" height="1440">
<path d="M0 0 C1.13050781 -0.01417969 2.26101563 -0.02835937 3.42578125 -0.04296875 C6.6875 0.1875 6.6875 0.1875 9.16796875 1.18359375 C12.43686584 2.48608453 15.17868416 2.45262421 18.6875 2.4375 C20.481875 2.44523437 20.481875 2.44523437 22.3125 2.453125 C25.56440814 2.19718779 27.73077847 1.47485132 30.6875 0.1875 C33 0.5625 33 0.5625 34.6875 1.1875 C34.6875 1.8475 34.6875 2.5075 34.6875 3.1875 C35.615625 3.331875 36.54375 3.47625 37.5 3.625 C40.6875 4.1875 40.6875 4.1875 43.6875 5.1875 C46.0832705 5.37580119 48.47911556 5.56315413 50.875 5.75 C59.48466025 6.6725334 66.0946825 9.76841112 73.55761719 13.99609375 C75.82095625 15.26215228 78.11219988 16.46179018 80.4140625 17.65625 C88.5786189 21.94760935 95.73796784 25.9746104 101.6875 33.1875 C102.26113281 33.81011719 102.83476563 34.43273437 103.42578125 35.07421875 C110.31407698 42.60399657 116.60243258 50.79381839 120.6875 60.1875 C120.98527344 60.86296875 121.28304687 61.5384375 121.58984375 62.234375 C122.30367655 63.87915103 122.997885 65.53242399 123.6875 67.1875 C126.58838967 67.62263345 128.81106092 67.68832233 131.41015625 66.203125 C133.55073281 64.58519452 135.61886921 62.8966638 137.6875 61.1875 C146.04396663 54.53779181 154.47676183 48.60631743 163.6875 43.1875 C166.25760117 41.67481188 168.61483816 40.24603315 170.9375 38.375 C183.55845984 28.33560013 199.65366359 20.45523825 215.375 16.6875 C216.90060547 16.31818359 216.90060547 16.31818359 218.45703125 15.94140625 C222.85904546 14.91409217 227.26664079 13.91242742 231.6796875 12.93359375 C234.64199413 12.28041234 234.64199413 12.28041234 237.14331055 11.1574707 C242.23713144 9.76339821 247.14454104 9.90224768 252.40234375 9.921875 C253.53144669 9.91996155 254.66054962 9.9180481 255.8238678 9.91607666 C258.20671817 9.91471841 260.58957604 9.91838964 262.97241211 9.92675781 C266.60873138 9.93745215 270.24455551 9.92685513 273.88085938 9.9140625 C276.20052192 9.91538435 278.52018416 9.91794728 280.83984375 9.921875 C282.46357155 9.91580231 282.46357155 9.91580231 284.12010193 9.90960693 C289.72548165 9.94421197 294.38786414 10.35049338 299.6875 12.1875 C301.37143954 12.49906591 303.05881664 12.79301062 304.75 13.0625 C309.19004107 13.91557899 312.04048614 15.45223961 315.6875 18.1875 C316.63625 18.661875 317.585 19.13625 318.5625 19.625 C328.66863208 24.67806604 328.66863208 24.67806604 331.375 28.6875 C331.80081171 32.09399369 330.52046466 33.33622165 328.6875 36.1875 C327.96826792 39.88273952 327.96826792 39.88273952 327.6875 43.1875 C326.90246094 43.35765625 326.11742187 43.5278125 325.30859375 43.703125 C317.96260704 45.39765936 312.56157391 47.38955773 306.4375 51.8125 C302.84091541 53.6107923 299.3222817 54.02233624 295.375 54.66796875 C291.85856403 55.34774489 288.93283052 56.67674269 285.6875 58.1875 C283.64773574 58.94265863 281.60582458 59.69202871 279.5625 60.4375 C270.5158907 63.90657865 262.17283178 68.19054417 254.5 74.125 C249.61242722 77.72045584 245.59898335 77.97989032 239.6875 77.1875 C239.76742187 77.93386719 239.84734375 78.68023437 239.9296875 79.44921875 C239.6875 82.1875 239.6875 82.1875 238.0078125 84.20703125 C237.28335938 84.79871094 236.55890625 85.39039063 235.8125 86 C235.09320312 86.60457031 234.37390625 87.20914063 233.6328125 87.83203125 C231.6875 89.1875 231.6875 89.1875 229.6875 89.1875 C229.44 90.074375 229.1925 90.96125 228.9375 91.875 C227.62361137 95.35680486 226.04738873 97.34175183 223.6875 100.1875 C219.9336869 105.60967448 218.86817685 109.59262019 219.6875 116.1875 C221.25138683 119.31527365 223.50997677 119.85871756 226.6875 121.1875 C228.05691082 121.39514579 229.43320884 121.5611724 230.8125 121.6875 C234.83200521 122.20614583 235.65329854 122.8384408 238.6875 125.1875 C241.01567964 125.55510731 243.3493385 125.88991581 245.6875 126.1875 C246.6775 126.8475 247.6675 127.5075 248.6875 128.1875 C250.29903132 128.5808229 251.92718458 128.90914844 253.5625 129.1875 C257.17498631 129.85667257 260.30726392 130.72577629 263.6875 132.1875 C264.925 132.538125 266.1625 132.88875 267.4375 133.25 C270.6875 134.1875 270.6875 134.1875 271.6875 135.1875 C273.11856252 135.49051324 274.55805521 135.75392649 276 136 C291.44642857 138.94642857 291.44642857 138.94642857 294.6875 142.1875 C297.65845452 142.47457076 300.62972256 142.63612618 303.609375 142.80859375 C306.65957653 143.18406272 308.88122526 143.98350284 311.6875 145.1875 C313.9505945 145.73705415 316.21808454 146.18130497 318.50390625 146.625 C320.78042387 147.21143746 322.59760802 148.12596757 324.6875 149.1875 C330.92258146 151.03113805 337.43964786 151.77407277 343.8671875 152.625 C346.6875 153.1875 346.6875 153.1875 349.6875 155.1875 C351.34141846 155.57921753 353.01095271 155.90807545 354.6875 156.1875 C358.14909235 156.76443206 359.68879727 157.18836485 362.6875 159.1875 C368.45437895 161.59036623 374.33921271 162.7617081 380.5 163.66015625 C381.221875 163.83417969 381.94375 164.00820313 382.6875 164.1875 C383.0175 164.8475 383.3475 165.5075 383.6875 166.1875 C384.904375 166.455625 386.12125 166.72375 387.375 167 C391.83557485 168.00005771 394.24148093 170.18139826 397.6875 173.1875 C399.3500824 173.92287299 401.01501404 174.65545805 402.70703125 175.3203125 C409.97416129 178.50236944 416.5020084 183.28000253 422.6875 188.1875 C423.68523437 188.93 423.68523437 188.93 424.703125 189.6875 C427.5725867 191.92707986 429.39599198 193.45015618 430.75 196.875 C430.67573127 200.81124258 429.95492941 204.43485881 429.16796875 208.28515625 C428.45396548 212.59820037 428.5173812 216.83056848 428.6875 221.1875 C430.110625 220.445 430.110625 220.445 431.5625 219.6875 C434.6875 218.1875 434.6875 218.1875 436.6875 218.1875 C436.21401586 222.3541604 435.64053159 225.11634715 432.6875 228.1875 C432.0275 228.1875 431.3675 228.1875 430.6875 228.1875 C430.3575 230.4975 430.0275 232.8075 429.6875 235.1875 C428.6975 234.8575 427.7075 234.5275 426.6875 234.1875 C426.15125 235.074375 425.615 235.96125 425.0625 236.875 C422.25565418 241.08030964 418.67040168 244.14647662 414.1875 246.5 C411.70632656 248.17479207 410.69344254 249.40752698 409 251.8125 C404.6486177 257.93163137 398.92240703 263.03089532 392.6875 267.1875 C390 267.3125 390 267.3125 387.6875 267.1875 C387.44 267.91324219 387.1925 268.63898438 386.9375 269.38671875 C383.38721307 277.3415804 375.75004668 283.25127304 368.94921875 288.3984375 C366.06077615 290.68325047 363.35050135 292.86149729 361.6875 296.1875 C359.125 296.8125 359.125 296.8125 356.6875 297.1875 C356.5225 298.0125 356.3575 298.8375 356.1875 299.6875 C353.96501366 304.87330146 349.79755749 309.72838892 344.59765625 312.16796875 C342.15232566 313.4731452 341.39598658 314.87304987 340 317.25 C337.09307207 321.8507867 333.6403876 325.37062463 329.71484375 329.11328125 C327.47879055 331.24645407 327.47879055 331.24645407 325.625 334.5625 C323.47855587 337.47058559 322.92307599 337.58585937 319.625 338.5 C316.49686822 339.4753911 316.49686822 339.4753911 314.6796875 342.0859375 C314.21760528 343.64214542 313.78764808 345.20817697 313.38671875 346.78125 C311.88056739 351.96443011 308.55019698 356.26803212 305.0625 360.3125 C302.59891207 363.06751624 302.59891207 363.06751624 301.1875 366.25 C299.48399863 369.58602351 297.32368008 371.55131992 294.6875 374.1875 C293.02083333 377.10416667 293.02083333 377.10416667 291.6875 380.1875 C291.15125 381.115625 290.615 382.04375 290.0625 383 C288.80918326 385.90541607 288.3987762 387.79962177 288.1015625 390.88671875 C288.02115723 391.69326904 287.94075195 392.49981934 287.85791016 393.33081055 C287.8016748 393.94351807 287.74543945 394.55622559 287.6875 395.1875 C304.3786422 395.78005431 321.06504998 396.25855363 337.765625 396.46875 C338.88586311 396.48307068 338.88586311 396.48307068 340.0287323 396.49768066 C346.9069405 396.58477181 353.78523491 396.66379419 360.66357422 396.73974609 C364.49359334 396.78232981 368.32353489 396.82947661 372.15346527 396.87937927 C374.28061156 396.90566291 376.40776732 396.92658798 378.53497314 396.9473877 C379.81281677 396.96410522 381.0906604 396.98082275 382.40722656 396.99804688 C383.52760315 397.01057495 384.64797974 397.02310303 385.80230713 397.03601074 C388.27964559 397.16608529 390.30884708 397.5618658 392.6875 398.1875 C394.35754829 397.87154492 396.02387583 397.53570041 397.6875 397.1875 C401.55478761 396.96438725 404.87882961 397.17734576 408.59765625 398.16015625 C414.64981033 399.54359371 420.68864919 399.64896354 426.875 399.8125 C428.09864258 399.85189697 429.32228516 399.89129395 430.58300781 399.93188477 C439.25086905 400.18818038 447.9128274 400.26623367 456.58276367 400.06298828 C460.6193159 400.00532889 464.14097876 400.18203473 468.046875 401.25390625 C471.64265595 402.17600029 472.37218476 402.05386712 475.6875 401.1875 C476.3475 401.5175 477.0075 401.8475 477.6875 402.1875 C480.98225494 402.4202013 484.27011153 402.58116948 487.5703125 402.70507812 C491.94238258 402.92043102 495.5580692 403.59972178 499.6875 405.1875 C500.6775 405.5175 501.6675 405.8475 502.6875 406.1875 C504.234375 405.383125 504.234375 405.383125 505.8125 404.5625 C508.10068178 403.49944888 509.20349018 403.07500553 511.6875 403.65234375 C513.1515563 404.2363515 514.61369469 404.82518265 516.07421875 405.41796875 C520.34090019 406.67437569 524.55460023 406.35005789 528.96484375 406.1953125 C531.6875 406.1875 531.6875 406.1875 533.6875 407.1875 C533.6875 407.8475 533.6875 408.5075 533.6875 409.1875 C537.81703916 409.45811005 537.81703916 409.45811005 541.625 408.125 C544.75185638 406.70370164 547.32781457 407.66144118 550.6875 408.1875 C553.18852851 408.43205318 555.69131646 408.65907078 558.1953125 408.87109375 C559.60810366 408.99509295 561.02086322 409.11945258 562.43359375 409.24414062 C564.62976923 409.43629983 566.82604737 409.62613269 569.02294922 409.80981445 C571.16441147 409.98989955 573.30483342 410.17971997 575.4453125 410.37109375 C576.7152002 410.47993896 577.98508789 410.58878418 579.29345703 410.70092773 C582.43592253 411.15143369 584.79589398 411.94015287 587.6875 413.1875 C590.97221744 413.5086543 594.23361708 413.62667013 597.53125 413.74609375 C600.97717324 414.22801123 602.82059433 415.28110525 605.6875 417.1875 C608.00689207 417.9011591 610.34273449 418.5622292 612.6875 419.1875 C615.69778009 420.1573191 618.69334772 421.16908086 621.6875 422.1875 C621.6875 423.1775 621.6875 424.1675 621.6875 425.1875 C619.7075 425.5175 617.7275 425.8475 615.6875 426.1875 C615.501875 427.1465625 615.501875 427.1465625 615.3125 428.125 C615.10625 428.805625 614.9 429.48625 614.6875 430.1875 C611.38789859 431.8373007 607.69622116 431.57008361 604.0625 431.75 C603.26070312 431.79318359 602.45890625 431.83636719 601.6328125 431.88085938 C599.6512489 431.98701457 597.66939729 432.08776855 595.6875 432.1875 C596.0175 434.1675 596.3475 436.1475 596.6875 438.1875 C593.16717741 439.02139537 590.19637751 439.23823837 586.59765625 438.91796875 C585.64826172 438.83353516 584.69886719 438.74910156 583.72070312 438.66210938 C582.74037109 438.56736328 581.76003906 438.47261719 580.75 438.375 C579.77353516 438.29185547 578.79707031 438.20871094 577.79101562 438.12304688 C572.7684537 437.65654451 568.46271801 436.86081047 563.6875 435.1875 C560.26000715 434.61910854 556.80215533 434.31500025 553.34570312 433.9765625 C549.74119083 433.58321967 547.76261993 433.23757995 544.6875 431.1875 C543.63645617 429.55254293 542.62761682 427.88866376 541.6875 426.1875 C539.80091126 426.15224868 539.80091126 426.15224868 537.6875 427.1875 C536.54277891 428.82727128 536.54277891 428.82727128 535.546875 430.74609375 C534.93328125 431.88175781 534.3196875 433.01742188 533.6875 434.1875 C470.02083333 434.1875 406.35416667 434.1875 342.6875 434.1875 C341.6975 434.5175 340.7075 434.8475 339.6875 435.1875 C338.01639748 434.87716913 336.35013593 434.54038903 334.6875 434.1875 C332.65980457 434.09346982 330.62947067 434.04955322 328.59960938 434.04223633 C327.39485962 434.03585648 326.19010986 434.02947662 324.94885254 434.02290344 C323.6560437 434.02179062 322.36323486 434.0206778 321.03125 434.01953125 C319.6827389 434.0163151 318.33422815 434.01295076 316.98571777 434.00944519 C314.16478669 434.00347062 311.34388618 434.00160366 308.52294922 434.00219727 C304.91499626 434.002299 301.3072396 433.98862796 297.69933319 433.97142506 C294.9163117 433.96028942 292.13333751 433.95827851 289.35029602 433.95880699 C287.375565 433.95705941 285.40084875 433.94623248 283.42614746 433.93525696 C281.61902283 433.9398719 281.61902283 433.9398719 279.77539062 433.94458008 C278.18917908 433.94244255 278.18917908 433.94244255 276.57092285 433.94026184 C273.52597895 434.20134957 271.37829728 434.74182682 268.6875 436.1875 C267.57222463 439.53332611 267.22472989 442.6210459 266.8125 446.125 C266.21924287 450.98690017 265.39999009 455.58712228 264.0625 460.3125 C262.85464655 464.71551258 262.60034851 468.50070975 262.75 473.0625 C262.8976129 478.45357997 262.14663524 480.91445059 258.6875 485.1875 C256.9892503 489.79703489 256.59374286 492.48228062 257.6875 497.1875 C257.97367188 498.66283203 257.97367188 498.66283203 258.265625 500.16796875 C260.07462368 508.80278223 262.30027793 516.85234767 268.6875 523.1875 C269.1825 524.239375 269.6775 525.29125 270.1875 526.375 C274.15259762 533.57317723 282.54088932 537.87312012 289.796875 541.19140625 C291.96069971 542.33143787 293.72118945 543.71720765 295.625 545.25 C299.65646809 548.4158646 303.76788764 549.88926896 308.6875 551.1875 C308.6875 551.8475 308.6875 552.5075 308.6875 553.1875 C309.54408203 553.22617188 309.54408203 553.22617188 310.41796875 553.265625 C317.90816277 553.78958134 324.5791187 555.86413802 331.6875 558.1875 C337.8265056 560.09964928 343.73784645 560.54612457 350.1418457 560.75854492 C353.82516172 560.9128454 355.54506509 561.09254339 358.6875 563.1875 C360.9719087 563.4344631 363.26683199 563.59043159 365.5625 563.6875 C372.14518966 563.96701973 372.14518966 563.96701973 375.0703125 565.15625 C383.89103524 568.63187807 394.78415062 567.48717193 404.13818359 567.66430664 C406.1417868 567.703942 408.14513037 567.75608372 410.1484375 567.80859375 C411.33228027 567.8336499 412.51612305 567.85870605 413.73583984 567.88452148 C416.6875 568.1875 416.6875 568.1875 419.6875 570.1875 C420.0175 569.5275 420.3475 568.8675 420.6875 568.1875 C424.6875 569.1875 424.6875 569.1875 426.50976562 569.71081543 C428.98152046 570.25185818 431.25087525 570.34133824 433.78125 570.37695312 C435.30564697 570.40202942 435.30564697 570.40202942 436.86083984 570.4276123 C438.50753662 570.44797546 438.50753662 570.44797546 440.1875 570.46875 C441.33299316 570.48715942 442.47848633 570.50556885 443.65869141 570.52453613 C447.33490868 570.58326284 451.01117565 570.63594473 454.6875 570.6875 C482.19263118 571.08232815 482.19263118 571.08232815 494.25 571.65625 C495.48145752 571.71226379 495.48145752 571.71226379 496.73779297 571.76940918 C499.9284273 571.93732826 502.64077086 572.17192362 505.6875 573.1875 C508.51042437 573.28435109 511.30283362 573.32671746 514.125 573.3125 C514.88876953 573.31636719 515.65253906 573.32023438 516.43945312 573.32421875 C517.18001953 573.32292969 517.92058594 573.32164062 518.68359375 573.3203125 C519.69184204 573.31862061 519.69184204 573.31862061 520.72045898 573.31689453 C522.736166 573.24864782 522.736166 573.24864782 524.81274414 572.61669922 C526.6875 572.1875 526.6875 572.1875 528.6875 573.1875 C540.21948554 574.63999482 551.90208988 574.26757707 563.49609375 574.13671875 C565.4771351 574.11743903 567.45817867 574.09838494 569.43922424 574.07954407 C573.56329539 574.03884937 577.68728826 573.99366465 581.8112793 573.94555664 C587.08556239 573.88464961 592.35986772 573.83786773 597.63432217 573.79472637 C601.7136696 573.75933655 605.79288622 573.71511241 609.872118 573.66837502 C611.81727126 573.64740556 613.76245992 573.62948106 615.70767021 573.6147213 C618.4230649 573.59307411 621.13804756 573.55916123 623.85327148 573.5222168 C624.64767639 573.51848557 625.4420813 573.51475433 626.26055908 573.51091003 C629.92561887 573.44901953 633.05505998 573.18077376 636.55213928 572.0415802 C637.58680832 571.75973373 638.62147736 571.47788727 639.6875 571.1875 C640.6775 571.8475 641.6675 572.5075 642.6875 573.1875 C644.64373469 572.85891461 644.64373469 572.85891461 646.6875 572.1875 C648.18382625 572.05027137 649.68429855 571.95472371 651.18554688 571.89086914 C652.08744751 571.85182968 652.98934814 571.81279022 653.9185791 571.77256775 C655.3974762 571.71692406 655.3974762 571.71692406 656.90625 571.66015625 C657.9530896 571.61883072 658.9999292 571.57750519 660.07849121 571.53492737 C673.7395548 571.03005712 687.40806095 570.84855997 701.07629395 570.65527344 C704.65766911 570.60391865 708.2389872 570.5488442 711.8203125 570.49414062 C718.77599181 570.3884142 725.73172325 570.28660404 732.6875 570.1875 C732.6875 569.5275 732.6875 568.8675 732.6875 568.1875 C733.595 568.373125 734.5025 568.55875 735.4375 568.75 C738.55716581 569.16995501 739.76560738 568.92342445 742.6875 568.1875 C745.08486365 568.12226561 747.46227359 568.18813932 749.859375 568.25 C752.78209855 568.24123335 752.78209855 568.24123335 756.0234375 567.71484375 C763.51333486 566.71255034 771.1520978 566.84946047 778.70068359 566.71069336 C786.09332551 566.56875599 793.20075477 566.31995322 800.43896484 564.64428711 C805.04134991 563.70931833 809.74483633 563.75262443 814.42578125 563.62109375 C818.40318094 563.46471735 821.21836352 563.10406791 824.6875 561.1875 C838.42330782 559.08649621 857.01446657 557.64407661 869.6875 564.1875 C871.15706893 564.54240484 872.63761012 564.85433113 874.125 565.125 C877.81607343 565.89726742 880.62482244 566.89049183 883.6875 569.1875 C884.0175 569.8475 884.3475 570.5075 884.6875 571.1875 C886.1725 571.8371875 886.1725 571.8371875 887.6875 572.5 C890.6875 574.1875 890.6875 574.1875 891.5625 576.875 C891.624375 578.0196875 891.624375 578.0196875 891.6875 579.1875 C891.0275 579.1875 890.3675 579.1875 889.6875 579.1875 C889.39875 580.30125 889.11 581.415 888.8125 582.5625 C887.6875 586.1875 887.6875 586.1875 885.6875 588.1875 C884.3571875 588.1565625 884.3571875 588.1565625 883 588.125 C879.62114702 588.18875194 877.70347988 589.02188149 874.69921875 590.453125 C870.85138376 591.85777156 866.74933948 591.95049126 862.6875 592.1875 C862.6875 592.8475 862.6875 593.5075 862.6875 594.1875 C855.2126107 596.67109225 847.96775736 598.66810962 840.1484375 599.6953125 C837.44627347 600.07333172 837.44627347 600.07333172 834.6875 602.1875 C833.945 602.001875 833.2025 601.81625 832.4375 601.625 C828.53610151 601.00432297 826.20075887 602.52668672 822.6875 604.1875 C819.52004722 605.24331759 818.99204161 605.28901387 815.6875 604.1875 C815.0275 604.5175 814.3675 604.8475 813.6875 605.1875 C812.33583244 605.38200128 810.9773283 605.53047108 809.6171875 605.65234375 C808.39515625 605.76932617 808.39515625 605.76932617 807.1484375 605.88867188 C805.44807567 606.04406748 803.74755743 606.19776273 802.046875 606.34960938 C798.20913704 606.71954807 794.73407993 607.1743963 791.0078125 608.22265625 C784.11546831 610.08174132 776.7617976 609.60771545 769.66894531 609.71923828 C760.97551809 609.70938207 760.97551809 609.70938207 752.4609375 611.18359375 C747.40573248 612.52850854 742.52225699 612.6102094 737.3125 612.75 C730.0605955 612.97482817 722.89886676 613.38094501 715.6875 614.1875 C714.06263078 614.35543683 712.43764721 614.52227496 710.8125 614.6875 C708.80485137 614.89493233 706.95477794 615.10733227 705.02050781 615.6875 C701.78842685 616.38018541 698.6554561 616.39260289 695.3515625 616.46875 C694.63576019 616.48715942 693.91995789 616.50556885 693.1824646 616.52453613 C690.89255743 616.58308039 688.60257201 616.63583698 686.3125 616.6875 C668.72949131 616.32032058 668.72949131 616.32032058 651.6875 619.1875 C650.1542864 619.29680764 648.61700353 619.35344996 647.08007812 619.37695312 C646.14901245 619.39367065 645.21794678 619.41038818 644.25866699 619.4276123 C642.75390808 619.44797546 642.75390808 619.44797546 641.21875 619.46875 C640.18689575 619.48715942 639.1550415 619.50556885 638.09191895 619.52453613 C633.67124859 619.6032588 629.25042419 619.67096185 624.82958984 619.73974609 C621.60506666 619.79147134 618.38067403 619.8487227 615.15625 619.90625 C613.65149109 619.92661316 613.65149109 619.92661316 612.11633301 619.9473877 C611.18526733 619.96410522 610.25420166 619.98082275 609.29492188 619.99804688 C608.06606262 620.01683899 608.06606262 620.01683899 606.81237793 620.03601074 C604.4986135 620.11270452 604.4986135 620.11270452 601.6875 621.1875 C598.8474591 621.21775919 596.02203114 621.12158138 593.18359375 621.02734375 C590.27489307 621.16059149 587.93157902 621.53606422 585.12109375 622.17602539 C579.79520742 623.26656388 574.67718927 623.49938714 569.25390625 623.53125 C568.29532211 623.5458728 567.33673798 623.56049561 566.34910583 623.57556152 C563.31611204 623.62160224 560.28317794 623.65605306 557.25 623.6875 C553.25107454 623.72903234 549.25257807 623.78281274 545.25390625 623.84375 C544.35773087 623.8490271 543.46155548 623.8543042 542.53822327 623.85974121 C537.97428261 623.93028772 533.69896224 624.30144414 529.21704102 625.1875 C523.66029098 626.2807336 518.30009083 626.49962493 512.6484375 626.53125 C511.13898056 626.5531842 511.13898056 626.5531842 509.59902954 626.57556152 C505.3470659 626.63710229 501.09496854 626.6773225 496.84277344 626.71923828 C493.71534807 626.75318007 490.58821228 626.79822041 487.4609375 626.84375 C486.51382904 626.8490271 485.56672058 626.8543042 484.59091187 626.85974121 C483.68612091 626.87315552 482.78132996 626.88656982 481.84912109 626.90039062 C481.0673349 626.90768188 480.28554871 626.91497314 479.48007202 626.92248535 C477.01958582 627.15598511 474.86362477 627.60350083 472.47181702 628.18927002 C467.59669858 629.31521859 462.96428393 629.46996533 457.97680664 629.44628906 C456.58977036 629.45154602 456.58977036 629.45154602 455.17471313 629.45690918 C452.14894893 629.46564105 449.1234224 629.45991116 446.09765625 629.453125 C443.98538671 629.4544733 441.87311748 629.45641521 439.760849 629.45892334 C435.35054548 629.46186231 430.94032332 629.45761348 426.5300293 629.44824219 C420.86823404 629.43679926 415.20662739 629.44344537 409.54483891 629.45538712 C405.19124415 629.4625971 400.83769452 629.46032261 396.48409843 629.45513153 C394.39522721 629.45379518 392.30635191 629.45544224 390.21748543 629.46009064 C387.30902264 629.46514702 384.40087112 629.45746043 381.49243164 629.44628906 C380.62544144 629.45033752 379.75845123 629.45438599 378.8651886 629.45855713 C372.91603825 629.41603825 372.91603825 629.41603825 370.6875 627.1875 C366.97439443 626.1578966 363.48855412 626.09373223 359.65234375 626.16015625 C358.51345703 626.17240234 357.37457031 626.18464844 356.20117188 626.19726562 C353.8130912 626.23248036 351.4250644 626.27155573 349.03710938 626.31445312 C347.33071289 626.33088867 347.33071289 626.33088867 345.58984375 626.34765625 C344.55335693 626.36449463 343.51687012 626.38133301 342.44897461 626.39868164 C339.61485424 626.18194447 338.1361575 625.54305871 335.6875 624.1875 C333.19677746 623.79074774 330.69443813 623.46385538 328.1875 623.1875 C321.12860927 622.40935457 321.12860927 622.40935457 318.69921875 621.1875 C315.6276266 619.66065031 312.36816091 619.53111809 309 619.1875 C303.79051496 618.60196045 298.74495121 617.88057702 293.6484375 616.62109375 C291.537712 616.15437955 289.46199482 615.90865741 287.3125 615.6875 C283.6875 615.1875 283.6875 615.1875 280.6875 613.1875 C278.70681137 612.92773756 276.72517253 612.67188727 274.73828125 612.46484375 C271.90139341 612.08118844 269.36684919 611.17769426 266.6875 610.1875 C265.800625 609.89875 264.91375 609.61 264 609.3125 C262.906875 608.94125 261.81375 608.57 260.6875 608.1875 C259.83671875 607.89875 258.9859375 607.61 258.109375 607.3125 C252.5657551 605.37374769 247.72240747 603.18907945 242.6875 600.1875 C241.511875 599.6925 240.33625 599.1975 239.125 598.6875 C235.65388155 597.17283013 232.83129561 595.28336374 229.6875 593.1875 C227.955 592.445 227.955 592.445 226.1875 591.6875 C222.65176899 590.17218671 219.87486425 588.33284132 216.6875 586.1875 C215.00376431 585.30527816 213.31578402 584.43113723 211.625 583.5625 C191.25217123 572.59892048 174.51294626 554.39328567 160.6875 536.1875 C159.92179688 535.25164062 159.92179688 535.25164062 159.140625 534.296875 C156.7606792 530.84211497 155.48624977 526.95352504 153.96875 523.0625 C152.81935804 520.19100594 152.81935804 520.19100594 151.04296875 518.015625 C149.11999235 515.42210064 149.47365232 513.32393265 149.6875 510.1875 C142.33464361 508.06648373 135.87671278 506.94805304 128.23828125 506.66992188 C124.52736296 506.49462894 121.10260622 506.12792723 117.50390625 505.1796875 C114.1662954 504.311977 111.29862216 503.90801333 107.875 503.75 C103.87580069 503.47075416 100.33337448 502.91515942 96.5 501.75 C91.71514164 500.31454249 87.0730494 499.69329342 82.125 499.1875 C75.66582312 498.50030872 69.80667499 497.45087905 63.6875 495.1875 C63.06423828 494.95981934 62.44097656 494.73213867 61.79882812 494.49755859 C49.73292871 490.08107957 49.73292871 490.08107957 45.27832031 488.13500977 C42.61515525 487.16104222 40.41807673 486.82431926 37.59765625 486.625 C36.64826172 486.55023437 35.69886719 486.47546875 34.72070312 486.3984375 C33.74037109 486.32882812 32.76003906 486.25921875 31.75 486.1875 C25.73199218 485.7584935 20.38591248 485.30405321 14.6875 483.1875 C12.3973576 482.89474717 10.1402253 482.75422717 7.8359375 482.62890625 C5.6875 482.1875 5.6875 482.1875 3.8046875 480.73046875 C1.07116954 478.73832927 -1.24015863 478.48859928 -4.5625 477.9375 C-11.10158588 476.57365458 -14.86656137 474.09012114 -19.3125 469.1875 C-19.9725 469.703125 -20.6325 470.21875 -21.3125 470.75 C-27.87734155 473.89565324 -36.71418339 470.41536458 -43.3125 468.1875 C-44.3025 467.5275 -45.2925 466.8675 -46.3125 466.1875 C-48.45397827 465.592165 -48.45397827 465.592165 -50.75 465.1875 C-53.17221333 464.72846803 -55.09807959 464.30044224 -57.28515625 463.1484375 C-59.72061755 461.994057 -61.62997572 461.91881956 -64.3125 461.8125 C-67.91153062 461.53115985 -69.01655293 461.42002984 -71.9375 459.125 C-72.39125 458.485625 -72.845 457.84625 -73.3125 457.1875 C-73.3125 458.5075 -73.3125 459.8275 -73.3125 461.1875 C-91.2150916 462.11243298 -91.2150916 462.11243298 -99.3125 456.1875 C-100.63406011 455.49778912 -101.96462146 454.82424615 -103.3125 454.1875 C-103.580625 454.826875 -103.84875 455.46625 -104.125 456.125 C-105.3125 458.1875 -105.3125 458.1875 -108.3125 459.1875 C-109.64583333 458.1875 -110.97916667 457.1875 -112.3125 456.1875 C-115.76765671 457.3392189 -115.88348404 457.7065066 -117.43359375 460.79296875 C-117.81193359 461.52966797 -118.19027344 462.26636719 -118.58007812 463.02539062 C-118.96615234 463.80076172 -119.35222656 464.57613281 -119.75 465.375 C-122.36095599 470.53967347 -125.08604997 475.3718007 -128.3125 480.1875 C-129.45555022 482.56870017 -129.45555022 482.56870017 -130.3125 484.9375 C-130.64378906 485.79601562 -130.97507812 486.65453125 -131.31640625 487.5390625 C-131.97231389 489.28300516 -132.62601781 491.0277785 -133.27734375 492.7734375 C-134.80188666 496.75316799 -136.2971018 500.31712006 -138.75 503.8125 C-141.80839309 508.38121066 -143.13015402 513.48842065 -144.61303711 518.72900391 C-146.12407657 523.99907657 -146.12407657 523.99907657 -148.3125 526.1875 C-148.75207026 528.283912 -149.18928737 530.38085105 -149.61328125 532.48046875 C-150.67776357 536.60162098 -152.38564614 540.40286636 -154.09375 544.29296875 C-156.05630638 548.95404015 -157.43553862 553.36693436 -158.125 558.375 C-158.80841449 562.35334781 -159.83369277 565.62484149 -161.60546875 569.24609375 C-164.4752895 575.37634544 -166.66248351 581.65062486 -168.8125 588.0625 C-169.59475626 590.35861792 -170.37859221 592.65419832 -171.1640625 594.94921875 C-171.5343457 596.03122559 -171.90462891 597.11323242 -172.28613281 598.22802734 C-174.50209917 604.61764299 -176.9016245 610.92997399 -179.58984375 617.13671875 C-182.17763948 623.14642675 -184.57083088 629.23746553 -187 635.3125 C-187.26606049 635.97679016 -187.53212097 636.64108032 -187.8062439 637.32550049 C-191.49755769 646.54623923 -195.0879266 655.79805655 -198.57592773 665.09790039 C-200.83349173 671.06521044 -203.31226756 676.90427724 -205.95483398 682.71069336 C-207.71451977 686.6258805 -209.0329382 690.49562129 -210.1875 694.625 C-212.17578885 700.92555167 -215.93895056 705.37255175 -221.3125 709.1875 C-223.91015625 710.05078125 -223.91015625 710.05078125 -226.3125 710.1875 C-227.3025 709.5275 -228.2925 708.8675 -229.3125 708.1875 C-231.78047235 708.30579313 -231.78047235 708.30579313 -234.375 708.9375 C-235.25285156 709.11796875 -236.13070313 709.2984375 -237.03515625 709.484375 C-239.48203624 710.04567921 -239.48203624 710.04567921 -241.3125 712.1875 C-244.42226618 711.9353568 -246.13042883 711.31686636 -248.6875 709.5 C-251.35800174 707.84566202 -251.35800174 707.84566202 -254.8125 708.75 C-258.27328382 710.17139336 -260.47000596 711.80595094 -263.3125 714.1875 C-265.25 715.1875 -265.25 715.1875 -267.3125 715.1875 C-272.9015411 712.00941781 -272.9015411 712.00941781 -274.3125 709.1875 C-274.5508036 706.10997918 -274.49769377 703.02323603 -274.5 699.9375 C-274.51224609 699.09058594 -274.52449219 698.24367188 -274.53710938 697.37109375 C-274.54822769 692.60504137 -274.31731315 688.60907421 -272.3125 684.1875 C-270.66247172 682.83363064 -268.9950613 681.50071858 -267.3125 680.1875 C-265.56177285 677.10416413 -265.56177285 677.10416413 -264.3125 674.1875 C-263.9825 673.8575 -263.6525 673.5275 -263.3125 673.1875 C-262.98781248 671.15082373 -262.7030534 669.10772703 -262.4375 667.0625 C-261.68713561 661.9544639 -260.52345544 657.87472552 -258.3125 653.1875 C-257.22324328 649.88022312 -256.27297197 646.53414451 -255.3125 643.1875 C-254.81598684 641.47814999 -254.31603401 639.76979502 -253.8125 638.0625 C-253.5959375 637.31742188 -253.379375 636.57234375 -253.15625 635.8046875 C-251.04499441 629.25588545 -248.4182158 622.87290879 -245.87890625 616.48046875 C-245.22326203 614.82488772 -244.56766454 613.16928818 -243.91210938 611.51367188 C-242.89473397 608.94661616 -241.87688557 606.37975038 -240.8581543 603.81323242 C-233.83369585 587.75359379 -233.83369585 587.75359379 -229.5 570.9375 C-228.62251519 565.3264274 -226.4355518 560.67926956 -223.87573242 555.66503906 C-222.00423454 551.9472317 -220.84168141 548.48560392 -219.91162109 544.39916992 C-218.67671799 539.84049543 -216.70696551 535.53212903 -214.875 531.1875 C-211.78542636 523.78865154 -208.83207144 516.3834779 -206.1015625 508.84375 C-203.50264704 501.7970262 -200.81066165 495.1419436 -195.78515625 489.4609375 C-193.39594252 485.77254919 -192.82830519 481.53988803 -191.93945312 477.29492188 C-191.12291121 473.68368841 -190.17540709 470.70841033 -188.2578125 467.5234375 C-186.40948023 464.35380746 -185.65147453 462.20606934 -185.125 458.625 C-184.97933594 457.68914062 -184.83367187 456.75328125 -184.68359375 455.7890625 C-184.56113281 454.93054688 -184.43867188 454.07203125 -184.3125 453.1875 C-184.003125 451.3621875 -184.003125 451.3621875 -183.6875 449.5 C-183.56375 448.736875 -183.44 447.97375 -183.3125 447.1875 C-184.89429615 447.07882698 -186.47827153 447.00160173 -188.0625 446.9375 C-188.94421875 446.89109375 -189.8259375 446.8446875 -190.734375 446.796875 C-194.2266864 447.32601309 -195.15134921 448.41587981 -197.3125 451.1875 C-198.60913229 453.55768806 -199.77273427 455.85748158 -200.875 458.3125 C-201.18163574 458.97975098 -201.48827148 459.64700195 -201.80419922 460.33447266 C-203.80740932 464.7887956 -205.31410288 469.21898862 -206.5703125 473.94140625 C-207.37561589 476.37850861 -208.47568066 478.31283699 -209.8125 480.5 C-211.94362853 484.09391498 -212.88401066 487.27819633 -213.6875 491.375 C-214.71995902 496.46015738 -216.386131 500.75290137 -218.8125 505.3125 C-221.92177185 511.20443951 -223.80576088 516.73004662 -225.3125 523.1875 C-227.01928289 529.6531952 -229.26676163 535.59895748 -232.12109375 541.6484375 C-233.10619534 543.74783432 -234.0085166 545.8503636 -234.875 548 C-236.3125 551.1875 -236.3125 551.1875 -238.25 553.8125 C-240.75771375 557.9160316 -241.68942376 561.72835897 -242.75 566.375 C-244.32474951 572.82000131 -246.1774912 578.61959031 -249.12109375 584.58984375 C-252.64449178 592.27200666 -254.46606311 600.68247961 -256.46484375 608.86328125 C-257.51237668 612.97134819 -258.64321092 617.05011242 -259.8125 621.125 C-260.01415771 621.84719727 -260.21581543 622.56939453 -260.42358398 623.31347656 C-261.59656102 627.34561457 -263.01994464 630.6787349 -265.3125 634.1875 C-267.7184445 638.72540244 -269.40919236 643.02920855 -270.16015625 648.125 C-271.34488952 654.99403631 -273.46953434 661.46658905 -275.6875 668.0625 C-276.07421875 669.25875 -276.4609375 670.455 -276.859375 671.6875 C-277.43558594 673.41613281 -277.43558594 673.41613281 -278.0234375 675.1796875 C-278.36681152 676.21464355 -278.71018555 677.24959961 -279.06396484 678.31591797 C-280.41530174 681.42393999 -282.12155758 683.61978906 -284.3125 686.1875 C-284.6425 686.8475 -284.9725 687.5075 -285.3125 688.1875 C-285.9725 688.1875 -286.6325 688.1875 -287.3125 688.1875 C-287.34153577 685.08335298 -287.3593107 681.97924091 -287.375 678.875 C-287.38337891 677.99392578 -287.39175781 677.11285156 -287.40039062 676.20507812 C-287.40361328 675.35751953 -287.40683594 674.50996094 -287.41015625 673.63671875 C-287.41539307 672.85643311 -287.42062988 672.07614746 -287.42602539 671.2722168 C-287.3125 669.1875 -287.3125 669.1875 -286.3125 666.1875 C-285.88625973 663.00681628 -285.49975479 659.82656552 -285.15039062 656.63671875 C-284.72329891 653.11581635 -284.31784473 651.19551709 -282.3125 648.1875 C-281.98304763 646.15446911 -281.72026512 644.11023942 -281.5 642.0625 C-280.74756832 636.57703037 -279.33258251 633.06325721 -276.41015625 628.4453125 C-274.70378331 624.93540659 -274.73851836 621.46211871 -274.546875 617.61328125 C-274.24631741 614.50251015 -273.03352109 612.76903164 -271.3125 610.1875 C-269.65485496 605.64461431 -268.44150231 601.17114258 -267.8125 596.375 C-267.3125 593.1875 -267.3125 593.1875 -265.91015625 590.90625 C-264.10333828 587.83156709 -263.21543461 584.92787918 -262.25 581.5 C-260.5317429 575.4067429 -260.5317429 575.4067429 -258.3125 573.1875 C-256.60398911 568.71594279 -255.44453975 564.17779813 -254.8125 559.4375 C-254.25462617 555.81132007 -252.97467533 553.44792084 -251.3125 550.1875 C-250.78489922 548.55030582 -250.2870285 546.90335721 -249.8125 545.25 C-246.81702305 534.91327644 -246.81702305 534.91327644 -243.1875 530.75 C-240.59848461 527.21167896 -240.60660747 524.52558524 -240.3125 520.1875 C-239.6525 520.1875 -238.9925 520.1875 -238.3125 520.1875 C-238.085625 518.95 -237.85875 517.7125 -237.625 516.4375 C-236.77441052 512.57063579 -235.51971816 509.12693087 -233.9375 505.5 C-231.54104048 499.98534023 -229.92094221 494.44671575 -228.359375 488.6484375 C-227.32315978 485.22274092 -226.02556535 482.07562889 -224.5625 478.8125 C-223.00756445 475.27983675 -222.03770754 472.67768678 -222.25 468.8125 C-222.3286736 464.24943138 -220.82904072 462.92842588 -218.3125 459.1875 C-217.32375209 456.75726171 -216.40622839 454.29681137 -215.5625 451.8125 C-215.13453125 450.56726563 -214.7065625 449.32203125 -214.265625 448.0390625 C-213.95109375 447.09804688 -213.6365625 446.15703125 -213.3125 445.1875 C-214.37573486 445.17291748 -215.43896973 445.15833496 -216.53442383 445.14331055 C-220.5287216 445.08476253 -224.52248841 445.00754032 -228.51635742 444.92504883 C-230.23566994 444.89206249 -231.95508393 444.86395129 -233.67456055 444.84106445 C-251.22066494 444.60126599 -251.22066494 444.60126599 -258.8972168 441.52661133 C-261.51584567 440.93638683 -261.51584567 440.93638683 -264.45877075 442.64402771 C-268.40745701 444.40533202 -272.10883642 444.59896355 -276.38745117 444.54394531 C-277.54977516 444.54701187 -277.54977516 444.54701187 -278.73558044 444.55014038 C-281.27578984 444.55312842 -283.8153374 444.53473399 -286.35546875 444.515625 C-288.12949971 444.51256427 -289.90353308 444.51069054 -291.67756653 444.50994873 C-295.38531777 444.50535838 -299.09285028 444.49097884 -302.80053711 444.46875 C-307.55190485 444.44040676 -312.30310113 444.42953065 -317.0545454 444.4250679 C-320.71338105 444.42091152 -324.37218214 444.41109318 -328.03100014 444.39919281 C-329.78328489 444.39349944 -331.53557292 444.38873767 -333.28786278 444.38492584 C-335.73387868 444.37804941 -338.17975975 444.36441194 -340.62573242 444.34863281 C-341.70975342 444.34695602 -341.70975342 444.34695602 -342.81567383 444.34524536 C-346.14573964 444.31680148 -349.11441131 444.1125211 -352.3125 443.1875 C-355.12311405 442.96862892 -357.91982526 442.79061012 -360.734375 442.65234375 C-361.96259979 442.58787804 -361.96259979 442.58787804 -363.21563721 442.52210999 C-364.94704728 442.43205895 -366.67855789 442.34392314 -368.41015625 442.25756836 C-371.03932006 442.12615857 -373.6680913 441.98839456 -376.296875 441.84960938 C-377.98435552 441.76264206 -379.67185501 441.67604184 -381.359375 441.58984375 C-382.13674011 441.54923325 -382.91410522 441.50862274 -383.71502686 441.46678162 C-388.58735957 441.22675019 -393.43419899 441.15184395 -398.3125 441.1875 C-398.3125 440.5275 -398.3125 439.8675 -398.3125 439.1875 C-399.07916992 439.13215088 -399.84583984 439.07680176 -400.63574219 439.01977539 C-404.11160225 438.7667989 -407.58704354 438.50845958 -411.0625 438.25 C-412.2690625 438.16298828 -413.475625 438.07597656 -414.71875 437.98632812 C-415.87890625 437.89931641 -417.0390625 437.81230469 -418.234375 437.72265625 C-419.30268555 437.644104 -420.37099609 437.56555176 -421.47167969 437.48461914 C-424.3125 437.1875 -424.3125 437.1875 -426.56738281 436.61889648 C-428.36022968 436.02328613 -428.36022968 436.02328613 -430.3125 436.75 C-432.3125 437.1875 -432.3125 437.1875 -434.03125 436.2734375 C-436.9548441 434.88172661 -439.59964434 434.62989847 -442.8125 434.25 C-451.47989106 433.0931428 -459.86105788 431.97328479 -467.3125 427.1875 C-468.7975 426.3521875 -468.7975 426.3521875 -470.3125 425.5 C-473.23664793 423.2459693 -473.95248308 422.19749773 -475.5625 419.0625 C-477.08514011 416.36936131 -477.72720212 415.3794166 -480.70703125 414.40234375 C-482.47142449 414.13626395 -484.23848597 413.88725999 -486.0078125 413.65625 C-488.3125 413.1875 -488.3125 413.1875 -490.75 411 C-496.03343023 401.48982558 -496.03343023 401.48982558 -496.3125 396.1875 C-495.125 393.75 -495.125 393.75 -493.3125 391.1875 C-492.77625 390.28 -492.24 389.3725 -491.6875 388.4375 C-487.10626105 381.67973373 -481.2729095 375.48377197 -473.3125 373.1875 C-469.9796984 372.7708998 -468.11113435 373.25340148 -464.875 374.3125 C-461.43145965 375.50103674 -461.43145965 375.50103674 -458.63720703 374.2565918 C-454.49560629 372.9248199 -450.87205132 372.917647 -446.5546875 372.95703125 C-445.31647751 372.95771858 -445.31647751 372.95771858 -444.05325317 372.9584198 C-442.31690016 372.96142799 -440.5805495 372.9692711 -438.84423828 372.98168945 C-436.18903028 372.99998945 -433.53417088 373.00219857 -430.87890625 373.00195312 C-429.18749699 373.00686751 -427.49609009 373.01269548 -425.8046875 373.01953125 C-425.01295135 373.02064407 -424.22121521 373.0217569 -423.40548706 373.02290344 C-417.75023181 373.07158608 -417.75023181 373.07158608 -415.43475342 373.68473816 C-412.75630542 374.3192625 -410.26210784 374.34336721 -407.50927734 374.37695312 C-406.34061127 374.39367065 -405.17194519 374.41038818 -403.96786499 374.4276123 C-402.07724838 374.44797546 -402.07724838 374.44797546 -400.1484375 374.46875 C-398.15796589 374.49688561 -396.16749435 374.5250261 -394.17702675 374.55344391 C-390.68056719 374.60206149 -387.18403244 374.64450572 -383.6875 374.6875 C-379.53743989 374.73881394 -375.38741522 374.79140438 -371.23745728 374.85046387 C-368.6552965 374.88680293 -366.07307797 374.91930444 -363.49081421 374.9473877 C-346.24899789 375.19010044 -346.24899789 375.19010044 -340.2878418 377.21484375 C-336.10709085 378.58155515 -332.080811 378.61429854 -327.70703125 378.75 C-326.32725349 378.80522827 -326.32725349 378.80522827 -324.91960144 378.86157227 C-321.98831558 378.97850901 -319.05679832 379.08426597 -316.125 379.1875 C-292.46166047 380.0283393 -292.46166047 380.0283393 -283.3125 382.1875 C-281.50050921 382.56495281 -279.68805749 382.94020472 -277.875 383.3125 C-277.09253906 383.48007812 -276.31007813 383.64765625 -275.50390625 383.8203125 C-271.5163331 384.48846201 -269.71720417 384.45730278 -266.3125 382.1875 C-264.28083551 382.4132405 -262.24829305 382.64554084 -260.23046875 382.97265625 C-258.2542171 383.31935758 -258.2542171 383.31935758 -256.1875 382.5625 C-254.3125 382.1875 -254.3125 382.1875 -251.8203125 383.59765625 C-247.30169892 385.64562477 -243.21703047 385.90740412 -238.3125 386.25 C-229.02696325 386.93958766 -229.02696325 386.93958766 -225.26171875 388.24609375 C-221.17127788 389.55178415 -217.38354671 389.32565237 -213.125 389.1875 C-211.52761686 389.1364246 -209.92991279 389.09437794 -208.33203125 389.0625 C-207.63182861 389.03929687 -206.93162598 389.01609375 -206.21020508 388.9921875 C-204.3125 389.1875 -204.3125 389.1875 -201.3125 391.1875 C-198.17347515 391.91694959 -195.4414188 391.98978687 -192.3125 391.1875 C-189.73601508 388.84927067 -188.09649024 386.150005 -186.3125 383.1875 C-183.7234589 379.3244863 -183.7234589 379.3244863 -180.3125 378.1875 C-180.18294922 376.91519531 -180.18294922 376.91519531 -180.05078125 375.6171875 C-178.59667547 363.47740529 -174.72156888 352.90523854 -169.5078125 341.87109375 C-167.82738236 338.09836333 -166.51068965 334.22121019 -165.20703125 330.3046875 C-164.3125 328.1875 -164.3125 328.1875 -162.3125 327.1875 C-161.53989621 324.68436014 -161.53989621 324.68436014 -160.9375 321.6875 C-159.82413615 316.92885856 -158.41852584 312.70586619 -156.27734375 308.3203125 C-155.22716543 306.10840545 -155.22716543 306.10840545 -154.41015625 303.359375 C-153.17990489 299.80434259 -151.56216595 296.6413136 -149.8125 293.3125 C-146.98312546 287.86444463 -146.98312546 287.86444463 -145.25 282 C-144.3655823 278.403368 -143.29541722 276.2691676 -141.4375 273.125 C-139.02065932 268.91269441 -137.685539 265.12841532 -136.625 260.3984375 C-134.39002571 251.3027324 -130.34396585 243.2240025 -126.1875 234.875 C-120.07593963 222.99569312 -120.07593963 222.99569312 -116.64648438 210.17602539 C-116.16859104 207.33067362 -115.01038195 205.07516535 -113.625 202.5625 C-111.09373104 197.78942592 -108.90354325 192.9741834 -106.8125 188 C-104.89014822 183.44837736 -102.94729634 179.37643883 -100 175.375 C-97.13051789 171.38793012 -96.52564222 167.90111241 -95.87109375 163.08984375 C-95.03627525 158.7522903 -93.25576451 154.93484514 -91.46875 150.9140625 C-90.52281993 148.68345714 -89.85034852 146.66041565 -89.3125 144.3125 C-88.26033274 141.02447732 -86.76352334 139.36392463 -84.48046875 136.83984375 C-82.24951533 133.68367888 -81.92255641 129.93410909 -81.3125 126.1875 C-79.72118903 116.90733137 -79.72118903 116.90733137 -75.3125 113.1875 C-74.07737921 111.05440808 -74.07737921 111.05440808 -73.3125 109.1875 C-72.6525 109.1875 -71.9925 109.1875 -71.3125 109.1875 C-70.9103125 108.383125 -70.9103125 108.383125 -70.5 107.5625 C-69.64557931 105.85365861 -68.74363388 104.16828154 -67.8125 102.5 C-66.26289414 99.07795372 -65.51649718 95.94427117 -64.77734375 92.28515625 C-64.22287269 89.78304735 -63.30577637 87.54653139 -62.3125 85.1875 C-62.044375 84.011875 -61.77625 82.83625 -61.5 81.625 C-60.3125 78.1875 -60.3125 78.1875 -57.9375 76.375 C-54.48548454 73.49832045 -53.73986699 70.54183942 -52.40234375 66.33203125 C-52.04269531 65.62433594 -51.68304688 64.91664063 -51.3125 64.1875 C-49.9925 63.8575 -48.6725 63.5275 -47.3125 63.1875 C-45.3325 66.1575 -43.3525 69.1275 -41.3125 72.1875 C-44.75392433 75.95155787 -48.25612854 78.56755004 -52.640625 81.171875 C-54.28340689 82.07933482 -54.28340689 82.07933482 -55.3125 83.1875 C-54.178125 83.6 -53.04375 84.0125 -51.875 84.4375 C-48.3125 86.1875 -48.3125 86.1875 -47.25 88.25 C-47.3125 90.1875 -47.3125 90.1875 -49.3125 92.1875 C-50.12792098 94.39895584 -50.77172584 96.6367403 -51.43359375 98.8984375 C-52.39208351 101.39477083 -53.69982535 103.06751337 -55.3125 105.1875 C-56.03377047 106.74671705 -56.69921417 108.33273541 -57.3125 109.9375 C-57.6528125 110.81921875 -57.993125 111.7009375 -58.34375 112.609375 C-58.6634375 113.46015625 -58.983125 114.3109375 -59.3125 115.1875 C-59.5703125 115.87328125 -59.828125 116.5590625 -60.09375 117.265625 C-60.57825502 118.5611493 -61.06262719 119.85672329 -61.546875 121.15234375 C-64.25800582 128.35897209 -67.29528202 135.34604323 -70.60229492 142.2980957 C-72.71307915 146.78091373 -74.59007707 151.31644747 -76.375 155.9375 C-79.1209228 162.93446371 -82.08028941 170.19041515 -86.84765625 176.0859375 C-88.73503541 178.79369746 -89.55059902 181.48596914 -90.5625 184.625 C-92.68896682 190.84281485 -95.38820871 196.29462083 -98.76171875 201.95703125 C-100.05659688 204.65442223 -100.65417619 206.47863655 -101.203125 209.33984375 C-102.38705123 215.24711012 -104.88254447 220.48079056 -107.375 225.9375 C-108.36679838 228.14802811 -109.35766804 230.35897312 -110.34765625 232.5703125 C-110.84410645 233.67407227 -111.34055664 234.77783203 -111.85205078 235.91503906 C-114.05822233 240.85845656 -116.18988908 245.8327519 -118.3125 250.8125 C-118.67351807 251.65780273 -119.03453613 252.50310547 -119.40649414 253.37402344 C-120.07311459 254.93552225 -120.73878852 256.49742562 -121.40332031 258.05981445 C-121.99120218 259.43559064 -122.58397655 260.80929098 -123.18261719 262.18041992 C-124.4865236 265.1713843 -125.66119541 268.1147476 -126.5625 271.25 C-127.8899313 275.40175321 -129.79103855 279.15378246 -131.8125 283 C-134.63481455 288.39336715 -136.44766926 293.58362169 -137.609375 299.56640625 C-138.39903227 302.51007308 -139.73423948 304.59204855 -141.3125 307.1875 C-141.93071694 309.04487424 -142.48894164 310.92283056 -143 312.8125 C-145.2074486 320.28906921 -148.22569498 327.33114567 -151.3046875 334.484375 C-153.06031613 338.56377548 -154.70115575 342.67407488 -156.3125 346.8125 C-158.4893388 352.31407348 -160.89121009 357.66011654 -163.4375 363 C-169.67747512 375.08003019 -169.67747512 375.08003019 -172.3125 388.1875 C-170.7941464 391.99114069 -170.7941464 391.99114069 -168.3125 395.1875 C-165.06043614 395.54884043 -163.08037403 395.73269056 -160.359375 393.80078125 C-156.79359294 389.24828469 -155.29535581 383.692615 -153.40039062 378.27734375 C-150.88674799 371.52471797 -150.88674799 371.52471797 -147.55859375 369.5703125 C-146.44677734 369.38082031 -146.44677734 369.38082031 -145.3125 369.1875 C-145.64894531 367.49173828 -145.64894531 367.49173828 -145.9921875 365.76171875 C-146.6199618 360.63489528 -145.25276024 356.75309683 -143.4375 352 C-142.96799927 350.72189453 -142.96799927 350.72189453 -142.48901367 349.41796875 C-140.01176146 342.7845654 -137.35736886 336.21951583 -134.625 329.6875 C-134.07320068 328.35295776 -134.07320068 328.35295776 -133.51025391 326.99145508 C-131.58050073 322.50245472 -129.82626645 319.62006597 -126.3125 316.1875 C-125.08799869 313.04171886 -125.08799869 313.04171886 -124.25 309.625 C-123.14177955 305.43469005 -122.38228133 303.16451321 -119.3125 300.1875 C-118.80733001 298.09774991 -118.80733001 298.09774991 -118.625 295.6875 C-117.71038637 289.93081421 -115.79108321 284.85150814 -113.5625 279.5 C-113.23934814 278.70464844 -112.91619629 277.90929687 -112.58325195 277.08984375 C-110.82546969 272.97739323 -108.93193219 269.53245208 -106.140625 266.02734375 C-103.42029441 262.57200901 -102.43426867 259.85205757 -101.8125 255.4375 C-100.53963773 248.41402783 -98.31896007 242.14502266 -94.3125 236.1875 C-93.3225 235.8575 -92.3325 235.5275 -91.3125 235.1875 C-90.38822497 232.52690643 -90.38822497 232.52690643 -89.8125 229.375 C-88.63247933 223.60835137 -88.63247933 223.60835137 -86.80078125 221.19921875 C-84.80095471 218.49604114 -84.55560648 216.11590182 -84 212.8125 C-82.71842065 206.29610976 -80.59797295 200.65014862 -77.8125 194.63671875 C-76.6980261 192.07400923 -75.7809581 189.65076976 -74.93359375 187.00390625 C-73.08904383 181.33355683 -70.76275781 175.89766212 -68.375 170.4375 C-67.9013501 169.35146484 -67.4277002 168.26542969 -66.93969727 167.14648438 C-63.22547835 158.82119709 -58.99122738 150.92932771 -54.19750977 143.17675781 C-51.38981839 138.54276828 -49.65887613 134.53465676 -48.68725586 129.19628906 C-48.20379907 126.60483468 -47.35867413 124.25390808 -46.375 121.8125 C-46.05660156 121.00039063 -45.73820312 120.18828125 -45.41015625 119.3515625 C-44.3125 117.1875 -44.3125 117.1875 -42.73046875 115.6640625 C-40.90030822 113.7582755 -40.86348564 112.54014049 -40.5625 109.9375 C-39.36375083 103.15768912 -36.34954161 97.30031843 -33.31103516 91.19482422 C-32.31332432 89.1891571 -31.33318735 87.17563309 -30.35546875 85.16015625 C-27.10386541 78.50245617 -23.71720118 71.91820463 -20.125 65.4375 C-19.51269531 64.32890625 -18.90039062 63.2203125 -18.26953125 62.078125 C-15.55301251 58.06570211 -12.30030818 55.84603879 -8.3125 53.1875 C-7.98969281 51.15189673 -7.98969281 51.15189673 -8.23828125 48.8359375 C-8.29306641 47.98515625 -8.34785156 47.134375 -8.40429688 46.2578125 C-8.47712891 45.36835938 -8.54996094 44.47890625 -8.625 43.5625 C-8.68623047 42.6653125 -8.74746094 41.768125 -8.81054688 40.84375 C-8.96406533 38.62363694 -9.13193161 36.40555021 -9.3125 34.1875 C-15.83717943 34.89488322 -18.8795763 37.57725935 -23.3125 42.1875 C-25.34569084 44.99190116 -26.40422546 47.43210123 -27.625 50.6875 C-29.72437677 55.04176293 -31.23128586 56.62673818 -35.3125 59.1875 C-39.65926193 59.1875 -42.92253935 57.89946852 -46.3125 55.1875 C-48.12692549 49.38328942 -45.94848379 45.38764241 -43.3125 40.1875 C-36.7083242 28.91412984 -36.7083242 28.91412984 -32.125 25.5625 C-28.65177589 22.62955519 -27.36614813 19.63097381 -25.45703125 15.5703125 C-24.05394004 12.6492011 -22.72209114 10.3780374 -20.3125 8.1875 C-19.36375 8.22875 -18.415 8.27 -17.4375 8.3125 C-14.32597331 8.5239473 -14.32597331 8.5239473 -12.6640625 6.68359375 C-11.61620521 5.41849776 -10.59626968 4.12961288 -9.609375 2.81640625 C-6.96028894 -0.51090968 -4.01532836 0.02273685 0 0 Z M176.6875 40.1875 C177.6875 42.1875 177.6875 42.1875 177.6875 42.1875 Z M-6.3125 84.1875 C-6.3125 84.8475 -6.3125 85.5075 -6.3125 86.1875 C-5.6525 86.1875 -4.9925 86.1875 -4.3125 86.1875 C-4.3125 85.5275 -4.3125 84.8675 -4.3125 84.1875 C-4.9725 84.1875 -5.6325 84.1875 -6.3125 84.1875 Z M225.6875 84.1875 C224.05073743 86.1475281 224.05073743 86.1475281 222.6875 88.1875 C224.67241642 87.92073796 224.67241642 87.92073796 226.6875 87.1875 C227.0175 86.1975 227.3475 85.2075 227.6875 84.1875 C227.0275 84.1875 226.3675 84.1875 225.6875 84.1875 Z M147.6875 87.1875 C143.54424405 92.08407521 142.38532779 96.84188369 142.6875 103.1875 C145.59099865 101.47779522 146.57771838 100.4934958 147.734375 97.26953125 C147.96640625 96.19058594 148.1984375 95.11164063 148.4375 94 C148.67984375 92.91332031 148.9221875 91.82664062 149.171875 90.70703125 C149.34203125 89.87558594 149.5121875 89.04414063 149.6875 88.1875 C149.0275 87.8575 148.3675 87.5275 147.6875 87.1875 Z M24.6875 88.1875 C24.50574219 88.77917969 24.32398438 89.37085938 24.13671875 89.98046875 C21.21049606 99.17931239 21.21049606 99.17931239 18.6875 102.1875 C16 102.5 16 102.5 13.6875 102.1875 C14.6775 102.6825 14.6775 102.6825 15.6875 103.1875 C15.12143721 107.87773454 14.50212495 112.53250026 13.6875 117.1875 C17.90267102 113.6007375 20.01060286 109.24065208 22.4375 104.375 C22.84871094 103.59318359 23.25992188 102.81136719 23.68359375 102.00585938 C26.14208887 97.11745628 27.18421906 93.65871441 26.6875 88.1875 C26.0275 88.1875 25.3675 88.1875 24.6875 88.1875 Z M-17.3125 106.1875 C-16.3125 108.1875 -16.3125 108.1875 -16.3125 108.1875 Z M-18.3125 108.1875 C-20.90027208 111.24330974 -20.90027208 111.24330974 -21.3125 115.1875 C-20.6525 115.1875 -19.9925 115.1875 -19.3125 115.1875 C-18.18733915 113.35465557 -18.18733915 113.35465557 -17.3125 111.1875 C-17.6425 110.1975 -17.9725 109.2075 -18.3125 108.1875 Z M33.6875 107.1875 C28.67885257 113.30918019 25.83805918 120.25885235 22.78533936 127.47503662 C21.24725585 131.10755365 19.68055148 134.72765631 18.11328125 138.34765625 C17.8100293 139.04906738 17.50677734 139.75047852 17.19433594 140.47314453 C15.12260871 145.2437041 12.9525648 149.94179445 10.5625 154.5625 C1.82573146 171.53126697 -5.83601445 188.98369814 -12.83520508 206.73168945 C-13.47752075 208.34950317 -13.47752075 208.34950317 -14.1328125 210 C-14.69379639 211.43279297 -14.69379639 211.43279297 -15.26611328 212.89453125 C-16.3125 215.1875 -16.3125 215.1875 -18.3125 217.1875 C-19.13514274 219.33503053 -19.89705913 221.50604852 -20.625 223.6875 C-22.41902983 228.91875215 -24.5114665 233.81581266 -27.06640625 238.71875 C-30.54775523 245.61596805 -33.21421315 252.8817469 -35.875 260.125 C-38.86212551 268.22689766 -42.14392914 276.20677585 -45.4375 284.1875 C-45.69725616 284.81969452 -45.95701233 285.45188904 -46.22463989 286.10324097 C-49.03314098 292.9312299 -51.94162899 299.61959214 -55.3125 306.1875 C-55.92272947 307.6137903 -56.51069529 309.05010497 -57.0625 310.5 C-59.04972346 315.57409627 -61.138223 320.60178904 -63.25 325.625 C-63.60215576 326.46401855 -63.95431152 327.30303711 -64.31713867 328.16748047 C-66.08766868 332.36389594 -67.9109028 336.51470386 -69.875 340.625 C-72.08936055 345.38878882 -73.71436889 350.27541149 -75.375 355.25 C-78.6540462 365.05015688 -82.90994537 374.30617995 -87.40063477 383.60571289 C-87.90651123 384.66395264 -88.4123877 385.72219238 -88.93359375 386.8125 C-89.3917749 387.75351562 -89.84995605 388.69453125 -90.32202148 389.6640625 C-91.55608248 392.35626325 -91.55608248 392.35626325 -91.3125 396.1875 C-88.38370629 395.55990135 -85.95154371 394.60127341 -83.3125 393.1875 C-82.9825 395.4975 -82.6525 397.8075 -82.3125 400.1875 C-80.50997131 400.88944993 -80.50997131 400.88944993 -78.3125 401.1875 C-77.42691406 400.7234375 -77.42691406 400.7234375 -76.5234375 400.25 C-69.43160782 396.84191224 -59.52675856 398.09552567 -51.75 398.0625 C-50.97640137 398.05782715 -50.20280273 398.0531543 -49.40576172 398.04833984 C-43.75527533 398.06448054 -43.75527533 398.06448054 -41.25805664 398.75830078 C-39.11284456 399.40604433 -39.11284456 399.40604433 -36.3125 398.1875 C-34.45252717 398.09410971 -32.58936614 398.05957445 -30.72705078 398.05810547 C-29.58221222 398.05495331 -28.43737366 398.05180115 -27.25784302 398.04855347 C-26.02033295 398.0505777 -24.78282288 398.05260193 -23.5078125 398.0546875 C-22.2365451 398.05373077 -20.96527771 398.05277405 -19.65548706 398.05178833 C-16.96381238 398.05110719 -14.27222818 398.05245606 -11.58056641 398.05712891 C-8.13851833 398.06281455 -4.69654843 398.05955281 -1.25450325 398.05355644 C2.03606309 398.04906203 5.32662014 398.05221482 8.6171875 398.0546875 C9.85064911 398.05266327 11.08411072 398.05063904 12.35494995 398.04855347 C14.08166428 398.05328171 14.08166428 398.05328171 15.84326172 398.05810547 C16.85347382 398.05890106 17.86368591 398.05969666 18.9045105 398.06051636 C21.6875 398.1875 21.6875 398.1875 24.16078186 398.75170898 C27.32509726 399.2974684 29.79433379 398.83476307 32.95922852 398.28955078 C44.01850824 396.6094504 55.17765567 396.72025596 66.33984375 396.5546875 C68.6949647 396.51346003 71.05007234 396.47146506 73.40516663 396.42874146 C79.55501402 396.31921133 85.70498466 396.21999753 91.8550415 396.12304688 C98.1502152 396.02194415 104.44521354 395.91092594 110.74023438 395.80078125 C123.0558392 395.58673576 135.37159735 395.38360562 147.6875 395.1875 C148.7883976 391.88480721 148.65485875 391.37170042 147.53515625 388.2578125 C147.25728271 387.47293457 146.97940918 386.68805664 146.69311523 385.87939453 C146.22627319 384.60878174 146.22627319 384.60878174 145.75 383.3125 C145.43297119 382.43062012 145.11594238 381.54874023 144.78930664 380.64013672 C143.76832022 377.81765876 142.73079913 375.00180181 141.6875 372.1875 C141.34944336 371.27355469 141.01138672 370.35960937 140.66308594 369.41796875 C137.00547278 359.57515221 133.20290242 349.82520228 128.99609375 340.203125 C127.46980172 336.68581919 126.04303219 333.13609586 124.64453125 329.56640625 C122.92186175 325.28434207 121.06739265 321.05872047 119.22265625 316.828125 C115.78797753 308.92016446 112.66209617 300.96012325 109.87109375 292.80078125 C107.27960529 285.39818864 104.17085324 278.24126432 101.05175781 271.04980469 C98.41452709 264.95025115 95.94527978 258.82702756 93.66015625 252.5859375 C92.70094148 249.98953757 92.70094148 249.98953757 90.6875 247.1875 C88.90719644 242.78910297 88.40204443 238.83077829 88.2265625 234.140625 C88.04867187 233.49609375 87.87078125 232.8515625 87.6875 232.1875 C87.04683594 231.8678125 86.40617188 231.548125 85.74609375 231.21875 C83.6875 230.1875 83.6875 230.1875 82.74609375 228.015625 C82.54113281 227.16484375 82.33617187 226.3140625 82.125 225.4375 C81.04557655 221.35902976 79.61026238 217.95290965 77.6875 214.1875 C77.208575 212.81953608 76.7522624 211.44355158 76.3125 210.0625 C74.05809663 203.03825371 71.07779268 196.28892214 68.0625 189.5625 C66.93859345 186.80382028 66.06858959 184.16661986 65.25 181.3125 C64.04737864 177.16596179 62.51108548 173.34414847 60.7109375 169.42578125 C57.04078561 161.39907502 54.22174636 153.06222471 51.33374023 144.73217773 C48.93088654 137.82211582 46.35570183 130.99972225 43.6875 124.1875 C42.67812767 121.52421639 41.68181505 118.85645093 40.6875 116.1875 C38.76440578 116.22705898 38.76440578 116.22705898 36.6875 117.1875 C35.0523868 119.78508176 35.0523868 119.78508176 33.6875 123.1875 C33.09099877 124.5427508 32.49182711 125.896828 31.890625 127.25 C31.55224609 128.01828125 31.21386719 128.7865625 30.86523438 129.578125 C28.49454906 134.83058865 25.94891458 140.00127761 23.4375 145.1875 C22.40982151 147.31170889 21.38370824 149.43667595 20.359375 151.5625 C19.65458008 153.02236328 19.65458008 153.02236328 18.93554688 154.51171875 C17.87847122 156.77806248 16.92784842 159.04823791 16.015625 161.375 C15.35820313 162.7671875 15.35820313 162.7671875 14.6875 164.1875 C13.2025 164.6825 13.2025 164.6825 11.6875 165.1875 C13.81935753 156.84368623 17.23826493 149.31648378 20.9375 141.5625 C21.81492696 139.69782233 22.68919034 137.83168134 23.56344604 135.96551514 C24.41534282 134.14779522 25.26966265 132.33121153 26.12402344 130.51464844 C28.1281922 126.24968719 30.12271498 121.98214676 32.0625 117.6875 C32.60648438 116.5015625 33.15046875 115.315625 33.7109375 114.09375 C34.74220719 111.02469139 34.60137949 110.14945582 33.6875 107.1875 Z M-22.3125 118.1875 C-23.31734204 120.14335325 -24.31623805 122.10226237 -25.3125 124.0625 C-25.869375 125.15304687 -26.42625 126.24359375 -27 127.3671875 C-28.45314094 129.97125082 -28.45314094 129.97125082 -28.3125 132.1875 C-27.3225 132.1875 -26.3325 132.1875 -25.3125 132.1875 C-24.4658966 130.79967515 -23.63574661 129.40180603 -22.8125 128 C-22.11640625 126.83404297 -22.11640625 126.83404297 -21.40625 125.64453125 C-20.20520353 122.94646614 -20.10508957 121.1068018 -20.3125 118.1875 C-20.9725 118.1875 -21.6325 118.1875 -22.3125 118.1875 Z M9.6875 124.1875 C7.98719216 127.63968057 6.30446948 131.10013989 4.625 134.5625 C4.13966797 135.54734375 3.65433594 136.5321875 3.15429688 137.546875 C2.69990234 138.48789062 2.24550781 139.42890625 1.77734375 140.3984375 C1.14107056 141.70240479 1.14107056 141.70240479 0.49194336 143.03271484 C0.0937439 144.0993335 0.0937439 144.0993335 -0.3125 145.1875 C0.0175 145.8475 0.3475 146.5075 0.6875 147.1875 C1.98243195 144.79338163 3.27352172 142.3973212 4.5625 140 C5.10970703 138.98969727 5.10970703 138.98969727 5.66796875 137.95898438 C8.52895436 132.72660096 8.52895436 132.72660096 10.6875 127.1875 C10.3575 126.1975 10.0275 125.2075 9.6875 124.1875 Z M-32.3125 141.1875 C-31.3125 143.1875 -31.3125 143.1875 -31.3125 143.1875 Z M-34.3125 146.1875 C-36.02899673 147.91992436 -36.02899673 147.91992436 -37.3125 150.1875 C-37.09532648 152.39550528 -37.09532648 152.39550528 -36.3125 154.1875 C-35.6525 153.8575 -34.9925 153.5275 -34.3125 153.1875 C-33.90520772 150.86593403 -33.56811323 148.5306213 -33.3125 146.1875 C-33.6425 146.1875 -33.9725 146.1875 -34.3125 146.1875 Z M-2.3125 148.1875 C-4.61921915 150.90299154 -4.61921915 150.90299154 -3.9375 153.375 C-3.73125 153.973125 -3.525 154.57125 -3.3125 155.1875 C-0.95296906 152.82796906 -0.82108587 151.40854383 -0.3125 148.1875 C-0.9725 148.1875 -1.6325 148.1875 -2.3125 148.1875 Z M-5.3125 159.1875 C-7.27436483 162.08413573 -8.73978422 165.08410327 -10.109375 168.2890625 C-10.58890625 169.39507813 -10.58890625 169.39507813 -11.078125 170.5234375 C-11.7348079 172.05048582 -12.37548035 173.58451819 -13 175.125 C-14.75663259 179.09833563 -15.98261478 181.45188905 -20.078125 183.2109375 C-21.14546875 183.53320312 -22.2128125 183.85546875 -23.3125 184.1875 C-22.6525 185.5075 -21.9925 186.8275 -21.3125 188.1875 C-20.6525 188.1875 -19.9925 188.1875 -19.3125 188.1875 C-19.68503906 189.15171875 -20.05757813 190.1159375 -20.44140625 191.109375 C-20.91984166 192.38520275 -21.39767479 193.66125647 -21.875 194.9375 C-22.12185547 195.57171875 -22.36871094 196.2059375 -22.62304688 196.859375 C-23.89447079 200.29759179 -24.77936355 202.70918882 -23.3125 206.1875 C-14.77966557 188.41433304 -14.77966557 188.41433304 -7.96875 169.9453125 C-7.13410042 167.70964398 -5.73554222 166.08488963 -4.3125 164.1875 C-4.06125174 161.51988236 -4.06125174 161.51988236 -4.3125 159.1875 C-4.6425 159.1875 -4.9725 159.1875 -5.3125 159.1875 Z M164.6875 167.1875 C164.0275 171.1475 163.3675 175.1075 162.6875 179.1875 C164.0075 179.5175 165.3275 179.8475 166.6875 180.1875 C170.15147068 185.54612868 172.13785022 191.74641538 173.1328125 198.01953125 C173.88768267 200.9699041 175.3254856 203.46683421 176.6875 206.1875 C177.45245017 208.42558741 178.17925085 210.67694318 178.875 212.9375 C180.77930011 218.92847185 183.1267275 224.60241941 185.75 230.3125 C188.60649043 236.54172203 190.93660855 242.68658452 192.82421875 249.2890625 C194.48194891 254.85483527 196.79133636 260.15230995 199.12890625 265.4609375 C200.81376021 269.38540797 202.18522523 273.39712637 203.5625 277.4375 C206.92872151 287.63034783 206.92872151 287.63034783 211.6875 297.1875 C212.6775 297.5175 213.6675 297.8475 214.6875 298.1875 C219.0332412 295.53176927 221.65182542 291.69429554 224.65234375 287.69140625 C227.62508795 284.03396089 231.01653624 280.86233098 234.453125 277.64453125 C236.80387633 275.28923638 236.80387633 275.28923638 238.09692383 272.30664062 C243.40165585 261.90399193 254.39615003 253.32410227 262.59887695 245.14575195 C264.75262522 242.99738134 266.90095226 240.84369306 269.04882812 238.68945312 C270.43978354 237.29915832 271.83104903 235.90917364 273.22265625 234.51953125 C273.85309341 233.88706985 274.48353058 233.25460846 275.1330719 232.60298157 C281.49416042 226.27470945 288.27937415 220.46858887 295.1875 214.75 C295.991875 214.08194336 295.991875 214.08194336 296.8125 213.40039062 C298.10338992 212.32849096 299.39532572 211.25785103 300.6875 210.1875 C300.7441247 208.23588287 300.7441247 208.23588287 299.6875 206.1875 C297.26884388 205.12292941 295.08354504 204.33945647 292.5625 203.625 C291.24646237 203.23096897 289.93134848 202.83383921 288.6171875 202.43359375 C287.63492188 202.13835815 287.63492188 202.13835815 286.6328125 201.8371582 C284.72912108 201.20139981 282.88826029 200.38654813 281.0546875 199.5703125 C277.79444709 198.23142027 275.42618811 197.77775329 271.9375 197.625 C268.14811178 197.45034943 266.94250945 197.3575063 263.6875 195.1875 C261.48562578 194.62274059 261.48562578 194.62274059 259.0625 194.25 C255.0178164 193.49561138 251.28419112 192.45338 247.40625 191.1015625 C243.83685571 189.90150752 240.23545237 188.81834143 236.625 187.75 C235.53783691 187.42769409 235.53783691 187.42769409 234.42871094 187.09887695 C227.99847816 185.22186407 221.51228606 183.66032011 214.98046875 182.1796875 C211.79187099 181.21894749 210.27174507 180.16368741 207.6875 178.1875 C204.83310183 177.32370054 204.83310183 177.32370054 201.6875 176.75 C193.27272836 174.94077698 185.33497253 172.34969042 177.4375 168.9375 C172.95658809 167.08132937 169.50431977 166.83069854 164.6875 167.1875 Z M-45.3125 171.1875 C-46.01187202 172.6192616 -46.69662718 174.05817032 -47.375 175.5 C-47.75785156 176.30050781 -48.14070313 177.10101562 -48.53515625 177.92578125 C-49.60985514 180.30778753 -49.60985514 180.30778753 -48.3125 183.1875 C-44.81321836 180.85464557 -44.6795902 179.97954931 -43.625 176.0625 C-43.37363281 175.15242187 -43.12226563 174.24234375 -42.86328125 173.3046875 C-42.68152344 172.60601563 -42.49976563 171.90734375 -42.3125 171.1875 C-43.3025 171.1875 -44.2925 171.1875 -45.3125 171.1875 Z M-58.3125 198.1875 C-59.94926257 200.1475281 -59.94926257 200.1475281 -61.3125 202.1875 C-60.6525 203.5075 -59.9925 204.8275 -59.3125 206.1875 C-57.1111134 202.38322508 -57.1111134 202.38322508 -56.3125 198.1875 C-56.9725 198.1875 -57.6325 198.1875 -58.3125 198.1875 Z M-25.3125 206.1875 C-26.17908615 207.44989712 -27.03042059 208.72277501 -27.875 210 C-28.35066406 210.70769531 -28.82632812 211.41539062 -29.31640625 212.14453125 C-30.66327091 214.30186427 -30.66327091 214.30186427 -29.3125 217.1875 C-28.4486871 215.73485962 -27.59669546 214.2751837 -26.75 212.8125 C-26.27433594 212.00039063 -25.79867188 211.18828125 -25.30859375 210.3515625 C-24.97988281 209.63742187 -24.65117187 208.92328125 -24.3125 208.1875 C-24.6425 207.5275 -24.9725 206.8675 -25.3125 206.1875 Z M-66.3125 218.1875 C-65.3125 221.1875 -65.3125 221.1875 -65.3125 221.1875 Z M-33.3125 222.1875 C-33.6425 223.5075 -33.9725 224.8275 -34.3125 226.1875 C-33.6525 226.1875 -32.9925 226.1875 -32.3125 226.1875 C-31.9825 225.1975 -31.6525 224.2075 -31.3125 223.1875 C-31.9725 222.8575 -32.6325 222.5275 -33.3125 222.1875 Z M-70.3125 226.1875 C-71.66689668 228.89629335 -71.37751451 231.19683268 -71.3125 234.1875 C-69.9925 233.5275 -68.6725 232.8675 -67.3125 232.1875 C-67.3125 230.2075 -67.3125 228.2275 -67.3125 226.1875 C-68.3025 226.1875 -69.2925 226.1875 -70.3125 226.1875 Z M410.6875 229.1875 C410.6875 229.8475 410.6875 230.5075 410.6875 231.1875 C412.0075 231.1875 413.3275 231.1875 414.6875 231.1875 C414.3575 230.1975 414.0275 229.2075 413.6875 228.1875 C412.4638932 228.1129644 412.4638932 228.1129644 410.6875 229.1875 Z M-37.3125 231.1875 C-41.54503452 235.56598399 -43.25972798 240.58298935 -45.3125 246.1875 C-46.00472656 247.97994141 -46.00472656 247.97994141 -46.7109375 249.80859375 C-47.18336844 251.05948969 -47.6547307 252.3107898 -48.125 253.5625 C-48.56457031 254.72523438 -49.00414062 255.88796875 -49.45703125 257.0859375 C-50.28265033 260.07927791 -50.44721628 261.36115148 -49.3125 264.1875 C-43.27429062 253.64657091 -38.1081765 243.30161609 -36.3125 231.1875 C-36.6425 231.1875 -36.9725 231.1875 -37.3125 231.1875 Z M-75.3125 239.1875 C-80.37354471 243.83818974 -82.64313995 248.44128897 -85.0625 254.75 C-88.00398666 262.2519311 -91.84344327 269.4839149 -96.3125 276.1875 C-97.02155938 278.17286627 -97.67944179 280.17660922 -98.3125 282.1875 C-102.08664657 293.78113587 -106.44011189 305.01348993 -111.3125 316.1875 C-111.56942627 316.82953369 -111.82635254 317.47156738 -112.09106445 318.13305664 C-114.09700846 323.0895493 -114.09700846 323.0895493 -116.375 324.125 C-118.72227588 325.11648027 -118.72227588 325.11648027 -119.3125 328.5625 C-119.45300781 329.26890625 -119.59351563 329.9753125 -119.73828125 330.703125 C-120.6567372 334.67685279 -122.17389317 338.44365001 -123.60546875 342.2578125 C-124.52474605 345.18256208 -124.52474605 345.18256208 -123.74609375 348.1484375 C-123.17217027 352.17107232 -124.34001856 354.11172947 -126.1875 357.6875 C-128.34598402 361.90407344 -129.88938528 365.437696 -130.3125 370.1875 C-129.9825 370.8475 -129.6525 371.5075 -129.3125 372.1875 C-127.9925 372.1875 -126.6725 372.1875 -125.3125 372.1875 C-125.30734375 371.62804687 -125.3021875 371.06859375 -125.296875 370.4921875 C-124.48668584 362.09322659 -119.74060049 357.41810613 -114.2578125 351.484375 C-110.89963967 347.8331604 -108.1812226 343.96631295 -106 339.5 C-103.59386939 336.20270991 -101.12131889 335.55292564 -97.3125 334.1875 C-97.8075 333.713125 -98.3025 333.23875 -98.8125 332.75 C-101.04883736 328.92959034 -100.97444212 325.5121885 -100.3125 321.1875 C-98.78682756 317.96663595 -97.11424087 315.32308881 -95.07421875 312.43359375 C-91.71072084 307.44562008 -90.05270817 302.5446284 -88.39453125 296.77734375 C-87.26736641 293.03776075 -85.95650635 289.3956857 -84.5625 285.75 C-81.65518718 278.13673448 -78.86785501 270.48365122 -76.11621094 262.81274414 C-74.70664087 258.90809339 -73.28542273 255.05510265 -71.5703125 251.2734375 C-69.99701223 247.4134772 -70.14332822 245.16268404 -71.3125 241.1875 C-73.24847032 239.67455712 -73.24847032 239.67455712 -75.3125 239.1875 Z M-66.3125 260.1875 C-65.3125 262.1875 -65.3125 262.1875 -65.3125 262.1875 Z M-53.3125 268.1875 C-59.82684469 280.06981029 -64.53257494 292.42196473 -69.11328125 305.16015625 C-71.17530031 310.86829077 -73.36030757 316.33011176 -76.1328125 321.73828125 C-79.19432884 327.7813598 -81.63748208 334.10426682 -84.1875 340.375 C-87.63633657 348.85403184 -91.18935927 357.24659752 -95.11767578 365.51660156 C-96.43253594 368.28092247 -96.43253594 368.28092247 -97.3125 371.75 C-98.90587018 377.22721001 -101.67903051 382.14415749 -104.3125 387.1875 C-104.9725 387.1875 -105.6325 387.1875 -106.3125 387.1875 C-106.9725 386.5275 -107.6325 385.8675 -108.3125 385.1875 C-108.19807539 386.79245567 -108.07055306 388.39648119 -107.9375 390 C-107.86789062 390.89332031 -107.79828125 391.78664063 -107.7265625 392.70703125 C-107.44604964 395.43148499 -107.44604964 395.43148499 -105.3125 398.1875 C-104.4153125 396.7953125 -104.4153125 396.7953125 -103.5 395.375 C-101.3125 392.1875 -101.3125 392.1875 -99.5625 390.75 C-97.97402908 389.10601567 -97.97402908 389.10601567 -98.375 386 C-98.30619878 381.80312529 -97.41481261 379.87256337 -95.45703125 376.2890625 C-92.86517974 371.52996315 -90.80106867 366.51996002 -88.9375 361.4375 C-82.89479814 344.97864907 -82.89479814 344.97864907 -79.3125 343.1875 C-78.84097644 341.33450833 -78.4579282 339.45885121 -78.11328125 337.578125 C-76.50684637 330.19356039 -73.66551462 323.70325373 -70.44476318 316.92758179 C-68.8362845 313.53942675 -67.27031871 310.13184945 -65.70703125 306.72265625 C-65.40373901 306.06215775 -65.10044678 305.40165924 -64.78796387 304.72114563 C-61.92949076 298.44411054 -59.56245211 292.08158384 -57.42578125 285.53125 C-56.12949168 281.63783291 -54.56613398 277.90633607 -52.87890625 274.16796875 C-52.20471823 271.81063546 -52.52503468 270.47784031 -53.3125 268.1875 Z M-68.3125 287.1875 C-68.9725 287.8475 -69.6325 288.5075 -70.3125 289.1875 C-69.9825 290.1775 -69.6525 291.1675 -69.3125 292.1875 C-68.6525 290.5375 -67.9925 288.8875 -67.3125 287.1875 C-67.6425 287.1875 -67.9725 287.1875 -68.3125 287.1875 Z M328.6875 301.1875 C328.3575 302.1775 328.0275 303.1675 327.6875 304.1875 C330.1625 304.6825 330.1625 304.6825 332.6875 305.1875 C333.0175 304.1975 333.3475 303.2075 333.6875 302.1875 C332.0375 301.8575 330.3875 301.5275 328.6875 301.1875 Z M-78.3125 310.1875 C-77.3125 312.1875 -77.3125 312.1875 -77.3125 312.1875 Z M-82.3125 316.1875 C-81.9825 317.5075 -81.6525 318.8275 -81.3125 320.1875 C-80.9825 318.8675 -80.6525 317.5475 -80.3125 316.1875 C-80.9725 316.1875 -81.6325 316.1875 -82.3125 316.1875 Z M-86.3125 325.1875 C-85.9825 326.5075 -85.6525 327.8275 -85.3125 329.1875 C-84.3225 329.1875 -83.3325 329.1875 -82.3125 329.1875 C-82.6425 328.1975 -82.9725 327.2075 -83.3125 326.1875 C-84.3025 325.8575 -85.2925 325.5275 -86.3125 325.1875 Z M-133.3125 387.1875 C-134.11203138 390.47446233 -134.40908936 391.89773192 -133.3125 395.1875 C-130.3425 395.6825 -130.3425 395.6825 -127.3125 396.1875 C-127.3125 395.1975 -127.3125 394.2075 -127.3125 393.1875 C-128.3025 392.5275 -129.2925 391.8675 -130.3125 391.1875 C-131 389.0625 -131 389.0625 -131.3125 387.1875 C-131.9725 387.1875 -132.6325 387.1875 -133.3125 387.1875 Z M565.6875 415.1875 C566.0175 416.1775 566.3475 417.1675 566.6875 418.1875 C566.6875 417.1975 566.6875 416.2075 566.6875 415.1875 C566.3575 415.1875 566.0275 415.1875 565.6875 415.1875 Z M125.5 434.625 C118.37150149 435.0312209 111.24712253 435.25883363 104.109375 435.40625 C102.83902657 435.43381126 102.83902657 435.43381126 101.54301453 435.46192932 C98.08389838 435.53660234 94.62492579 435.61104309 91.16543579 435.66622925 C88.7051112 435.70552702 86.24523174 435.75619652 83.78515625 435.80859375 C83.04315979 435.81697266 82.30116333 435.82535156 81.53668213 435.83398438 C77.52092051 435.9301369 74.25654963 436.27606905 70.6875 438.1875 C70.3575 438.8475 70.0275 439.5075 69.6875 440.1875 C73.04412525 442.14354097 76.05055065 442.66876468 79.88671875 443.15234375 C81.70139648 443.39307617 81.70139648 443.39307617 83.55273438 443.63867188 C86.08120265 443.96038296 88.60984649 444.28071754 91.13867188 444.59960938 C97.23799414 445.41091297 102.81027346 446.39520539 108.58374023 448.51635742 C112.42882715 449.74301913 116.36982938 450.03378394 120.375 450.375 C121.23770508 450.45540527 122.10041016 450.53581055 122.98925781 450.61865234 C130.23564617 451.24918224 137.41412256 451.40425628 144.6875 451.1875 C144.873125 449.57875 144.873125 449.57875 145.0625 447.9375 C145.6875 444.1875 145.6875 444.1875 146.8125 442.0625 C148.01148098 439.49325504 147.42847443 437.85500795 146.6875 435.1875 C139.84605888 433.23816579 132.51922447 434.20299478 125.5 434.625 Z M-243.3125 438.1875 C-243.6425 438.8475 -243.9725 439.5075 -244.3125 440.1875 C-243.3225 439.8575 -242.3325 439.5275 -241.3125 439.1875 C-241.9725 438.8575 -242.6325 438.5275 -243.3125 438.1875 Z M-163.3125 451.1875 C-165.56479953 453.86105361 -165.56479953 453.86105361 -166.3125 457.1875 C-161.0038151 456.60575155 -161.0038151 456.60575155 -156.3125 454.1875 C-156.3125 453.1975 -156.3125 452.2075 -156.3125 451.1875 C-159.68650578 450.77024322 -159.68650578 450.77024322 -163.3125 451.1875 Z M-130.3125 458.1875 C-133.70309993 462.85421194 -135.76805919 467.47642988 -137.75 472.875 C-138.35582628 474.4761123 -138.96389822 476.0763767 -139.57421875 477.67578125 C-139.8686084 478.44744629 -140.16299805 479.21911133 -140.46630859 480.01416016 C-144.83819672 491.24282376 -144.83819672 491.24282376 -147.953125 495.3515625 C-149.51085465 497.0746564 -149.51085465 497.0746564 -149.3125 499.1875 C-151.9525 499.5175 -154.5925 499.8475 -157.3125 500.1875 C-157.3125 500.5175 -157.3125 500.8475 -157.3125 501.1875 C-155.6625 501.1875 -154.0125 501.1875 -152.3125 501.1875 C-152.76398095 503.438885 -153.22394504 505.68856998 -153.6875 507.9375 C-153.94273437 509.19046875 -154.19796875 510.4434375 -154.4609375 511.734375 C-155.16838456 514.60310528 -156.01679892 516.59609785 -157.3125 519.1875 C-157.76314632 521.77282701 -157.76314632 521.77282701 -157.9375 524.4375 C-158.01226562 525.32953125 -158.08703125 526.2215625 -158.1640625 527.140625 C-158.21304687 527.81609375 -158.26203125 528.4915625 -158.3125 529.1875 C-155.27669322 526.41830061 -153.54368961 524.04135398 -151.98046875 520.25 C-151.37634155 518.79750854 -151.37634155 518.79750854 -150.76000977 517.31567383 C-150.34420654 516.28337646 -149.92840332 515.2510791 -149.5 514.1875 C-148.84632446 512.5955481 -148.84632446 512.5955481 -148.17944336 510.97143555 C-145.04328535 503.24319033 -142.17020051 495.4418858 -139.55737305 487.52148438 C-138.17916465 483.39078075 -136.66691296 479.8834588 -134.3125 476.1875 C-133.5988409 473.86810793 -132.9377708 471.53226551 -132.3125 469.1875 C-131.49232709 466.82027107 -130.65596804 464.46027219 -129.80078125 462.10546875 C-129.0730386 460.12137581 -129.0730386 460.12137581 -130.3125 458.1875 Z M-163.3125 461.1875 C-164.3025 461.8475 -165.2925 462.5075 -166.3125 463.1875 C-166.56280977 465.77130177 -166.56280977 465.77130177 -166.3125 468.1875 C-164.9925 467.8575 -163.6725 467.5275 -162.3125 467.1875 C-161.9825 465.5375 -161.6525 463.8875 -161.3125 462.1875 C-161.9725 461.8575 -162.6325 461.5275 -163.3125 461.1875 Z M-169.3125 470.1875 C-169.65023438 471.00734375 -169.98796875 471.8271875 -170.3359375 472.671875 C-170.78195312 473.74953125 -171.22796875 474.8271875 -171.6875 475.9375 C-172.12835938 477.00484375 -172.56921875 478.0721875 -173.0234375 479.171875 C-174.04557585 481.56305926 -175.11463595 483.88133183 -176.3125 486.1875 C-175.6525 486.5175 -174.9925 486.8475 -174.3125 487.1875 C-171.25515113 486.51709786 -171.25515113 486.51709786 -170.14453125 484.3671875 C-167.92766278 479.35587562 -166.84610651 475.66762349 -167.3125 470.1875 C-167.9725 470.1875 -168.6325 470.1875 -169.3125 470.1875 Z M-150.3125 482.1875 C-149.9825 483.5075 -149.6525 484.8275 -149.3125 486.1875 C-148.3225 485.1975 -147.3325 484.2075 -146.3125 483.1875 C-147.6325 482.8575 -148.9525 482.5275 -150.3125 482.1875 Z M-179.3125 496.1875 C-178.3125 498.1875 -178.3125 498.1875 -178.3125 498.1875 Z M-181.3125 506.1875 C-180.3125 509.1875 -180.3125 509.1875 -180.3125 509.1875 Z M-185.3125 513.1875 C-184.3125 516.1875 -184.3125 516.1875 -184.3125 516.1875 Z M-188.3125 520.1875 C-188.6425 521.5075 -188.9725 522.8275 -189.3125 524.1875 C-188.3225 523.5275 -187.3325 522.8675 -186.3125 522.1875 C-186.3125 521.5275 -186.3125 520.8675 -186.3125 520.1875 C-186.9725 520.1875 -187.6325 520.1875 -188.3125 520.1875 Z M-159.3125 529.1875 C-161.59978734 531.02633881 -161.59978734 531.02633881 -161.4375 533.8125 C-161.39625 534.59625 -161.355 535.38 -161.3125 536.1875 C-160.6525 535.8575 -159.9925 535.5275 -159.3125 535.1875 C-158.65477572 532.15815509 -158.65477572 532.15815509 -158.3125 529.1875 C-158.6425 529.1875 -158.9725 529.1875 -159.3125 529.1875 Z M-192.3125 531.1875 C-192.3125 532.5075 -192.3125 533.8275 -192.3125 535.1875 C-191.3225 534.5275 -190.3325 533.8675 -189.3125 533.1875 C-189.3125 532.5275 -189.3125 531.8675 -189.3125 531.1875 C-190.3025 531.1875 -191.2925 531.1875 -192.3125 531.1875 Z M-164.3125 542.1875 C-171.49763051 555.44602164 -176.85213537 569.34899388 -182.20263672 583.41699219 C-183.3125 586.1875 -183.3125 586.1875 -184.41064453 588.32519531 C-185.52266808 590.4229848 -185.52266808 590.4229848 -186.0625 593.9375 C-187.17365003 599.42896876 -189.25818583 604.51872826 -191.36816406 609.69042969 C-193.11563908 613.85154726 -193.11563908 613.85154726 -192.3125 618.1875 C-189.1598628 611.59472095 -186.21648867 605.25945791 -184.3125 598.1875 C-182.41431948 593.42855453 -180.15695097 588.86434173 -177.8125 584.3125 C-174.15491142 577.07586002 -171.67589552 569.41853873 -169.17578125 561.72265625 C-168.47903002 559.67654065 -167.73674536 557.64596338 -166.98046875 555.62109375 C-166.74706787 554.99307861 -166.51366699 554.36506348 -166.27319336 553.71801758 C-165.58958724 551.88512654 -164.89654721 550.05576247 -164.203125 548.2265625 C-162.997369 545.18245261 -162.997369 545.18245261 -164.3125 542.1875 Z M-205.3125 564.1875 C-206.45602916 566.47455831 -206.41584439 567.78014762 -206.375 570.3125 C-206.354375 571.59125 -206.33375 572.87 -206.3125 574.1875 C-203.66676499 571.95872275 -203.66676499 571.95872275 -201.3125 569.1875 C-201.1264479 566.92716377 -201.1264479 566.92716377 -202.3125 565.1875 C-203.3025 564.8575 -204.2925 564.5275 -205.3125 564.1875 Z M-214.3125 578.1875 C-214.3125 579.5075 -214.3125 580.8275 -214.3125 582.1875 C-213.6525 582.1875 -212.9925 582.1875 -212.3125 582.1875 C-212.6425 580.8675 -212.9725 579.5475 -213.3125 578.1875 C-213.6425 578.1875 -213.9725 578.1875 -214.3125 578.1875 Z M-213.3125 588.1875 C-212.6525 588.8475 -211.9925 589.5075 -211.3125 590.1875 C-211.3125 589.5275 -211.3125 588.8675 -211.3125 588.1875 C-211.9725 588.1875 -212.6325 588.1875 -213.3125 588.1875 Z M-216.3125 598.1875 C-218.59482418 600.39438307 -218.59482418 600.39438307 -220.3125 603.1875 C-220.18686418 605.45174351 -220.18686418 605.45174351 -219.3125 607.1875 C-216.3584281 602.92172431 -216.3584281 602.92172431 -214.3125 598.1875 C-214.9725 598.1875 -215.6325 598.1875 -216.3125 598.1875 Z M-224.3125 616.1875 C-223.6525 616.8475 -222.9925 617.5075 -222.3125 618.1875 C-222.3125 617.5275 -222.3125 616.8675 -222.3125 616.1875 C-222.9725 616.1875 -223.6325 616.1875 -224.3125 616.1875 Z M-194.3125 618.1875 C-193.3125 620.1875 -193.3125 620.1875 -193.3125 620.1875 Z M-227.3125 625.1875 C-226.3125 627.1875 -226.3125 627.1875 -226.3125 627.1875 Z M-197.3125 627.1875 C-197.6425 628.8375 -197.9725 630.4875 -198.3125 632.1875 C-197.6525 631.5275 -196.9925 630.8675 -196.3125 630.1875 C-196.6425 629.1975 -196.9725 628.2075 -197.3125 627.1875 Z M-231.3125 634.1875 C-231.9725 636.1675 -232.6325 638.1475 -233.3125 640.1875 C-231.25259522 638.89282323 -231.25259522 638.89282323 -229.3125 637.1875 C-229.3125 636.1975 -229.3125 635.2075 -229.3125 634.1875 C-229.9725 634.1875 -230.6325 634.1875 -231.3125 634.1875 Z M-201.3125 637.1875 C-201.9621875 638.79625 -201.9621875 638.79625 -202.625 640.4375 C-203.4810178 642.55716311 -204.28009944 644.1479197 -205.73486328 645.92504883 C-207.62013984 648.62867895 -208.49033703 651.17325195 -209.50390625 654.30859375 C-210.08495117 656.08266602 -210.08495117 656.08266602 -210.67773438 657.89257812 C-211.07283203 659.12427734 -211.46792969 660.35597656 -211.875 661.625 C-212.66673486 664.0615992 -213.45965858 666.49781249 -214.25390625 668.93359375 C-214.60138916 670.01310303 -214.94887207 671.0926123 -215.30688477 672.20483398 C-215.95454529 674.12580234 -216.6597949 676.02876914 -217.43334961 677.90258789 C-218.42203345 680.47217748 -218.46848695 682.45772846 -218.3125 685.1875 C-214.25840019 680.17005713 -211.98517469 674.29058299 -209.375 668.4375 C-209.10482056 667.83400726 -208.83464111 667.23051453 -208.55627441 666.60873413 C-204.40167724 657.279823 -201.10033313 648.25176755 -199.3125 638.1875 C-199.9725 637.8575 -200.6325 637.5275 -201.3125 637.1875 Z M-234.3125 646.1875 C-235.6325 648.4975 -236.9525 650.8075 -238.3125 653.1875 C-237.3225 653.1875 -236.3325 653.1875 -235.3125 653.1875 C-233.00578085 650.47200846 -233.00578085 650.47200846 -233.6875 648 C-233.89375 647.401875 -234.1 646.80375 -234.3125 646.1875 Z M-238.3125 656.1875 C-238.9725 656.8475 -239.6325 657.5075 -240.3125 658.1875 C-240.3125 659.1775 -240.3125 660.1675 -240.3125 661.1875 C-239.3225 660.8575 -238.3325 660.5275 -237.3125 660.1875 C-237.6425 658.8675 -237.9725 657.5475 -238.3125 656.1875 Z M-242.3125 664.1875 C-242.6425 665.5075 -242.9725 666.8275 -243.3125 668.1875 C-242.6525 667.8575 -241.9925 667.5275 -241.3125 667.1875 C-241.6425 666.1975 -241.9725 665.2075 -242.3125 664.1875 Z M-270.3125 696.1875 C-269.9825 697.1775 -269.6525 698.1675 -269.3125 699.1875 C-269.3125 698.1975 -269.3125 697.2075 -269.3125 696.1875 C-269.6425 696.1875 -269.9725 696.1875 -270.3125 696.1875 Z " fill="#FEFEFE" transform="translate(515.3125,350.8125)"/>
<path d="M0 0 C0.99 0 1.98 0 3 0 C1.33025298 9.89280224 -3.73071371 20.52019229 -9 29 C-9.99 29.33 -10.98 29.66 -12 30 C-11.54155594 24.59036007 -10.86006779 21.65822923 -8 17 C-7.31208463 15.20304997 -6.66629525 13.38943411 -6.0625 11.5625 C-4.50600833 7.16630215 -3.00243015 3.58354566 0 0 Z " fill="#FFFFFF" transform="translate(477,629)"/>
<path d="M0 0 C0.99 0 1.98 0 3 0 C2.42365861 4.75481646 0.44931479 7.97048212 -2 12 C-2.99 12 -3.98 12 -5 12 C-4.526508 7.02833396 -3.14907485 3.89003364 0 0 Z " fill="#FFFFFF" transform="translate(508,558)"/>
<path d="M0 0 C0.84119973 2.39957614 1.11193544 3.64922558 0.328125 6.10546875 C-0.02765625 6.79253906 -0.3834375 7.47960937 -0.75 8.1875 C-1.26820313 9.22970703 -1.26820313 9.22970703 -1.796875 10.29296875 C-3 12 -3 12 -6 13 C-5.49890261 7.73847744 -3.79035827 3.79035827 0 0 Z " fill="#FFFFFF" transform="translate(523,525)"/>
<path d="M0 0 C0.99 0 1.98 0 3 0 C2.67 2.64 2.34 5.28 2 8 C1.01 8.33 0.02 8.66 -1 9 C-0.67 6.03 -0.34 3.06 0 0 Z " fill="#FFFFFF" transform="translate(433,732)"/>
<path d="M0 0 C0.66 0 1.32 0 2 0 C1.5020163 3.73487777 1.12508244 5.81237635 -1 9 C-1.66 9 -2.32 9 -3 9 C-2.5020163 5.26512223 -2.12508244 3.18762365 0 0 Z " fill="#FFFFFF" transform="translate(460,670)"/>
<path d="M0 0 C1.98 0.495 1.98 0.495 4 1 C3.6875 2.9375 3.6875 2.9375 3 5 C2.01 5.33 1.02 5.66 0 6 C-1 3 -1 3 0 0 Z " fill="#FFFFFF" transform="translate(511,548)"/>
<path d="M0 0 C2 2 2 2 2.125 5.125 C2.08375 6.07375 2.0425 7.0225 2 8 C1.01 7.67 0.02 7.34 -1 7 C-1.04254356 5.00045254 -1.04080783 2.99958364 -1 1 C-0.67 0.67 -0.34 0.34 0 0 Z " fill="#FFFFFF" transform="translate(783,804)"/>
<path d="M0 0 C1.32 0 2.64 0 4 0 C3.67 1.65 3.34 3.3 3 5 C2.01 5 1.02 5 0 5 C0 3.35 0 1.7 0 0 Z " fill="#FFFFFF" transform="translate(490,596)"/>
<path d="M0 0 C2.475 0.495 2.475 0.495 5 1 C4.67 1.99 4.34 2.98 4 4 C2.68 4 1.36 4 0 4 C0 2.68 0 1.36 0 0 Z " fill="#FFFFFF" transform="translate(1115,784)"/>
<path d="M0 0 C0.66 0.33 1.32 0.66 2 1 C1.67 2.65 1.34 4.3 1 6 C0.34 6 -0.32 6 -1 6 C-1.042721 4.33388095 -1.04063832 2.66617115 -1 1 C-0.67 0.67 -0.34 0.34 0 0 Z " fill="#FFFFFF" transform="translate(464,660)"/>
<path d="M0 0 C0.99 0 1.98 0 3 0 C2.6875 1.9375 2.6875 1.9375 2 4 C1.01 4.33 0.02 4.66 -1 5 C-0.67 3.35 -0.34 1.7 0 0 Z " fill="#FFFFFF" transform="translate(484,612)"/>
<path d="M0 0 C0.99 0 1.98 0 3 0 C3 1.65 3 3.3 3 5 C2.01 5 1.02 5 0 5 C0 3.35 0 1.7 0 0 Z " fill="#FFFFFF" transform="translate(501,572)"/>
<path d="M0 0 C0.99 0.33 1.98 0.66 3 1 C2.67 2.32 2.34 3.64 2 5 C1.34 5 0.68 5 0 5 C0 3.35 0 1.7 0 0 Z " fill="#FFFFFF" transform="translate(779,817)"/>
<path d="M0 0 C0.99 0.33 1.98 0.66 3 1 C2.67 2.32 2.34 3.64 2 5 C1.34 5 0.68 5 0 5 C0 3.35 0 1.7 0 0 Z " fill="#FFFFFF" transform="translate(488,603)"/>
<path d="M0 0 C0.99 0.33 1.98 0.66 3 1 C2.67 1.99 2.34 2.98 2 4 C1.01 4.33 0.02 4.66 -1 5 C-0.67 3.35 -0.34 1.7 0 0 Z " fill="#FFFFFF" transform="translate(515,541)"/>
<path d="M0 0 C0.66 0 1.32 0 2 0 C2 1.32 2 2.64 2 4 C1.34 4 0.68 4 0 4 C0 2.68 0 1.36 0 0 Z " fill="#FFFFFF" transform="translate(525,517)"/>
</svg>
