<?xml version="1.0" encoding="UTF-8"?>
<svg version="1.1" xmlns="http://www.w3.org/2000/svg" width="7951" height="930">
<path d="M0 0 C1.06747061 -0.00449459 2.13494122 -0.00898917 3.23475942 -0.01361996 C4.41409401 -0.00836593 5.59342859 -0.0031119 6.80850059 0.00230134 C8.06135865 -0.00000635 9.31421671 -0.00231404 10.60504016 -0.00469166 C14.10483967 -0.01085406 17.60452376 -0.00445944 21.10431471 0.00386461 C24.90333056 0.01071197 28.70233428 0.00599544 32.50135243 0.00270963 C39.16688959 -0.00144575 45.83239112 0.00186312 52.49792415 0.00998604 C62.40940038 0.02203116 72.32085403 0.02265998 82.23233624 0.02090207 C98.90312295 0.01827103 115.57389383 0.02496935 132.24467593 0.03693688 C148.75705797 0.04876038 165.26943341 0.05646664 181.78181964 0.05864251 C183.32035524 0.05884873 183.32035524 0.05884873 184.88997236 0.05905911 C190.09867872 0.05973575 195.30738508 0.06033853 200.51609144 0.06091286 C237.43437565 0.0651166 274.35265124 0.07859943 311.27093059 0.09751809 C347.14234939 0.1158791 383.01376584 0.13005017 418.8851884 0.13853371 C419.9903952 0.13879676 421.09560199 0.13905982 422.2342999 0.13933084 C433.33297697 0.14196782 444.43165406 0.14451946 455.53033116 0.14700856 C478.14074858 0.15208134 500.75116585 0.15772385 523.36158305 0.16371071 C524.40123299 0.16398529 525.44088292 0.16425987 526.5120374 0.16454277 C558.38627459 0.17299099 590.26051033 0.18385459 622.1347459 0.19709694 C623.03990546 0.19747206 623.94506502 0.19784718 624.87765367 0.19823366 C661.5459374 0.21346629 698.21421998 0.23125273 734.88250285 0.24839699 C734.88250285 87.36839699 734.88250285 174.48839699 734.88250285 264.24839699 C690.33250285 264.24839699 645.78250285 264.24839699 599.88250285 264.24839699 C599.88250285 221.67839699 599.88250285 179.10839699 599.88250285 135.24839699 C556.55872139 135.16473068 556.55872139 135.16473068 513.23491985 135.09306252 C512.50460991 135.09197905 511.77429997 135.09089557 511.02185943 135.08977927 C486.43052922 135.053511 461.83921451 135.03372552 437.2478593 135.02629006 C436.44510808 135.02604311 435.64235685 135.02579616 434.81527983 135.02554173 C417.36801056 135.02026371 399.92074184 135.01765517 382.47347179 135.01779531 C373.91694434 135.0178478 365.36041698 135.01731059 356.80388957 135.0164634 C355.95242654 135.01638913 355.10096351 135.01631487 354.22369856 135.01623835 C326.64090166 135.01355627 299.05833083 134.97195848 271.47560845 134.91011169 C243.12329353 134.84674534 214.77121033 134.82277548 186.41882937 134.84815321 C182.41137473 134.8517219 178.40391986 134.8548417 174.39646465 134.85768807 C173.21341441 134.85854918 173.21341441 134.85854918 172.00646417 134.85942769 C159.32652103 134.86750392 146.64700965 134.83423044 133.96717215 134.78536993 C121.20979249 134.73709755 108.45298786 134.73268255 95.6955741 134.77255026 C88.78694807 134.79293628 81.87963498 134.79429739 74.9711507 134.74055588 C68.63976082 134.69320035 62.31093057 134.70163749 55.979599 134.75354245 C53.6953325 134.76258402 51.41087457 134.75154552 49.1268388 134.71784398 C34.40510923 134.51484782 25.44905222 136.49758413 14.56206167 146.7096056 C11.84818495 149.19602649 8.92858365 151.38603545 6.00750285 153.62339699 C4.86462288 154.52453354 3.72244647 155.42656516 2.5817216 156.33042824 C-7.77894266 164.51764532 -18.23687438 172.58246436 -28.71124715 180.62339699 C-32.85991082 183.81467675 -36.98782196 187.03260999 -41.11749715 190.24839699 C-47.29895838 195.06191422 -53.49671597 199.85264579 -59.71124715 204.62339699 C-63.85991145 207.81467723 -67.98775488 211.03269517 -72.11749715 214.24839699 C-77.58945135 218.50776014 -83.06340215 222.76437093 -88.55499715 226.99839699 C-89.56433308 227.77699074 -90.57366902 228.55558449 -91.6135909 229.35777199 C-93.4065976 230.71161793 -95.2481092 232.00213836 -97.11749715 233.24839699 C-97.44749715 244.79839699 -97.77749715 256.34839699 -98.11749715 268.24839699 C54.34250285 268.24839699 206.80250285 268.24839699 363.88250285 268.24839699 C363.88250285 312.79839699 363.88250285 357.34839699 363.88250285 403.24839699 C211.42250285 403.24839699 58.96250285 403.24839699 -98.11749715 403.24839699 C-98.11749715 447.13839699 -98.11749715 491.02839699 -98.11749715 536.24839699 C-50.7156179 536.35871695 -50.7156179 536.35871695 -3.31370991 536.45503151 C-2.5146273 536.45650965 -1.71554468 536.45798779 -0.89224744 536.45951073 C26.0167254 536.50903595 52.9256841 536.53931894 79.83469707 536.55519021 C81.15239139 536.5559748 81.15239139 536.5559748 82.49670579 536.55677524 C101.5898631 536.56803971 120.68302056 536.57618845 139.77618052 536.58112933 C149.13999065 536.58357144 158.50380049 536.58670176 167.86761028 536.59019387 C169.26529867 536.59069754 169.26529867 536.59069754 170.69122319 536.5912114 C200.87218323 536.6024099 231.05284963 536.65901945 261.23369841 536.73927674 C292.25858129 536.82153791 323.28318799 536.85778908 354.30818079 536.83647075 C358.6941473 536.83347838 363.08011396 536.83100985 367.46608096 536.8288604 C368.32926898 536.82842117 369.19245699 536.82798195 370.08180222 536.82752941 C383.95511283 536.8218154 397.82787274 536.86434225 411.70103402 536.92508812 C425.66159873 536.98518072 439.62146145 536.99402528 453.5820962 536.95124649 C461.86840571 536.92739404 470.152501 536.94214596 478.43854994 537.01340068 C484.64083658 537.06239131 490.84083706 537.03756674 497.04304882 536.98504932 C499.54137438 536.97517585 502.03993266 536.98867377 504.53795681 537.02871637 C521.45320964 537.28237333 531.43358301 534.31193549 544.08485445 522.85482998 C546.35870505 520.82284831 548.77576157 519.03914263 551.2614091 517.27574074 C551.9645927 516.75624856 552.66777629 516.23675637 553.39226848 515.70152199 C560.93308281 510.1338037 568.50884052 504.61795091 576.11541301 499.14048684 C584.7549989 492.91177297 593.31735226 486.57885685 601.88250285 480.24839699 C611.92345171 472.82718204 621.9831669 465.43667893 632.11541301 458.14048684 C640.7549989 451.91177297 649.31735226 445.57885685 657.88250285 439.24839699 C661.06919246 436.89313069 664.25653372 434.53875379 667.44500285 432.18589699 C668.22109905 431.61315041 668.99719524 431.04040383 669.79680949 430.45030129 C676.16776024 425.75706737 682.57715295 421.11829483 689.00970012 416.5098716 C689.7076469 416.00850686 690.40559367 415.50714211 691.12469035 414.99058449 C691.73167766 414.5560093 692.33866496 414.1214341 692.96404582 413.67368996 C694.99277613 412.23343902 694.99277613 412.23343902 696.99337322 410.18373024 C700.6990595 407.70141246 703.72573733 407.73773444 708.0270341 407.85777199 C708.79682094 407.86343178 709.56660777 407.86909157 710.35972148 407.87492287 C712.80546229 407.89721828 715.24970896 407.94739824 717.69500285 407.99839699 C719.35839307 408.018471 721.02180638 408.0367202 722.68523723 408.05308449 C726.75156343 408.09706016 730.81678029 408.16603721 734.88250285 408.24839699 C735.1163513 425.71180598 735.29256447 443.17472482 735.40062457 460.63934243 C735.45213818 468.748981 735.5223355 476.8576455 735.63689739 484.96665871 C735.73673069 492.0365259 735.8011218 499.10568759 735.8233878 506.17624009 C735.83639997 509.91875113 735.86685804 513.65924439 735.93980342 517.40110695 C736.02068455 521.58417716 736.02239257 525.7637658 736.01775676 529.94761574 C736.05370952 531.18120324 736.08966228 532.41479073 736.12670451 533.68575966 C736.0279563 541.92450786 736.0279563 541.92450786 732.73442775 545.73109353 C730.20339076 547.77976729 727.64530166 549.5298339 724.88250285 551.24839699 C723.40890245 552.33032034 721.94242011 553.42211107 720.4879716 554.52964699 C719.01647669 555.60415587 717.54378217 556.67702351 716.07000285 557.74839699 C709.11358608 562.83791598 702.22595951 568.00805471 695.38250285 573.24839699 C687.99622328 578.9021092 680.55055457 584.46310159 673.04656535 589.95933449 C667.10578852 594.32116732 661.23497025 598.76894248 655.38250285 603.24839699 C647.99608494 608.90193094 640.5505582 614.46309893 633.04656535 619.95933449 C627.10578852 624.32116732 621.23497025 628.76894248 615.38250285 633.24839699 C608.04489021 638.86457558 600.70020266 644.47338703 593.16451345 649.82293719 C589.02613959 652.79048293 585.18445842 655.82945375 581.51486456 659.36434758 C567.02200046 672.78531073 553.16770593 673.54181988 534.43342551 673.20465608 C530.33307528 673.14900314 526.23334386 673.18777166 522.13284743 673.21389592 C514.9656386 673.24687359 507.80056769 673.22113499 500.63360912 673.15568459 C489.97729013 673.05864078 479.32230321 673.05435522 468.66562286 673.06835641 C450.73528273 673.08932235 432.80588983 673.03613396 414.87582523 672.9400779 C397.13344878 672.84527185 379.39146721 672.78379614 361.64883929 672.76643288 C360.5439781 672.76533305 359.4391169 672.76423321 358.30077506 672.76310005 C352.68930771 672.75768641 347.07784001 672.75286439 341.46637193 672.74827003 C301.76261028 672.71469999 262.05936339 672.60700515 222.35589153 672.45542824 C183.79439585 672.30838144 145.23304125 672.1950909 106.67132121 672.12730324 C104.88707936 672.12414661 104.88707936 672.12414661 103.06679222 672.12092622 C91.12095213 672.09982915 79.17511096 672.07941624 67.22926885 672.05950447 C42.89612811 672.01892953 18.56299656 671.9737895 -5.77013081 671.92588723 C-7.44817642 671.92259227 -7.44817642 671.92259227 -9.16012194 671.91923074 C-83.81279431 671.77212193 -158.46518139 671.51861064 -233.11749715 671.24839699 C-233.30579854 623.70706835 -233.4809254 576.16571208 -233.58327168 528.62411416 C-233.58479031 527.9204879 -233.58630894 527.21686164 -233.58787358 526.49191338 C-233.62079555 511.20023014 -233.65126755 495.90854293 -233.67921577 480.61684981 C-233.69293648 473.11781063 -233.70719857 465.61877251 -233.72174519 458.11973488 C-233.72318354 457.37349037 -233.72462189 456.62724585 -233.72610383 455.85838787 C-233.77297905 431.67023987 -233.85560337 407.48237453 -233.95676657 383.29439778 C-234.06053594 358.4381446 -234.12823941 333.58204784 -234.15056204 308.72558171 C-234.15373174 305.21481927 -234.15731375 301.70405737 -234.16114682 298.1932956 C-234.16188847 297.50232716 -234.16263013 296.81135873 -234.16339425 296.09945186 C-234.17639347 284.97647875 -234.22741195 273.85398931 -234.29264952 262.73121345 C-234.35742392 251.54906587 -234.38125118 240.36738848 -234.3660123 229.18501378 C-234.35895446 223.12576965 -234.36990037 217.06794504 -234.42875737 211.00895226 C-234.48224754 205.46200843 -234.48502411 199.91743972 -234.44738499 194.37038707 C-234.44273277 192.36346296 -234.45672916 190.35639133 -234.49121215 188.3497581 C-234.73379003 173.36272342 -234.73379003 173.36272342 -230.73807555 168.13579655 C-227.96649773 165.83105878 -225.24423161 164.0286582 -222.11749715 162.24839699 C-220.60589645 161.14123215 -219.1054448 160.01838177 -217.62530965 158.86949074 C-216.16621699 157.80575769 -214.70523305 156.74461465 -213.24249715 155.68589699 C-206.19534411 150.54286125 -199.22855935 145.3065448 -192.30499715 139.99839699 C-186.10890773 135.25246808 -179.87684747 130.59380995 -173.49200886 126.10581887 C-167.27350309 121.70519747 -161.25382928 117.04491975 -155.2073409 112.41245949 C-149.38896877 107.96115474 -143.52841942 103.57591459 -137.61749715 99.24839699 C-130.89241497 94.32290546 -124.23696423 89.31490992 -117.61749715 84.24839699 C-110.23107923 78.59486304 -102.78555249 73.03369505 -95.28155965 67.53745949 C-89.34078281 63.17562667 -83.46996454 58.72785151 -77.61749715 54.24839699 C-70.23107923 48.59486304 -62.78555249 43.03369505 -55.28155965 37.53745949 C-49.34078095 33.1756253 -43.47002367 28.72777703 -37.61749715 24.24839699 C-30.62083808 18.89448839 -23.58681278 13.59734348 -16.49249715 8.37339699 C-15.69263386 7.78429543 -14.89277058 7.19519387 -14.06866902 6.58824074 C-5.09160711 -0.00172101 -5.09160711 -0.00172101 0 0 Z " fill="#000000" transform="translate(3451.1174971461296,153.7516030073166)"/>
<path d="M0 0 C1.25862728 -0.00692307 2.51725456 -0.01384613 3.81402206 -0.02097899 C7.30702683 -0.03934943 10.79897976 -0.02038243 14.29190595 0.00468981 C18.09190882 0.02533025 21.8918071 0.01106365 25.69183111 0.00122488 C32.35141106 -0.01121074 39.01066924 -0.00136713 45.67021179 0.02305412 C55.57263537 0.05926649 65.4748561 0.0610688 75.37733383 0.05580219 C92.03481283 0.04791848 108.69214904 0.06796829 125.34958649 0.10390663 C141.84388688 0.13940184 158.33812781 0.16250089 174.83246613 0.16902351 C175.85781283 0.16943595 176.88315953 0.16984839 177.93957734 0.17027333 C183.14673885 0.17230331 188.35390042 0.17411162 193.56106204 0.17583458 C230.44887789 0.18843897 267.33661604 0.22886845 304.22438812 0.28565025 C340.0616235 0.3407513 375.89883762 0.38325569 411.73610687 0.40869713 C412.84065604 0.40948629 413.9452052 0.41027544 415.08322556 0.41108851 C426.17550438 0.41899959 437.26778338 0.42665448 448.36006251 0.43412167 C470.95656248 0.44933918 493.55306107 0.4662667 516.14955902 0.48422813 C517.1885225 0.48505187 518.22748599 0.48587561 519.29793321 0.48672432 C588.68490883 0.54193364 658.07184135 0.63700547 727.45876312 0.73828697 C727.784112 48.30418413 728.08659059 95.87016372 728.26328278 143.43686485 C728.2672174 144.49338342 728.2672174 144.49338342 728.27123152 145.57124579 C728.32810085 160.87971335 728.38073372 176.18819274 728.42900438 191.49668977 C728.45270314 199.00430812 728.47733775 206.51192327 728.50246429 214.01953697 C728.50494872 214.76662253 728.50743314 215.5137081 728.50999285 216.28343262 C728.59091469 240.48543419 728.73359474 264.68659121 728.90841032 288.88808143 C729.08777597 313.76475255 729.20461973 338.64095659 729.24314793 363.51826341 C729.24862263 367.03445018 729.25480972 370.55063536 729.26143074 374.06682014 C729.26271178 374.75883461 729.26399281 375.45084908 729.26531267 376.16383369 C729.28773931 387.28999053 729.37578638 398.4147003 729.48857177 409.54026769 C729.60063924 420.73386383 729.64157023 431.92605843 729.61528929 443.12033309 C729.60312169 449.18332792 729.62170589 455.24208823 729.72366714 461.30432892 C729.8164416 466.86104028 729.82064349 472.41069159 729.75584213 477.96773462 C729.74784092 479.972151 729.77172797 481.97701549 729.83154359 483.98055513 C730.24059358 498.53376166 730.24059358 498.53376166 725.57895924 503.90372416 C720.99994747 508.02083487 715.96860695 511.28602526 710.67377225 514.40268104 C707.81370373 516.12724481 705.25599344 518.07250479 702.64235687 520.14844322 C701.8489389 520.75816978 701.05552094 521.36789635 700.23806 521.99609947 C699.46526703 522.59164635 698.69247406 523.18719322 697.89626312 523.80078697 C690.77122769 529.26208174 683.56679554 534.58546966 676.26491547 539.80713463 C669.52277654 544.6479874 662.93276041 549.67792409 656.34548187 554.72656822 C650.59529353 559.12773877 644.80122659 563.46049622 638.95876312 567.73828697 C632.23370431 572.66381086 625.57823089 577.67177352 618.95876312 582.73828697 C611.57234521 588.39182092 604.12681847 593.95298891 596.62282562 599.44922447 C590.68204879 603.8110573 584.81123052 608.25883246 578.95876312 612.73828697 C571.57234521 618.39182092 564.12681847 623.95298891 556.62282562 629.44922447 C549.78942943 634.46643563 543.05229396 639.60448527 536.32106781 644.75757408 C529.58457495 649.90507072 522.78480266 654.96023876 515.93727875 659.9589901 C514.85736664 660.74886314 514.85736664 660.74886314 513.75563812 661.55469322 C513.07672516 662.03717018 512.39781219 662.51964714 511.69832611 663.01674461 C509.45018929 664.65582113 509.45018929 664.65582113 507.70540619 666.56505394 C502.07264364 672.07410713 497.09322227 672.45665556 489.593853 672.40620899 C487.19337678 672.35278774 484.79564089 672.26522424 482.39626312 672.17578697 C480.75114742 672.140619 479.10595913 672.10868966 477.46071625 672.08008385 C473.4582513 672.00350689 469.45931892 671.88303869 465.45876312 671.73828697 C465.17794968 654.30952586 464.96659628 636.88147442 464.83701706 619.45096588 C464.7752405 611.35684095 464.69108499 603.26412462 464.55348969 595.17090416 C464.43356164 588.11346654 464.35639139 581.05704919 464.32970119 573.99862087 C464.31410646 570.26347399 464.27769974 566.53124467 464.19000244 562.79703712 C463.63520437 538.24170294 463.63520437 538.24170294 468.06439972 532.74454308 C470.86452567 530.08238872 473.97436113 528.40027932 477.45876312 526.73828697 C478.86524478 525.71175906 480.25408439 524.65931862 481.60329437 523.55859947 C482.82392434 522.65741096 484.04657577 521.75895384 485.27126312 520.86328697 C490.5895585 516.9257029 495.81402451 512.90000211 500.95876312 508.73828697 C506.69902216 504.09741939 512.55284051 499.63939777 518.47829437 495.23828697 C523.04930629 491.82999847 527.52486702 488.32274192 531.95876312 484.73828697 C537.69918266 480.09761097 543.5528318 475.63940424 549.47829437 471.23828697 C554.68000156 467.35973249 559.74712865 463.334964 564.79225922 459.2558651 C570.13142426 454.95742066 575.59049138 450.83193091 581.09352875 446.74609947 C581.72194672 446.27945885 582.35036469 445.81281822 582.99782562 445.33203697 C583.54648285 444.92662682 584.09514008 444.52121666 584.66042328 444.10352135 C585.25387543 443.652994 585.84732758 443.20246666 586.45876312 442.73828697 C587.30725327 442.18256004 588.15574341 441.62683311 589.02994537 441.05426598 C591.70418745 438.93790514 591.70418745 438.93790514 592.09799957 435.78961754 C592.10466141 434.64378197 592.11132324 433.4979464 592.11818695 432.31738853 C592.1476516 430.36581841 592.1476516 430.36581841 592.17771149 428.37482262 C592.17426826 426.95951768 592.1702832 425.54421398 592.16579437 424.12891197 C592.17891219 422.67729176 592.19421669 421.22568981 592.21161652 419.77411461 C592.25147092 415.96001116 592.26165711 412.14638512 592.26564789 408.33209801 C592.27497869 404.43739905 592.31239175 400.54298069 592.347435 396.64844322 C592.41201503 389.01172212 592.44525146 381.37528729 592.45876312 373.73828697 C533.62907675 373.54516087 474.79957943 373.42605301 415.96957535 373.40555463 C409.01561292 373.40311267 402.06165088 373.39998237 395.1076889 373.3964901 C394.06974345 373.39598642 394.06974345 373.39598642 393.0108294 373.39547257 C370.62506032 373.38428749 348.23968822 373.32774287 325.85406941 373.24740723 C302.17499622 373.16267816 278.49645114 373.13020426 254.81721115 373.15201509 C240.64741136 373.16340029 226.47894385 373.13370751 212.30937833 373.05055188 C202.57727402 372.99743921 192.84601037 372.99646239 183.11384326 373.03543748 C177.50808594 373.05638004 171.90475366 373.05534233 166.29926109 372.99203491 C133.80960674 372.45766253 133.80960674 372.45766253 105.55866051 387.11652637 C102.61937476 389.38655054 99.52729557 391.1144931 96.27126312 392.89453697 C95.29931 393.4539901 94.32735687 394.01344322 93.32595062 394.58984947 C92.37977875 395.13383385 91.43360687 395.67781822 90.45876312 396.23828697 C82.11039849 401.04614034 73.77627635 405.87726011 65.45876312 410.73828697 C56.04885982 416.23774233 46.61405749 421.69277893 37.16970062 427.13281822 C28.93901454 431.87675781 20.73001537 436.65687506 12.52858734 441.4511776 C7.20372846 444.56138126 1.87199518 447.65920988 -3.47092438 450.73828697 C-4.34264282 451.2406588 -4.34264282 451.2406588 -5.23197174 451.75317955 C-8.03334871 453.36702583 -10.83564476 454.97925586 -13.63889313 456.58984947 C-14.65596344 457.17508385 -15.67303375 457.76031822 -16.72092438 458.36328697 C-17.60506012 458.8711776 -18.48919586 459.37906822 -19.4001236 459.90234947 C-23.80319226 462.47588253 -28.16801572 465.11435428 -32.54123688 467.73828697 C-44.09123688 467.73828697 -55.64123688 467.73828697 -67.54123688 467.73828697 C-67.54123688 423.18828697 -67.54123688 378.63828697 -67.54123688 332.73828697 C-47.07732843 321.36944894 -47.07732843 321.36944894 -36.79123688 315.86328697 C-28.69272279 311.51566362 -20.6055782 307.14898191 -12.54123688 302.73828697 C-3.45307589 297.7688739 5.66348654 292.85358823 14.78688812 287.94922447 C21.69047171 284.23568544 28.58077421 280.49899989 35.45876312 276.73828697 C44.48893529 271.80143039 53.54510476 266.91410565 62.60890961 262.03931236 C70.25182108 257.92819273 77.88948481 253.80753937 85.52126312 249.67578697 C86.97411713 248.88990196 86.97411713 248.88990196 88.45632172 248.08814049 C89.37622894 247.58983727 90.29613617 247.09153404 91.24391937 246.57813072 C92.03677338 246.14879234 92.82962738 245.71945396 93.64650726 245.27710533 C96.32802945 243.91023118 96.32802945 243.91023118 98.01411527 242.51540023 C106.06046158 236.85056436 115.63446485 238.06164157 125.02945709 238.13701439 C127.04600581 238.13483299 129.06255313 238.13045322 131.07909292 238.12406856 C136.61150738 238.11289911 142.14343701 238.13287364 147.67578971 238.15795887 C153.64501214 238.17956022 159.61420743 238.17224365 165.58345795 238.16844749 C175.92261718 238.16582632 186.26162981 238.18133306 196.60074806 238.20963669 C207.44227154 238.23923947 218.28373204 238.25846997 229.12529564 238.26390076 C229.79982786 238.26424446 230.47436009 238.26458815 231.16933268 238.26494227 C234.59505387 238.26663397 238.02077512 238.26814088 241.44649642 238.26957665 C265.69989572 238.28007384 289.95321284 238.31374703 314.20656586 238.36108971 C337.76580621 238.40702434 361.32502406 238.44243628 384.88430023 238.46362877 C385.61072173 238.4642864 386.33714322 238.46494403 387.08557749 238.46562159 C394.3807165 238.47221429 401.6758557 238.47859334 408.97099504 238.48481589 C423.83153787 238.49749636 438.69207924 238.51160262 453.55261993 238.52657127 C454.23585743 238.52725772 454.91909493 238.52794417 455.62303659 238.52865142 C501.23498708 238.57464124 546.84685878 238.65707231 592.45876312 238.73828697 C592.45876312 204.74828697 592.45876312 170.75828697 592.45876312 135.73828697 C538.23313143 135.6307586 484.0075226 135.53257296 429.78177643 135.51618004 C428.57744251 135.51580962 428.57744251 135.51580962 427.34877861 135.51543171 C409.89874139 135.51015376 392.44870473 135.50754514 374.99866673 135.50768529 C366.44085051 135.50773777 357.88303437 135.50720056 349.3252182 135.50635338 C348.47362441 135.50627911 347.62203062 135.50620485 346.74463095 135.50612833 C319.15484431 135.50344599 291.56528364 135.4618435 263.97557149 135.40000167 C235.617384 135.33664329 207.25942816 135.31266202 178.90117465 135.33804319 C174.89339926 135.34161191 170.88562364 135.34473169 166.87784767 135.34757805 C165.6946963 135.34843916 165.6946963 135.34843916 164.48764289 135.34931767 C151.80378304 135.35739564 139.12035465 135.32411264 126.43660038 135.27525991 C113.67699761 135.22700143 100.9179698 135.222561 88.158333 135.26244023 C81.24780571 135.28283392 74.33859126 135.2841594 67.42820549 135.23044586 C61.0962507 135.18312259 54.76685642 135.19149488 48.43496037 135.24343243 C46.14936581 135.25248092 43.86358028 135.24140867 41.57821589 135.20773396 C28.01829454 135.02100023 19.32181294 136.16206769 9.34785229 145.83576417 C8.85216758 146.34003781 8.35648286 146.84431146 7.8457774 147.36386612 C6.04413166 149.14915378 4.08021266 150.63749794 2.02126312 152.11328697 C1.42507172 152.55414635 0.82888031 152.99500572 0.2146225 153.44922447 C-0.3648111 153.8746151 -0.94424469 154.30000572 -1.54123688 154.73828697 C-6.79497023 158.63605186 -11.95402467 162.62567753 -17.04123688 166.73828697 C-22.78165642 171.37896298 -28.63530556 175.8371697 -34.56076813 180.23828697 C-39.13178005 183.64657547 -43.60734078 187.15383202 -48.04123688 190.73828697 C-53.78165642 195.37896298 -59.63530556 199.8371697 -65.56076813 204.23828697 C-70.75952699 208.11464309 -75.82435482 212.13646037 -80.86594391 216.21411705 C-86.95004059 221.11353497 -93.20053723 225.78040412 -99.47092438 230.43750572 C-101.58742812 231.99406331 -101.58742812 231.99406331 -103.54123688 233.73828697 C-103.64503717 236.06896998 -103.68330785 238.3702917 -103.67990208 240.70174313 C-103.6841654 241.8127354 -103.6841654 241.8127354 -103.68851486 242.94617197 C-103.69692107 245.45969732 -103.69813467 247.97317694 -103.69945526 250.48671532 C-103.70401659 252.29424206 -103.70901597 254.10176774 -103.71441883 255.90929216 C-103.72805828 260.90091982 -103.735435 265.89254063 -103.74184549 270.8841821 C-103.74982406 276.25777439 -103.76353051 281.63135232 -103.77655792 287.00493431 C-103.79835691 296.32322873 -103.81648882 305.64152458 -103.83216286 314.95983124 C-103.85483041 328.43270637 -103.88297749 341.90556563 -103.91248213 355.37842732 C-103.96019633 377.23478304 -104.0034501 399.09114524 -104.04392242 420.94751549 C-104.08325791 442.18482531 -104.12467943 463.42212936 -104.16892242 484.65942955 C-104.17300883 486.62149156 -104.17300883 486.62149156 -104.17717779 488.62319119 C-104.19085695 495.18494383 -104.20457729 501.74669639 -104.2183181 508.30844891 C-104.33234299 562.78505031 -104.43832155 617.26166323 -104.54123688 671.73828697 C-149.42123688 671.73828697 -194.30123688 671.73828697 -240.54123688 671.73828697 C-241.23674022 576.47725778 -241.23674022 576.47725778 -241.43044281 529.41040611 C-241.43334201 528.70774625 -241.43624121 528.0050864 -241.43922826 527.28113382 C-241.50208571 512.00883844 -241.56025861 496.73652857 -241.6136088 481.4641971 C-241.63980187 473.97417698 -241.66702963 466.48416077 -241.69480133 458.99414635 C-241.69754727 458.24881715 -241.70029321 457.50348794 -241.70312236 456.73557301 C-241.79254216 432.59595081 -241.95022551 408.45736384 -242.14347851 384.3183683 C-242.34178247 359.50327325 -242.47088101 334.68875061 -242.51345167 309.87287662 C-242.51950253 306.36435838 -242.52634089 302.85584209 -242.53365898 299.34732628 C-242.53507486 298.65682981 -242.53649075 297.96633333 -242.53794954 297.25491273 C-242.56272483 286.15875191 -242.6600058 275.06436588 -242.78470959 263.96892767 C-242.90865697 252.80212803 -242.95379468 241.63704471 -242.9247658 230.4694134 C-242.91132802 224.42199802 -242.93172289 218.37976994 -243.04455185 212.33328056 C-243.72178793 174.17171412 -243.72178793 174.17171412 -236.03982353 165.50028038 C-231.80696626 161.82136134 -227.3495403 159.29128858 -222.23719728 157.03365326 C-217.73813877 154.87192688 -213.96288599 151.79222732 -210.04123688 148.73828697 C-208.48192588 147.58811765 -206.91978322 146.44176863 -205.35373688 145.30078697 C-200.203877 141.50615338 -195.12084909 137.6262013 -190.04123688 133.73828697 C-182.65481896 128.08475302 -175.20929222 122.52358503 -167.70529938 117.02734947 C-161.76452076 112.66551534 -155.89376599 108.21766289 -150.04123688 103.73828697 C-142.62841325 98.06597775 -135.16195631 92.47681456 -127.63498688 86.95703697 C-121.90843682 82.75502603 -116.21754705 78.50788329 -110.54123688 74.23828697 C-104.0905102 69.3861915 -97.61289804 64.57417182 -91.10373688 59.80078697 C-83.45809234 54.19058857 -75.90785606 48.46307267 -68.37741852 42.69946861 C-62.64242198 38.31773884 -56.86371744 34.00294784 -51.04123688 29.73828697 C-41.62320029 22.83961744 -32.33957092 15.76984462 -23.07566071 8.66602135 C-22.23930084 8.029869 -21.40294098 7.39371666 -20.54123688 6.73828697 C-19.77072014 6.00826102 -19.77072014 6.00826102 -18.98463741 5.26348706 C-12.98564474 -0.01471179 -7.76037973 -0.10488749 0 0 Z " fill="#000000" transform="translate(2433.5412368774414,153.2617130279541)"/>
<path d="M0 0 C70.32340107 -0.20569722 140.64683828 -0.39648783 210.97045898 -0.50811768 C212.01145585 -0.50977436 213.05245272 -0.51143105 214.12499495 -0.51313793 C236.74927117 -0.54905376 259.37355057 -0.58229581 281.99783474 -0.61278395 C293.09295824 -0.62775185 304.18808088 -0.64331051 315.28320312 -0.65917969 C316.38729457 -0.6607488 317.49138602 -0.6623179 318.62893479 -0.66393456 C354.4085591 -0.71506057 390.18795582 -0.8051885 425.96744229 -0.91556665 C462.73897118 -1.02879902 499.51037416 -1.10263483 536.28207445 -1.12697988 C541.47714297 -1.13043768 546.67221106 -1.13434532 551.86727905 -1.13852692 C553.40095793 -1.13974053 553.40095793 -1.13974053 554.96562023 -1.14097866 C571.41697023 -1.15515318 587.86793061 -1.21079288 604.31912179 -1.28198441 C620.86270237 -1.3526892 637.40589713 -1.37960153 653.94962347 -1.36201653 C663.77599213 -1.35289705 673.60094746 -1.3771496 683.42706059 -1.44957052 C689.99737894 -1.49468164 696.56677546 -1.49588794 703.13715829 -1.46198176 C706.87752341 -1.44391952 710.61522328 -1.44438679 714.35529864 -1.49859819 C729.440187 -1.70478239 741.62423074 -1.83503424 753.068923 9.06715083 C753.56789085 9.57341788 754.06685871 10.07968494 754.5809468 10.60129341 C756.54464866 12.5368394 758.72321 14.0970498 760.98046875 15.671875 C761.67785156 16.18234375 762.37523438 16.6928125 763.09375 17.21875 C763.7846875 17.7240625 764.475625 18.229375 765.1875 18.75 C772.91640173 24.42211962 780.55005174 30.21140844 788.1628418 36.03808594 C793.89817538 40.42004356 799.67717501 44.7351215 805.5 49 C813.12740017 54.5866242 820.65644565 60.29276338 828.1640625 66.0390625 C833.89902727 70.42064326 839.67759563 74.73542958 845.5 79 C853.12740017 84.5866242 860.65644565 90.29276338 868.1640625 96.0390625 C873.89902727 100.42064326 879.67759563 104.73542958 885.5 109 C893.12740017 114.5866242 900.65644565 120.29276338 908.1640625 126.0390625 C913.89902853 130.42064421 919.67763175 134.73537864 925.5 139 C933.2182261 144.65407768 940.84842591 150.41642536 948.4453125 156.23242188 C949.25613281 156.85310547 950.06695313 157.47378906 950.90234375 158.11328125 C951.66567229 158.72142388 952.42900083 159.32956652 953.21546054 159.95613772 C955.96042448 162.07208134 955.96042448 162.07208134 959.07208562 163.64292949 C967.04639486 168.30670062 967.04639486 168.30670062 968.68888658 172.94564576 C969.82966649 178.92352094 969.55659255 185.00778874 969.4430542 191.06422424 C969.44828933 193.13441121 969.45880045 195.20459041 969.47412419 197.27472728 C969.5009399 202.95620141 969.45299083 208.63495768 969.39278746 214.31608546 C969.34095157 220.44481721 969.35850326 226.57339646 969.36761475 232.70228577 C969.37390625 243.31845416 969.33668563 253.93364789 969.26876068 264.54953194 C969.1977173 275.68136353 969.15156178 286.81284196 969.13852692 297.94489861 C969.13770204 298.63745334 969.13687717 299.33000807 969.13602729 300.04354931 C969.13196721 303.56079082 969.12835063 307.07803264 969.12490478 310.5952748 C969.09971034 335.49775737 969.01889211 360.39977898 968.90527344 385.30200195 C968.79503298 409.49175569 968.71004327 433.68138322 968.65917969 457.87133789 C968.65760137 458.61718211 968.65602306 459.36302633 968.65439692 460.13147189 C968.63857446 467.62165434 968.62326473 475.11183777 968.60833061 482.60202204 C968.57789734 497.85992715 968.54404232 513.11782403 968.50811768 528.37571716 C968.50564646 529.42798044 968.50564646 529.42798044 968.50312531 530.50150156 C968.3927467 577.33453008 968.20235786 624.16728802 968 671 C897.67659893 671.20569722 827.35316172 671.39648783 757.02954102 671.50811768 C755.98854415 671.50977436 754.94754728 671.51143105 753.87500505 671.51313793 C731.25072883 671.54905376 708.62644943 671.58229581 686.00216526 671.61278395 C674.90704176 671.62775185 663.81191912 671.64331051 652.71679688 671.65917969 C651.0606597 671.66153335 651.0606597 671.66153335 649.37106521 671.66393456 C613.5914409 671.71506057 577.81204418 671.8051885 542.03255771 671.91556665 C505.26102882 672.02879902 468.48962584 672.10263483 431.71792555 672.12697988 C426.52285703 672.13043768 421.32778894 672.13434532 416.13272095 672.13852692 C414.59904207 672.13974053 414.59904207 672.13974053 413.03437977 672.14097866 C396.58302977 672.15515318 380.13206939 672.21079288 363.68087821 672.28198441 C347.13729763 672.3526892 330.59410287 672.37960153 314.05037653 672.36201653 C304.22400787 672.35289705 294.39905254 672.3771496 284.57293941 672.44957052 C278.00262106 672.49468164 271.43322454 672.49588794 264.86284171 672.46198176 C261.12247659 672.44391952 257.38477672 672.44438679 253.64470136 672.49859819 C238.559813 672.70478239 226.37576926 672.83503424 214.931077 661.93284917 C214.43210915 661.42658212 213.93314129 660.92031506 213.4190532 660.39870659 C211.45535134 658.4631606 209.27679 656.9029502 207.01953125 655.328125 C206.32214844 654.81765625 205.62476562 654.3071875 204.90625 653.78125 C204.2153125 653.2759375 203.524375 652.770625 202.8125 652.25 C195.08359827 646.57788038 187.44994826 640.78859156 179.8371582 634.96191406 C174.10182462 630.57995644 168.32282499 626.2648785 162.5 622 C154.87259983 616.4133758 147.34355435 610.70723662 139.8359375 604.9609375 C134.10097273 600.57935674 128.32240437 596.26457042 122.5 592 C114.87259983 586.4133758 107.34355435 580.70723662 99.8359375 574.9609375 C94.10097273 570.57935674 88.32240437 566.26457042 82.5 562 C74.87259983 556.4133758 67.34355435 550.70723662 59.8359375 544.9609375 C54.10097147 540.57935579 48.32236825 536.26462136 42.5 532 C34.7817739 526.34592232 27.15157409 520.58357464 19.5546875 514.76757812 C18.74386719 514.14689453 17.93304688 513.52621094 17.09765625 512.88671875 C16.33432771 512.27857612 15.57099917 511.67043348 14.78453946 511.04386228 C12.03957552 508.92791866 12.03957552 508.92791866 8.92791438 507.35707051 C0.95360514 502.69329938 0.95360514 502.69329938 -0.68888658 498.05435424 C-1.82966649 492.07647906 -1.55659255 485.99221126 -1.4430542 479.93577576 C-1.44828933 477.86558879 -1.45880045 475.79540959 -1.47412419 473.72527272 C-1.5009399 468.04379859 -1.45299083 462.36504232 -1.39278746 456.68391454 C-1.34095157 450.55518279 -1.35850326 444.42660354 -1.36761475 438.29771423 C-1.37390625 427.68154584 -1.33668563 417.06635211 -1.26876068 406.45046806 C-1.1977173 395.31863647 -1.15156178 384.18715804 -1.13852692 373.05510139 C-1.13770204 372.36254666 -1.13687717 371.66999193 -1.13602729 370.95645069 C-1.13196721 367.43920918 -1.12835063 363.92196736 -1.12490478 360.4047252 C-1.09971034 335.50224263 -1.01889211 310.60022102 -0.90527344 285.69799805 C-0.79503298 261.50824431 -0.71004327 237.31861678 -0.65917969 213.12866211 C-0.65760137 212.38281789 -0.65602306 211.63697367 -0.65439692 210.86852811 C-0.63857446 203.37834566 -0.62326473 195.88816223 -0.60833061 188.39797796 C-0.57789734 173.14007285 -0.54404232 157.88217597 -0.50811768 142.62428284 C-0.5064702 141.92277398 -0.50482272 141.22126513 -0.50312531 140.49849844 C-0.3927467 93.66546992 -0.20235786 46.83271198 0 0 Z M135 135 C134.58762026 173.3616262 134.27063665 211.72291744 134.08082407 250.08631328 C134.05831249 254.61972029 134.03501458 259.15312294 134.01123047 263.68652344 C134.00650888 264.58900737 134.00178729 265.4914913 133.99692263 266.42132322 C133.91868695 281.01719558 133.77681754 295.61178636 133.61124967 310.20689948 C133.44266843 325.19311151 133.34288997 340.1786544 133.30640709 355.16577566 C133.28175776 364.4077925 133.20404954 373.64618707 133.0575036 382.88708805 C132.96203612 389.23193283 132.93366561 395.57491733 132.95697521 401.92042746 C132.96846287 405.5782225 132.95142666 409.22971356 132.85430145 412.88637352 C131.99753376 427.34535395 131.99753376 427.34535395 136.75990534 440.51805067 C140.91580816 444.80955389 145.60746858 447.89457146 150.82113481 450.75797153 C153.97398925 452.55520754 156.6754372 454.72505624 159.5 457 C161.03140625 458.175625 161.03140625 458.175625 162.59375 459.375 C167.52854536 463.17099643 172.43545131 467.00298039 177.34765625 470.828125 C181.72144077 474.23242429 186.10358707 477.62497594 190.5 481 C196.46989171 485.58294717 202.40954493 490.20410487 208.34765625 494.828125 C212.72144077 498.23242429 217.10358707 501.62497594 221.5 505 C226.68315858 508.97899043 231.84434281 512.98545014 237 517 C242.4719542 521.25936315 247.94590501 525.51597394 253.4375 529.75 C254.44683594 530.52859375 255.45617188 531.3071875 256.49609375 532.109375 C260.8357896 535.44583329 260.8357896 535.44583329 266.0338642 536.24839699 C266.8590873 536.25289158 267.6843104 536.25738617 268.53454027 536.26201695 C269.89684057 536.25413591 269.89684057 536.25413591 271.2866621 536.24609566 C272.73794646 536.24955719 272.73794646 536.24955719 274.2185497 536.25308865 C277.4918113 536.2584229 280.76487993 536.2493762 284.03813171 536.24050903 C286.39598236 536.2413804 288.75383282 536.2431301 291.11168224 536.24568737 C296.25412987 536.24923853 301.39653585 536.24653696 306.53897667 536.23841095 C314.18564243 536.22636129 321.83227894 536.22573744 329.47895247 536.22749493 C342.34066452 536.23012541 355.20235605 536.22342975 368.06406212 536.21146011 C380.80289499 536.19963515 393.54171932 536.19193006 406.28055763 536.18975449 C407.07195542 536.18961701 407.86335322 536.18947953 408.67873276 536.18933788 C412.69767152 536.18866124 416.71661029 536.18805846 420.73554907 536.18748413 C449.21831783 536.1832808 477.70107542 536.16979909 506.18383789 536.15087891 C533.85831645 536.13251683 561.53279196 536.11834628 589.20727539 536.10986328 C590.05998674 536.10960023 590.91269808 536.10933718 591.79124917 536.10906615 C600.35435164 536.10642916 608.91745414 536.10387753 617.48055666 536.10138843 C634.92533648 536.0963157 652.3701161 536.0906732 669.81489563 536.08468628 C670.61701794 536.0844117 671.41914024 536.08413712 672.24556928 536.08385422 C725.83038421 536.06544591 779.41519278 536.03371317 833 536 C833.41237974 497.6383738 833.72936335 459.27708256 833.91917593 420.91368672 C833.94168751 416.38027971 833.96498542 411.84687706 833.98876953 407.31347656 C833.99349112 406.41099263 833.99821271 405.5085087 834.00307737 404.57867678 C834.08131305 389.98280442 834.22318246 375.38821364 834.38875033 360.79310052 C834.55733157 345.80688849 834.65711003 330.8213456 834.69359291 315.83422434 C834.71824224 306.5922075 834.79595046 297.35381293 834.9424964 288.11291195 C835.03796388 281.76806717 835.06633439 275.42508267 835.04302479 269.07957254 C835.03153713 265.4217775 835.04857334 261.77028644 835.14569855 258.11362648 C836.00246624 243.65464605 836.00246624 243.65464605 831.24009466 230.48194933 C827.08419184 226.19044611 822.39253142 223.10542854 817.17886519 220.24202847 C814.02601075 218.44479246 811.3245628 216.27494376 808.5 214 C807.4790625 213.21625 806.458125 212.4325 805.40625 211.625 C800.47145464 207.82900357 795.56454869 203.99701961 790.65234375 200.171875 C786.27855923 196.76757571 781.89641293 193.37502406 777.5 190 C771.53010829 185.41705283 765.59045507 180.79589513 759.65234375 176.171875 C755.27855923 172.76757571 750.89641293 169.37502406 746.5 166 C741.31684142 162.02100957 736.15565719 158.01454986 731 154 C725.5280458 149.74063685 720.05409499 145.48402606 714.5625 141.25 C713.55316406 140.47140625 712.54382812 139.6928125 711.50390625 138.890625 C707.1642104 135.55416671 707.1642104 135.55416671 701.9661358 134.75160301 C700.72830115 134.74486113 700.72830115 134.74486113 699.46545973 134.73798305 C698.55725953 134.74323708 697.64905932 134.7484911 696.7133379 134.75390434 C695.74581499 134.75159665 694.77829208 134.74928897 693.7814503 134.74691135 C690.5081887 134.7415771 687.23512007 134.7506238 683.96186829 134.75949097 C681.60401764 134.7586196 679.24616718 134.7568699 676.88831776 134.75431263 C671.74587013 134.75076147 666.60346415 134.75346304 661.46102333 134.76158905 C653.81435757 134.77363871 646.16772106 134.77426256 638.52104753 134.77250507 C625.65933548 134.76987459 612.79764395 134.77657025 599.93593788 134.78853989 C587.19710501 134.80036485 574.45828068 134.80806994 561.71944237 134.81024551 C560.92804458 134.81038299 560.13664678 134.81052047 559.32126724 134.81066212 C555.30232848 134.81133876 551.28338971 134.81194154 547.26445093 134.81251587 C518.78168217 134.8167192 490.29892458 134.83020091 461.81616211 134.84912109 C434.14168355 134.86748317 406.46720804 134.88165372 378.79272461 134.89013672 C377.94001326 134.89039977 377.08730192 134.89066282 376.20875083 134.89093385 C367.64564836 134.89357084 359.08254586 134.89612247 350.51944334 134.89861157 C333.07466352 134.9036843 315.6298839 134.9093268 298.18510437 134.91531372 C297.38298206 134.9155883 296.58085976 134.91586288 295.75443072 134.91614578 C242.16961579 134.93455409 188.58480722 134.96628683 135 135 Z " fill="#000000" transform="translate(5765,154)"/>
<path d="M0 0 C27.72 0 55.44 0 84 0 C84 26.73 84 53.46 84 81 C111.06 81 138.12 81 166 81 C166 55.26 166 29.52 166 3 C194.05 3 222.1 3 251 3 C251 29.73 251 56.46 251 84 C278.06 84 305.12 84 333 84 C333 56.94 333 29.88 333 2 C360.72 2 388.44 2 417 2 C417 29.72 417 57.44 417 86 C389.61 86 362.22 86 334 86 C334 110.75 334 135.5 334 161 C361.39 161 388.78 161 417 161 C417 189.05 417 217.1 417 246 C389.28 246 361.56 246 333 246 C333 220.59 333 195.18 333 169 C305.94 169 278.88 169 251 169 C251 194.74 251 220.48 251 247 C223.28 247 195.56 247 167 247 C167 273.07 167 299.14 167 326 C194.39 326 221.78 326 250 326 C250 300.26 250 274.52 250 248 C277.72 248 305.44 248 334 248 C334 273.41 334 298.82 334 325 C361.39 325 388.78 325 417 325 C417 352.72 417 380.44 417 409 C389.61 409 362.22 409 334 409 C334 433.09 334 457.18 334 482 C361.39 482 388.78 482 417 482 C417 509.72 417 537.44 417 566 C389.61 566 362.22 566 334 566 C334 591.08 334 616.16 334 642 C361.39 642 388.78 642 417 642 C417 670.05 417 698.1 417 727 C389.61 727 362.22 727 334 727 C334 750.76 334 774.52 334 799 C361.39 799 388.78 799 417 799 C417 827.05 417 855.1 417 884 C389.28 884 361.56 884 333 884 C333 858.59 333 833.18 333 807 C305.94 807 278.88 807 251 807 C251 832.74 251 858.48 251 885 C222.95 885 194.9 885 166 885 C166 858.27 166 831.54 166 804 C138.94 804 111.88 804 84 804 C84 829.41 84 854.82 84 881 C56.28 881 28.56 881 0 881 C0 855.59 0 830.18 0 804 C-27.39 804 -54.78 804 -83 804 C-83 829.74 -83 855.48 -83 882 C-110.72 882 -138.44 882 -167 882 C-167 854.28 -167 826.56 -167 798 C-139.61 798 -112.22 798 -84 798 C-84 773.91 -84 749.82 -84 725 C-111.39 725 -138.78 725 -167 725 C-167 697.28 -167 669.56 -167 641 C-139.61 641 -112.22 641 -84 641 C-84 615.92 -84 590.84 -84 565 C-111.39 565 -138.78 565 -167 565 C-167 537.28 -167 509.56 -167 481 C-139.61 481 -112.22 481 -84 481 C-84 456.91 -84 432.82 -84 408 C-111.39 408 -138.78 408 -167 408 C-167 379.95 -167 351.9 -167 323 C-139.61 323 -112.22 323 -84 323 C-84 297.59 -84 272.18 -84 246 C-55.95 246 -27.9 246 1 246 C1 271.41 1 296.82 1 323 C28.06 323 55.12 323 83 323 C83 297.26 83 271.52 83 245 C110.39 245 137.78 245 166 245 C166 218.6 166 192.2 166 165 C138.94 165 111.88 165 84 165 C84 190.74 84 216.48 84 243 C56.28 243 28.56 243 0 243 C0 217.59 0 192.18 0 166 C-27.39 166 -54.78 166 -83 166 C-83 191.74 -83 217.48 -83 244 C-110.72 244 -138.44 244 -167 244 C-167 216.28 -167 188.56 -167 160 C-139.61 160 -112.22 160 -84 160 C-84 135.25 -84 110.5 -84 85 C-111.39 85 -138.78 85 -167 85 C-167 57.28 -167 29.56 -167 1 C-139.28 1 -111.56 1 -83 1 C-83 27.73 -83 54.46 -83 82 C-55.61 82 -28.22 82 0 82 C0 54.94 0 27.88 0 0 Z M1 84 C1 108.75 1 133.5 1 159 C28.06 159 55.12 159 83 159 C83 134.25 83 109.5 83 84 C55.94 84 28.88 84 1 84 Z M167 87 C167 111.75 167 136.5 167 162 C194.39 162 221.78 162 250 162 C250 137.25 250 112.5 250 87 C222.61 87 195.22 87 167 87 Z M84 329 C84 353.09 84 377.18 84 402 C111.06 402 138.12 402 166 402 C166 377.91 166 353.82 166 329 C138.94 329 111.88 329 84 329 Z M-83 330 C-83 354.09 -83 378.18 -83 403 C-55.61 403 -28.22 403 0 403 C0 378.91 0 354.82 0 330 C-27.39 330 -54.78 330 -83 330 Z M251 332 C251 356.09 251 380.18 251 405 C278.06 405 305.12 405 333 405 C333 380.91 333 356.82 333 332 C305.94 332 278.88 332 251 332 Z M1 407 C1 431.09 1 455.18 1 480 C28.06 480 55.12 480 83 480 C83 455.91 83 431.82 83 407 C55.94 407 28.88 407 1 407 Z M167 410 C167 434.09 167 458.18 167 483 C194.39 483 221.78 483 250 483 C250 458.91 250 434.82 250 410 C222.61 410 195.22 410 167 410 Z M84 486 C84 511.08 84 536.16 84 562 C111.06 562 138.12 562 166 562 C166 536.92 166 511.84 166 486 C138.94 486 111.88 486 84 486 Z M-83 487 C-83 512.08 -83 537.16 -83 563 C-55.61 563 -28.22 563 0 563 C0 537.92 0 512.84 0 487 C-27.39 487 -54.78 487 -83 487 Z M251 489 C251 514.08 251 539.16 251 565 C278.06 565 305.12 565 333 565 C333 539.92 333 514.84 333 489 C305.94 489 278.88 489 251 489 Z M1 564 C1 589.08 1 614.16 1 640 C28.06 640 55.12 640 83 640 C83 614.92 83 589.84 83 564 C55.94 564 28.88 564 1 564 Z M167 567 C167 592.08 167 617.16 167 643 C194.39 643 221.78 643 250 643 C250 617.92 250 592.84 250 567 C222.61 567 195.22 567 167 567 Z M84 646 C84 670.09 84 694.18 84 719 C111.06 719 138.12 719 166 719 C166 694.91 166 670.82 166 646 C138.94 646 111.88 646 84 646 Z M-83 647 C-83 671.09 -83 695.18 -83 720 C-55.61 720 -28.22 720 0 720 C0 695.91 0 671.82 0 647 C-27.39 647 -54.78 647 -83 647 Z M251 650 C251 673.76 251 697.52 251 722 C278.06 722 305.12 722 333 722 C333 698.24 333 674.48 333 650 C305.94 650 278.88 650 251 650 Z M1 724 C1 748.09 1 772.18 1 797 C28.06 797 55.12 797 83 797 C83 772.91 83 748.82 83 724 C55.94 724 28.88 724 1 724 Z M167 728 C167 751.76 167 775.52 167 800 C194.39 800 221.78 800 250 800 C250 776.24 250 752.48 250 728 C222.61 728 195.22 728 167 728 Z " fill="#000000" transform="translate(167,45)"/>
<path d="M0 0 C27.72 0 55.44 0 84 0 C84 27.39 84 54.78 84 83 C109.08 83 134.16 83 160 83 C160 55.61 160 28.22 160 0 C188.05 0 216.1 0 245 0 C245 27.39 245 54.78 245 83 C268.76 83 292.52 83 317 83 C317 55.61 317 28.22 317 0 C345.05 0 373.1 0 402 0 C402 27.72 402 55.44 402 84 C376.59 84 351.18 84 325 84 C325 111.06 325 138.12 325 166 C350.74 166 376.48 166 403 166 C403 193.72 403 221.44 403 250 C429.07 250 455.14 250 482 250 C482 222.28 482 194.56 482 166 C509.72 166 537.44 166 566 166 C566 193.72 566 221.44 566 250 C591.74 250 617.48 250 644 250 C644 277.72 644 305.44 644 334 C617.27 334 590.54 334 563 334 C563 361.06 563 388.12 563 416 C590.06 416 617.12 416 645 416 C645 444.05 645 472.1 645 501 C617.28 501 589.56 501 561 501 C561 473.28 561 445.56 561 417 C536.25 417 511.5 417 486 417 C486 444.72 486 472.44 486 501 C458.28 501 430.56 501 402 501 C402 472.95 402 444.9 402 416 C427.41 416 452.82 416 479 416 C479 388.94 479 361.88 479 334 C453.26 334 427.52 334 401 334 C401 306.61 401 279.22 401 251 C374.6 251 348.2 251 321 251 C321 278.06 321 305.12 321 333 C346.74 333 372.48 333 399 333 C399 360.72 399 388.44 399 417 C373.59 417 348.18 417 322 417 C322 444.72 322 472.44 322 501 C294.28 501 266.56 501 238 501 C238 473.28 238 445.56 238 417 C213.91 417 189.82 417 165 417 C165 444.72 165 472.44 165 501 C137.28 501 109.56 501 81 501 C81 473.28 81 445.56 81 417 C55.92 417 30.84 417 5 417 C5 444.72 5 472.44 5 501 C-22.72 501 -50.44 501 -79 501 C-79 473.28 -79 445.56 -79 417 C-103.09 417 -127.18 417 -152 417 C-152 444.72 -152 472.44 -152 501 C-179.72 501 -207.44 501 -236 501 C-236 472.95 -236 444.9 -236 416 C-210.59 416 -185.18 416 -159 416 C-159 388.94 -159 361.88 -159 334 C-184.74 334 -210.48 334 -237 334 C-237 306.28 -237 278.56 -237 250 C-210.27 250 -183.54 250 -156 250 C-156 222.28 -156 194.56 -156 166 C-128.28 166 -100.56 166 -72 166 C-72 193.72 -72 221.44 -72 250 C-47.91 250 -23.82 250 1 250 C1 222.28 1 194.56 1 166 C28.06 166 55.12 166 83 166 C83 138.94 83 111.88 83 84 C55.61 84 28.22 84 0 84 C0 56.28 0 28.56 0 0 Z M168 84 C168 111.06 168 138.12 168 166 C191.76 166 215.52 166 240 166 C240 138.94 240 111.88 240 84 C216.24 84 192.48 84 168 84 Z M85 167 C85 194.39 85 221.78 85 250 C110.08 250 135.16 250 161 250 C161 222.61 161 195.22 161 167 C135.92 167 110.84 167 85 167 Z M246 167 C246 194.39 246 221.78 246 250 C269.76 250 293.52 250 318 250 C318 222.61 318 195.22 318 167 C294.24 167 270.48 167 246 167 Z M-153 251 C-153 278.06 -153 305.12 -153 333 C-128.91 333 -104.82 333 -80 333 C-80 305.94 -80 278.88 -80 251 C-104.09 251 -128.18 251 -153 251 Z M4 251 C4 278.06 4 305.12 4 333 C29.08 333 54.16 333 80 333 C80 305.94 80 278.88 80 251 C54.92 251 29.84 251 4 251 Z M164 251 C164 278.06 164 305.12 164 333 C188.09 333 212.18 333 237 333 C237 305.94 237 278.88 237 251 C212.91 251 188.82 251 164 251 Z M485 251 C485 278.06 485 305.12 485 333 C509.75 333 534.5 333 560 333 C560 305.94 560 278.88 560 251 C535.25 251 510.5 251 485 251 Z M-75 334 C-75 361.06 -75 388.12 -75 416 C-50.91 416 -26.82 416 -2 416 C-2 388.94 -2 361.88 -2 334 C-26.09 334 -50.18 334 -75 334 Z M82 334 C82 361.06 82 388.12 82 416 C107.08 416 132.16 416 158 416 C158 388.94 158 361.88 158 334 C132.92 334 107.84 334 82 334 Z M242 334 C242 361.06 242 388.12 242 416 C266.09 416 290.18 416 315 416 C315 388.94 315 361.88 315 334 C290.91 334 266.82 334 242 334 Z " fill="#000000" transform="translate(7306,408)"/>
<path d="M0 0 C0.99184925 0.00460896 1.9836985 0.00921793 3.00560379 0.01396656 C4.14701324 0.00709324 5.2884227 0.00021992 6.46442032 -0.00686169 C7.71238892 0.01111469 8.96035751 0.02909107 10.24614334 0.04761219 C11.56345947 0.04688206 12.8807756 0.04615192 14.23801041 0.04539967 C17.84750384 0.04396503 21.45616653 0.07336108 25.06546688 0.10826945 C28.83839773 0.13952575 32.61134763 0.14246309 36.38438797 0.14839649 C43.52783905 0.16393718 50.67090754 0.20496833 57.81419015 0.25514394 C65.94708494 0.31103069 74.079998 0.33852216 82.21303701 0.36362112 C98.94206987 0.41588429 115.67071794 0.50383051 132.39946365 0.61523914 C132.53019917 5.44060087 132.62496196 10.26491015 132.68785477 15.0916338 C132.71409782 16.73002064 132.74980542 18.36828644 132.79552078 20.00624561 C133.27625543 37.68603667 133.27625543 37.68603667 127.14946365 44.30273914 C125.50320998 45.93823971 123.82961424 47.49958708 122.08403397 49.02832508 C119.12376673 51.81698262 116.88371602 55.13161388 114.52446365 58.42773914 C113.52658145 59.77533035 112.52523308 61.12036131 111.5205574 62.46289539 C111.01250565 63.14239246 110.50445389 63.82188953 109.98100662 64.52197742 C107.22529792 68.16931402 104.40418681 71.76534475 101.58696365 75.36523914 C96.54848242 81.80691257 91.60299253 88.3109499 86.71196365 94.86523914 C82.03663428 101.12904673 77.30933107 107.33912576 72.4568367 113.4665575 C67.23951887 120.06065417 62.15344007 126.75447267 57.05669022 133.4418993 C54.34151728 137.00266381 51.62023819 140.5587542 48.89946365 144.11523914 C45.6136145 148.41158484 42.32820622 152.70826629 39.0439949 157.00586414 C33.36844649 164.43181534 27.68325901 171.85001867 21.9814949 179.25586414 C17.33106046 185.30161037 12.70413122 191.3654013 8.0728035 197.42578602 C4.81012868 201.69477753 1.54581178 205.96251349 -1.71821213 210.23047352 C-4.46470073 213.82184458 -7.21076232 217.41354065 -9.9560051 221.00586414 C-11.06665934 222.4590066 -12.17733626 223.91213173 -13.28803635 225.36523914 C-14.10292526 226.43149525 -14.10292526 226.43149525 -14.93427658 227.51929188 C-17.35648749 230.68713717 -19.78108607 233.85300408 -22.21772385 237.00977039 C-22.78952089 237.75507422 -22.78952089 237.75507422 -23.37286939 238.51543468 C-24.56567173 240.05229055 -25.78846535 241.56574264 -27.01371551 243.07685661 C-28.89832328 245.50733448 -30.2812598 247.90019232 -31.59725595 250.67625809 C-34.14230711 255.56985683 -36.91124778 259.57925342 -41.60053635 262.61523914 C-50.88738431 265.50271592 -61.17253262 264.74407397 -70.80946113 264.57149823 C-74.88756641 264.51628706 -78.9649983 264.55453138 -83.04324555 264.58073807 C-90.18531859 264.61385076 -97.32525501 264.58774341 -104.46707916 264.52252674 C-115.08617115 264.42582679 -125.70392045 264.42116569 -136.32337246 264.43519856 C-154.18760947 264.45620617 -172.0508986 264.40281706 -189.91485977 264.30692005 C-207.6004798 264.21222391 -225.28570498 264.15066043 -242.97157669 264.13327503 C-244.62147839 264.13162528 -244.62147839 264.13162528 -246.30471144 264.1299422 C-251.89079924 264.12452882 -257.47688739 264.1197067 -263.06297591 264.11511219 C-302.62198868 264.0815119 -342.18048586 263.97373244 -381.73920822 263.82227039 C-420.1682168 263.67530368 -458.59708426 263.56197386 -497.0263176 263.49414539 C-498.80337072 263.49098877 -498.80337072 263.49098877 -500.6163239 263.48776837 C-512.51366696 263.46667192 -524.41101111 263.44625891 -536.30835621 263.42634662 C-560.54428658 263.38576799 -584.78020775 263.34062795 -609.01612473 263.29272938 C-610.13043545 263.29053274 -611.24474618 263.2883361 -612.39282389 263.28607289 C-670.04389361 263.17202029 -727.69472484 262.99024745 -785.34556198 262.79297352 C-786.15650067 262.79019905 -786.96743936 262.78742459 -787.80295195 262.78456604 C-803.73548669 262.72993396 -819.6680099 262.67229987 -835.60053635 262.61523914 C-835.60053635 218.06523914 -835.60053635 173.51523914 -835.60053635 127.61523914 C-813.49939865 127.67397205 -791.39826096 127.73270496 -768.62739182 127.79321766 C-753.86981532 127.82993682 -739.11224214 127.86636919 -724.35465622 127.89882374 C-722.94838504 127.90192895 -722.94838504 127.90192895 -721.51370435 127.90509689 C-689.95364573 127.97448086 -658.39359806 128.02052754 -626.83347702 128.04906178 C-625.80348194 128.04999901 -624.77348686 128.05093624 -623.7122798 128.05190187 C-601.32753186 128.0721442 -578.94278264 128.088604 -556.55802911 128.10116747 C-545.5804985 128.10735165 -534.6029685 128.11437165 -523.62543869 128.12183094 C-522.53304447 128.122559 -521.44065024 128.12328706 -520.31515316 128.12403719 C-484.9095025 128.14802616 -449.50423673 128.22720323 -414.0987504 128.33501055 C-377.71395523 128.44550823 -341.32949085 128.50030738 -304.94452072 128.48505787 C-299.80502951 128.48292981 -294.66553829 128.48143824 -289.52604675 128.48033428 C-288.51452452 128.48009732 -287.50300229 128.47986036 -286.46082787 128.47961622 C-270.1800488 128.47743901 -253.89997729 128.53394873 -237.61940924 128.61242638 C-221.25044864 128.69007691 -204.88235322 128.70584943 -188.51326846 128.65859277 C-178.78818704 128.632394 -169.06589869 128.65350489 -159.34117603 128.74263546 C-152.84088303 128.79753328 -146.34254105 128.79046521 -139.84227084 128.73356042 C-136.13952508 128.70290415 -132.44213443 128.69866851 -128.73983274 128.77020807 C-112.71227753 129.6086548 -112.71227753 129.6086548 -98.87526727 122.93986022 C-95.74163249 119.476224 -93.23180415 115.77517924 -90.88675143 111.74490988 C-88.89439613 108.44603643 -86.47365482 105.52967452 -84.03803635 102.55273914 C-83.14870801 101.41806088 -82.26167699 100.28157486 -81.3778801 99.14258289 C-78.33569556 95.2590596 -75.21990742 91.43684589 -72.10053635 87.61523914 C-66.17578123 80.35198956 -60.36783629 73.00380057 -54.60053635 65.61523914 C-48.2931039 57.53470709 -41.91810665 49.51877774 -35.43696213 41.57666492 C-31.94546286 37.29112615 -28.50249947 32.97211745 -25.10053635 28.61523914 C-19.5234057 21.47292374 -13.80825055 14.44545458 -8.07343674 7.42944813 C-6.49205512 5.53554913 -6.49205512 5.53554913 -4.85886383 3.03943062 C-2.60053635 0.61523914 -2.60053635 0.61523914 0 0 Z " fill="#000000" transform="translate(5326.600536346436,562.3847608566284)"/>
<path d="M0 0 C1.49883539 0.00691345 1.49883539 0.00691345 3.02795029 0.01396656 C4.1777739 0.00709324 5.3275975 0.00021992 6.51226425 -0.00686169 C8.39824326 0.02010288 8.39824326 0.02010288 10.32232285 0.04761219 C11.66279675 0.04902291 13.00327452 0.04823021 14.34374619 0.04539967 C17.98009572 0.04396498 21.61562072 0.0733619 25.2517786 0.10826945 C29.05273699 0.13952488 32.85371427 0.14246302 36.65478134 0.14839649 C43.85135501 0.16393743 51.04754893 0.20496894 58.24395537 0.25514394 C66.43730891 0.3110299 74.63068058 0.33852196 82.82417727 0.36362112 C99.67761994 0.41588486 116.53069296 0.50383163 133.38384628 0.61523914 C133.50522214 5.30506359 133.5932289 9.99395503 133.65163803 14.68498707 C133.67600991 16.27741409 133.70916941 17.86973367 133.75161362 19.4617815 C134.19833192 36.66043615 134.19833192 36.66043615 128.50884628 42.92773914 C127.00897274 44.43359062 125.48888601 45.85978404 123.87994003 47.24805164 C121.39858523 49.51560825 119.48759345 52.22870682 117.50884628 54.92773914 C116.68697747 56.00375686 115.86270284 57.07794071 115.03619003 58.15039539 C114.1519098 59.30521649 113.26780416 60.46017129 112.38384628 61.61523914 C111.89158554 62.2583202 111.3993248 62.90140125 110.89214706 63.56396961 C107.05377853 68.57932619 103.21853046 73.59706529 99.38384628 78.61523914 C92.59047266 87.50523589 85.79134445 96.39047577 78.96587753 105.25586414 C74.31544308 111.30161037 69.68851385 117.3654013 65.05718613 123.42578602 C61.79451131 127.69477753 58.53019441 131.96251349 55.2661705 136.23047352 C52.5196819 139.82184458 49.77362031 143.41354065 47.02837753 147.00586414 C41.35282912 154.43181534 35.66764164 161.85001867 29.96587753 169.25586414 C25.31544308 175.30161037 20.68851385 181.3654013 16.05718613 187.42578602 C12.79451131 191.69477753 9.53019441 195.96251349 6.2661705 200.23047352 C3.5196819 203.82184458 0.77362031 207.41354065 -1.97162247 211.00586414 C-7.63926453 218.42147058 -13.31593415 225.82979906 -19.01068497 233.22461414 C-22.64878586 237.95400302 -26.2684015 242.6975781 -29.88763809 247.44141102 C-30.896303 248.7621911 -31.91521641 250.07522951 -32.94589543 251.37890342 C-34.65016285 253.57626131 -34.65016285 253.57626131 -35.99186209 255.94941395 C-38.32433609 259.6244941 -40.11999812 262.16902059 -44.39556818 263.44418121 C-47.91267245 263.76417722 -51.33074556 263.78925725 -54.86206341 263.7226696 C-56.22265041 263.72933107 -57.58322276 263.73994346 -58.94375202 263.75413808 C-62.6895587 263.78174861 -66.4331657 263.75320287 -70.17880833 263.71563488 C-74.25070041 263.68471738 -78.32237006 263.70606568 -82.39430624 263.72083229 C-89.5328865 263.73949954 -96.67079187 263.72469768 -103.80929375 263.68808842 C-114.42385781 263.63380353 -125.03799577 263.63106317 -135.65267334 263.63896632 C-153.5074548 263.65079607 -171.36193668 263.62070148 -189.21663094 263.56680965 C-206.89797763 263.5135777 -224.57919959 263.47892049 -242.26062584 263.46913433 C-243.90896357 263.46820635 -243.90896357 263.46820635 -245.59060105 263.46725961 C-251.17119384 263.46421466 -256.75178674 263.46150219 -262.33237977 263.45891773 C-301.87179888 263.44000812 -341.41105497 263.37935552 -380.95038223 263.29419422 C-419.36508695 263.2115506 -457.77974707 263.14779015 -496.19452286 263.10962391 C-497.97032134 263.10784831 -497.97032134 263.10784831 -499.78199454 263.10603683 C-511.67073301 263.09417027 -523.55947183 263.08268793 -535.44821094 263.0714871 C-559.66748873 263.04866046 -583.8867636 263.02326919 -608.10603714 262.9963274 C-609.21962883 262.99509179 -610.33322051 262.99385618 -611.4805574 262.99258313 C-669.11012081 262.9284112 -726.73960881 262.82616168 -784.36909866 262.71521473 C-785.17988042 262.71365409 -785.99066217 262.71209345 -786.82601307 262.71048553 C-802.75606204 262.6797539 -818.68610737 262.64733542 -834.61615372 262.61523914 C-834.61615372 218.06523914 -834.61615372 173.51523914 -834.61615372 127.61523914 C-593.05615372 127.61523914 -351.49615372 127.61523914 -102.61615372 127.61523914 C-101.95615372 126.29523914 -101.29615372 124.97523914 -100.61615372 123.61523914 C-99.76695812 122.45601975 -98.8805478 121.32337948 -97.96380997 120.21680164 C-97.44037003 119.5799242 -96.91693008 118.94304676 -96.37762833 118.28687 C-95.81696671 117.61148182 -95.25630508 116.93609364 -94.67865372 116.24023914 C-93.49282947 114.79699105 -92.307949 113.35296704 -91.12396622 111.90820789 C-90.53131973 111.18552723 -89.93867325 110.46284657 -89.32806778 109.71826649 C-86.86512655 106.69262819 -84.45455591 103.62769496 -82.05365372 100.55273914 C-77.77284063 95.07610292 -73.44418375 89.64006964 -69.09418106 84.21826649 C-65.76127449 80.05939276 -62.46124087 75.87639713 -59.17865372 71.67773914 C-54.67356448 65.91905986 -50.07499226 60.24095605 -45.45233536 54.57642078 C-41.50439666 49.7305058 -37.62823517 44.83362796 -33.78241348 39.90649891 C-30.2624021 35.40860048 -26.6675815 30.97538541 -23.05365372 26.55273914 C-18.17238929 20.57649032 -13.41099555 14.52448331 -8.73724747 8.38477039 C-7.68730606 7.01385242 -7.68730606 7.01385242 -6.61615372 5.61523914 C-6.0288158 4.74551881 -5.44147789 3.87579847 -4.83634186 2.97972298 C-2.61615372 0.61523914 -2.61615372 0.61523914 0 0 Z " fill="#000000" transform="translate(1754.616153717041,562.3847608566284)"/>
<path d="M0 0 C44.88 0 89.76 0 136 0 C136 161.37 136 322.74 136 489 C91.12 489 46.24 489 0 489 C0 327.63 0 166.26 0 0 Z " fill="#000000" transform="translate(4491,154)"/>
<path d="M0 0 C44.55 0 89.1 0 135 0 C135 161.37 135 322.74 135 489 C90.45 489 45.9 489 0 489 C0 327.63 0 166.26 0 0 Z " fill="#000000" transform="translate(920,154)"/>
<path d="M0 0 C5.77223875 4.82134228 11.04750594 9.97665967 16.30664062 15.34570312 C16.92603516 15.97283203 17.54542969 16.59996094 18.18359375 17.24609375 C18.72556396 17.79966553 19.26753418 18.3532373 19.82592773 18.92358398 C21.7588044 20.76963856 23.73433255 22.52467836 25.75219727 24.27636719 C32.14506987 29.83978612 38.21764833 35.72683588 44.27539062 41.65063477 C45.76317846 43.09646019 47.26070137 44.53233251 48.76757812 45.95825195 C50.96325661 48.03828056 53.1243635 50.14939201 55.28125 52.26953125 C55.9561145 52.89591995 56.630979 53.52230865 57.32629395 54.16767883 C60.90117699 57.75693706 62.4126154 60.08746557 62.47290039 65.2434082 C61.30016007 84.0348076 48.88287067 100.61614495 35.8125 113.1875 C23.15605388 124.33511313 8.89901341 130.33798027 -8 130 C-8.226875 128.865625 -8.45375 127.73125 -8.6875 126.5625 C-12.60719553 111.41340646 -26.09175548 99.74298916 -36.47949219 88.63378906 C-38.00864073 86.99071552 -39.525592 85.33720535 -41.0390625 83.6796875 C-42.04679799 82.57805455 -43.05460993 81.47649153 -44.0625 80.375 C-44.55057129 79.84011963 -45.03864258 79.30523926 -45.54150391 78.75415039 C-48.03386866 76.04590177 -50.57008412 73.41895974 -53.234375 70.87890625 C-54.00962524 70.13471436 -54.00962524 70.13471436 -54.80053711 69.37548828 C-56.22716367 68.01866115 -57.66975592 66.67867826 -59.11328125 65.33984375 C-61 63 -61 63 -60.86378479 61.12190247 C-59.73763226 58.35548906 -58.1839362 56.81702282 -56.06616211 54.7097168 C-55.23116684 53.87172043 -54.39617157 53.03372406 -53.53587341 52.17033386 C-52.17040123 50.82338188 -52.17040123 50.82338188 -50.77734375 49.44921875 C-49.84330215 48.51705032 -48.90926056 47.5848819 -47.94691467 46.62446594 C-45.96660812 44.64876217 -43.98149818 42.67806536 -41.99243164 40.71118164 C-39.46309247 38.20993052 -36.94232549 35.70026851 -34.42475033 33.18718243 C-32.00374304 30.77137951 -29.57810002 28.36025132 -27.15234375 25.94921875 C-26.25619858 25.05732346 -25.36005341 24.16542816 -24.43675232 23.24650574 C-19.96531523 18.82519292 -15.44214974 14.52710692 -10.66163635 10.44049072 C-8.33157104 8.42053163 -6.16279821 6.25909194 -4 4.0625 C-3.236875 3.29035156 -2.47375 2.51820312 -1.6875 1.72265625 C-1.130625 1.15417969 -0.57375 0.58570312 0 0 Z " fill="#000000" transform="translate(6182,0)"/>
<path d="M0 0 C4.84500854 4.08541953 9.5434381 8.29537104 14.15625 12.640625 C14.83675415 13.28114807 15.5172583 13.92167114 16.21838379 14.581604 C18.4822776 16.71755296 20.74178192 18.85805173 23 21 C23.80550293 21.76304443 24.61100586 22.52608887 25.44091797 23.31225586 C30.62324621 28.23178548 35.76358019 33.19128751 40.86962891 38.18994141 C42.64153189 39.91447962 44.42403243 41.62818793 46.21630859 43.33154297 C48.84794628 45.83571294 51.44204807 48.37394253 54.03125 50.921875 C54.83413452 51.67112244 55.63701904 52.42036987 56.4642334 53.19232178 C60.54384861 57.28534714 62.48433595 59.92324569 62.54882812 65.82373047 C61.2148033 84.90755343 48.88314499 101.35070771 35.63671875 114.3125 C23.42295394 124.82249594 9.05516159 130.51790844 -7 130 C-7.2784375 128.1128125 -7.2784375 128.1128125 -7.5625 126.1875 C-10.45465831 113.77050034 -20.37565775 104.98745632 -28.93554688 96.14550781 C-31.70572865 93.26656298 -34.42939465 90.3454308 -37.15600586 87.42529297 C-43.77637381 80.33023296 -43.77637381 80.33023296 -50.60546875 73.4375 C-51.43751831 72.62297363 -51.43751831 72.62297363 -52.28637695 71.79199219 C-53.76356568 70.35816339 -55.25242217 68.93638213 -56.7421875 67.515625 C-58.99147847 65.00949458 -59.85823576 63.11437453 -61 60 C-56.30797234 55.28244702 -51.61189388 50.56895389 -46.91308594 45.8581543 C-45.31776699 44.25783182 -43.72334986 42.6566098 -42.12988281 41.05444336 C-39.82858669 38.7409063 -37.52397929 36.43071101 -35.21875 34.12109375 C-34.51633179 33.41351425 -33.81391357 32.70593475 -33.09020996 31.97691345 C-29.12279773 28.0090606 -25.04901935 24.23918269 -20.80041504 20.5745697 C-18.45927051 18.5271 -16.25370447 16.36657742 -14.0625 14.16015625 C-12.81533203 12.9081543 -12.81533203 12.9081543 -11.54296875 11.63085938 C-10.70378906 10.78330078 -9.86460938 9.93574219 -9 9.0625 C-8.12988281 8.18787109 -7.25976562 7.31324219 -6.36328125 6.41210938 C-4.23986451 4.27702551 -2.11883622 2.13962795 0 0 Z " fill="#000000" transform="translate(6316,0)"/>
</svg>
