<svg id="visual" viewBox="0 0 960 540" width="960" height="540" xmlns="http://www.w3.org/2000/svg" xmlns:xlink="http://www.w3.org/1999/xlink" version="1.1"><g stroke-width="1" stroke-linejoin="bevel"><path d="M520.3 289L569.3 344L605 275Z" fill="#5d1069" stroke="#5d1069"></path><path d="M569.3 344L635 337L605 275Z" fill="#17165f" stroke="#17165f"></path><path d="M605 275L518.3 188L520.3 289Z" fill="#17165f" stroke="#17165f"></path><path d="M455.7 455L569.3 426L569.3 344Z" fill="#f60028" stroke="#f60028"></path><path d="M569.3 344L605 428L635 337Z" fill="#17165f" stroke="#17165f"></path><path d="M569.3 426L605 428L569.3 344Z" fill="#5d1069" stroke="#5d1069"></path><path d="M722.7 304L655 193L605 275Z" fill="#ff0000" stroke="#ff0000"></path><path d="M605 275L655 193L518.3 188Z" fill="#f60028" stroke="#f60028"></path><path d="M706.7 435L722.7 304L635 337Z" fill="#17165f" stroke="#17165f"></path><path d="M635 337L722.7 304L605 275Z" fill="#c3005a" stroke="#c3005a"></path><path d="M518.3 188L414.7 231L520.3 289Z" fill="#d7004e" stroke="#d7004e"></path><path d="M520.3 289L455.7 455L569.3 344Z" fill="#940068" stroke="#940068"></path><path d="M414.7 231L389.7 326L520.3 289Z" fill="#17165f" stroke="#17165f"></path><path d="M655 193L519.3 124L518.3 188Z" fill="#c3005a" stroke="#c3005a"></path><path d="M518.3 188L396.7 163L414.7 231Z" fill="#3e1566" stroke="#3e1566"></path><path d="M389.7 326L455.7 455L520.3 289Z" fill="#c3005a" stroke="#c3005a"></path><path d="M569.3 426L601 540L605 428Z" fill="#940068" stroke="#940068"></path><path d="M601 540L706.7 435L605 428Z" fill="#ac0063" stroke="#ac0063"></path><path d="M605 428L706.7 435L635 337Z" fill="#940068" stroke="#940068"></path><path d="M519.3 124L396.7 163L518.3 188Z" fill="#79086a" stroke="#79086a"></path><path d="M332 267L336 327L389.7 326Z" fill="#c3005a" stroke="#c3005a"></path><path d="M706.7 435L783.7 359L722.7 304Z" fill="#5d1069" stroke="#5d1069"></path><path d="M722.7 304L783.7 211L655 193Z" fill="#3e1566" stroke="#3e1566"></path><path d="M332 267L389.7 326L414.7 231Z" fill="#79086a" stroke="#79086a"></path><path d="M389.7 326L331 477L455.7 455Z" fill="#f60028" stroke="#f60028"></path><path d="M834.3 298L783.7 211L722.7 304Z" fill="#5d1069" stroke="#5d1069"></path><path d="M655 193L656 81L519.3 124Z" fill="#79086a" stroke="#79086a"></path><path d="M773.7 123L656 81L655 193Z" fill="#ac0063" stroke="#ac0063"></path><path d="M396.7 163L332 267L414.7 231Z" fill="#5d1069" stroke="#5d1069"></path><path d="M519.3 124L416.7 107L396.7 163Z" fill="#ac0063" stroke="#ac0063"></path><path d="M396.7 163L339 143L332 267Z" fill="#17165f" stroke="#17165f"></path><path d="M566.3 0L416.7 107L519.3 124Z" fill="#d7004e" stroke="#d7004e"></path><path d="M508.3 540L601 540L569.3 426Z" fill="#f60028" stroke="#f60028"></path><path d="M706.7 435L823.3 428L783.7 359Z" fill="#3e1566" stroke="#3e1566"></path><path d="M439.7 540L508.3 540L455.7 455Z" fill="#d7004e" stroke="#d7004e"></path><path d="M455.7 455L508.3 540L569.3 426Z" fill="#5d1069" stroke="#5d1069"></path><path d="M783.7 359L834.3 298L722.7 304Z" fill="#c3005a" stroke="#c3005a"></path><path d="M885.3 187L773.7 123L783.7 211Z" fill="#ac0063" stroke="#ac0063"></path><path d="M783.7 211L773.7 123L655 193Z" fill="#3e1566" stroke="#3e1566"></path><path d="M357 540L439.7 540L455.7 455Z" fill="#d7004e" stroke="#d7004e"></path><path d="M416.7 107L339 143L396.7 163Z" fill="#5d1069" stroke="#5d1069"></path><path d="M734.7 540L823.3 428L706.7 435Z" fill="#5d1069" stroke="#5d1069"></path><path d="M783.7 359L872.3 339L834.3 298Z" fill="#79086a" stroke="#79086a"></path><path d="M229.3 421L331 477L336 327Z" fill="#c3005a" stroke="#c3005a"></path><path d="M336 327L331 477L389.7 326Z" fill="#c3005a" stroke="#c3005a"></path><path d="M601 540L734.7 540L706.7 435Z" fill="#79086a" stroke="#79086a"></path><path d="M646 0L566.3 0L656 81Z" fill="#5d1069" stroke="#5d1069"></path><path d="M656 81L566.3 0L519.3 124Z" fill="#ff0000" stroke="#ff0000"></path><path d="M416.7 107L332 50L339 143Z" fill="#79086a" stroke="#79086a"></path><path d="M756.7 0L646 0L656 81Z" fill="#e8003e" stroke="#e8003e"></path><path d="M823.3 428L872.3 339L783.7 359Z" fill="#c3005a" stroke="#c3005a"></path><path d="M834.3 298L885.3 187L783.7 211Z" fill="#17165f" stroke="#17165f"></path><path d="M331 477L357 540L455.7 455Z" fill="#ff0000" stroke="#ff0000"></path><path d="M960 231L885.3 187L834.3 298Z" fill="#f60028" stroke="#f60028"></path><path d="M773.7 123L756.7 0L656 81Z" fill="#e8003e" stroke="#e8003e"></path><path d="M386.7 0L332 50L416.7 107Z" fill="#d7004e" stroke="#d7004e"></path><path d="M213.3 253L216.3 329L332 267Z" fill="#ac0063" stroke="#ac0063"></path><path d="M332 267L216.3 329L336 327Z" fill="#79086a" stroke="#79086a"></path><path d="M566.3 0L386.7 0L416.7 107Z" fill="#3e1566" stroke="#3e1566"></path><path d="M213.3 253L332 267L221.3 144Z" fill="#ac0063" stroke="#ac0063"></path><path d="M331 477L228.3 540L357 540Z" fill="#d7004e" stroke="#d7004e"></path><path d="M831.3 51L756.7 0L773.7 123Z" fill="#e8003e" stroke="#e8003e"></path><path d="M221.3 144L332 267L339 143Z" fill="#d7004e" stroke="#d7004e"></path><path d="M216.3 329L229.3 421L336 327Z" fill="#d7004e" stroke="#d7004e"></path><path d="M885.3 187L831.3 51L773.7 123Z" fill="#e8003e" stroke="#e8003e"></path><path d="M734.7 540L844.3 540L823.3 428Z" fill="#e8003e" stroke="#e8003e"></path><path d="M960 445L960 342L872.3 339Z" fill="#f60028" stroke="#f60028"></path><path d="M250.3 88L221.3 144L339 143Z" fill="#5d1069" stroke="#5d1069"></path><path d="M250.3 88L339 143L332 50Z" fill="#e8003e" stroke="#e8003e"></path><path d="M310 0L250.3 88L332 50Z" fill="#c3005a" stroke="#c3005a"></path><path d="M386.7 0L310 0L332 50Z" fill="#940068" stroke="#940068"></path><path d="M960 445L872.3 339L823.3 428Z" fill="#79086a" stroke="#79086a"></path><path d="M872.3 339L960 231L834.3 298Z" fill="#d7004e" stroke="#d7004e"></path><path d="M885.3 187L960 71L831.3 51Z" fill="#79086a" stroke="#79086a"></path><path d="M960 342L960 231L872.3 339Z" fill="#940068" stroke="#940068"></path><path d="M106.7 540L228.3 540L229.3 421Z" fill="#5d1069" stroke="#5d1069"></path><path d="M229.3 421L228.3 540L331 477Z" fill="#79086a" stroke="#79086a"></path><path d="M844.3 540L960 445L823.3 428Z" fill="#3e1566" stroke="#3e1566"></path><path d="M960 231L960 151L885.3 187Z" fill="#ff0000" stroke="#ff0000"></path><path d="M960 71L869.3 0L831.3 51Z" fill="#d7004e" stroke="#d7004e"></path><path d="M831.3 51L869.3 0L756.7 0Z" fill="#d7004e" stroke="#d7004e"></path><path d="M143.7 150L221.3 144L250.3 88Z" fill="#f60028" stroke="#f60028"></path><path d="M143.7 150L213.3 253L221.3 144Z" fill="#ff0000" stroke="#ff0000"></path><path d="M143.7 150L130.7 244L213.3 253Z" fill="#17165f" stroke="#17165f"></path><path d="M213.3 253L130.7 244L216.3 329Z" fill="#e8003e" stroke="#e8003e"></path><path d="M216.3 329L100.7 337L229.3 421Z" fill="#e8003e" stroke="#e8003e"></path><path d="M310 0L237.3 0L250.3 88Z" fill="#f60028" stroke="#f60028"></path><path d="M97.7 60L143.7 150L250.3 88Z" fill="#3e1566" stroke="#3e1566"></path><path d="M960 151L960 71L885.3 187Z" fill="#f60028" stroke="#f60028"></path><path d="M844.3 540L960 540L960 445Z" fill="#ff0000" stroke="#ff0000"></path><path d="M0 325L100.7 337L0 247Z" fill="#940068" stroke="#940068"></path><path d="M130.7 244L100.7 337L216.3 329Z" fill="#ac0063" stroke="#ac0063"></path><path d="M960 71L960 0L869.3 0Z" fill="#79086a" stroke="#79086a"></path><path d="M0 325L67.7 424L100.7 337Z" fill="#940068" stroke="#940068"></path><path d="M100.7 337L67.7 424L229.3 421Z" fill="#c3005a" stroke="#c3005a"></path><path d="M67.7 424L106.7 540L229.3 421Z" fill="#79086a" stroke="#79086a"></path><path d="M121.7 0L97.7 60L250.3 88Z" fill="#c3005a" stroke="#c3005a"></path><path d="M0 247L100.7 337L130.7 244Z" fill="#f60028" stroke="#f60028"></path><path d="M237.3 0L121.7 0L250.3 88Z" fill="#c3005a" stroke="#c3005a"></path><path d="M0 247L130.7 244L0 154Z" fill="#3e1566" stroke="#3e1566"></path><path d="M67.7 424L0 450L106.7 540Z" fill="#ac0063" stroke="#ac0063"></path><path d="M0 154L143.7 150L97.7 60Z" fill="#79086a" stroke="#79086a"></path><path d="M0 154L130.7 244L143.7 150Z" fill="#79086a" stroke="#79086a"></path><path d="M0 92L0 154L97.7 60Z" fill="#17165f" stroke="#17165f"></path><path d="M0 325L0 450L67.7 424Z" fill="#ac0063" stroke="#ac0063"></path><path d="M0 0L0 92L97.7 60Z" fill="#5d1069" stroke="#5d1069"></path><path d="M0 450L0 540L106.7 540Z" fill="#e8003e" stroke="#e8003e"></path><path d="M121.7 0L0 0L97.7 60Z" fill="#3e1566" stroke="#3e1566"></path></g></svg>