<svg id="visual" viewBox="0 0 960 540" width="960" height="540" xmlns="http://www.w3.org/2000/svg" xmlns:xlink="http://www.w3.org/1999/xlink" version="1.1"><path d="M0 60L12.3 104.2C24.7 148.3 49.3 236.7 74 264.7C98.7 292.7 123.3 260.3 148 245C172.7 229.7 197.3 231.3 221.8 245.7C246.3 260 270.7 287 295.2 290.7C319.7 294.3 344.3 274.7 369 247.7C393.7 220.7 418.3 186.3 443 170.2C467.7 154 492.3 156 517 157.8C541.7 159.7 566.3 161.3 591 174.8C615.7 188.3 640.3 213.7 664.8 211C689.3 208.3 713.7 177.7 738.2 186.7C762.7 195.7 787.3 244.3 812 257.8C836.7 271.3 861.3 249.7 886 255C910.7 260.3 935.3 292.7 947.7 308.8L960 325L960 0L947.7 0C935.3 0 910.7 0 886 0C861.3 0 836.7 0 812 0C787.3 0 762.7 0 738.2 0C713.7 0 689.3 0 664.8 0C640.3 0 615.7 0 591 0C566.3 0 541.7 0 517 0C492.3 0 467.7 0 443 0C418.3 0 393.7 0 369 0C344.3 0 319.7 0 295.2 0C270.7 0 246.3 0 221.8 0C197.3 0 172.7 0 148 0C123.3 0 98.7 0 74 0C49.3 0 24.7 0 12.3 0L0 0Z" fill="#8d66ff"></path><path d="M0 287L12.3 300.5C24.7 314 49.3 341 74 339.2C98.7 337.3 123.3 306.7 148 322.8C172.7 339 197.3 402 221.8 425.5C246.3 449 270.7 433 295.2 407.8C319.7 382.7 344.3 348.3 369 324C393.7 299.7 418.3 285.3 443 308.8C467.7 332.3 492.3 393.7 517 406.3C541.7 419 566.3 383 591 374.8C615.7 366.7 640.3 386.3 664.8 378.2C689.3 370 713.7 334 738.2 324.2C762.7 314.3 787.3 330.7 812 358.5C836.7 386.3 861.3 425.7 886 437.3C910.7 449 935.3 433 947.7 425L960 417L960 323L947.7 306.8C935.3 290.7 910.7 258.3 886 253C861.3 247.7 836.7 269.3 812 255.8C787.3 242.3 762.7 193.7 738.2 184.7C713.7 175.7 689.3 206.3 664.8 209C640.3 211.7 615.7 186.3 591 172.8C566.3 159.3 541.7 157.7 517 155.8C492.3 154 467.7 152 443 168.2C418.3 184.3 393.7 218.7 369 245.7C344.3 272.7 319.7 292.3 295.2 288.7C270.7 285 246.3 258 221.8 243.7C197.3 229.3 172.7 227.7 148 243C123.3 258.3 98.7 290.7 74 262.7C49.3 234.7 24.7 146.3 12.3 102.2L0 58Z" fill="#6432ff"></path><path d="M0 352L12.3 367.3C24.7 382.7 49.3 413.3 74 423.2C98.7 433 123.3 422 148 434.5C172.7 447 197.3 483 221.8 498.3C246.3 513.7 270.7 508.3 295.2 485C319.7 461.7 344.3 420.3 369 397.8C393.7 375.3 418.3 371.7 443 387.8C467.7 404 492.3 440 517 460.7C541.7 481.3 566.3 486.7 591 479.5C615.7 472.3 640.3 452.7 664.8 426.7C689.3 400.7 713.7 368.3 738.2 370.2C762.7 372 787.3 408 812 432.3C836.7 456.7 861.3 469.3 886 481.8C910.7 494.3 935.3 506.7 947.7 512.8L960 519L960 415L947.7 423C935.3 431 910.7 447 886 435.3C861.3 423.7 836.7 384.3 812 356.5C787.3 328.7 762.7 312.3 738.2 322.2C713.7 332 689.3 368 664.8 376.2C640.3 384.3 615.7 364.7 591 372.8C566.3 381 541.7 417 517 404.3C492.3 391.7 467.7 330.3 443 306.8C418.3 283.3 393.7 297.7 369 322C344.3 346.3 319.7 380.7 295.2 405.8C270.7 431 246.3 447 221.8 423.5C197.3 400 172.7 337 148 320.8C123.3 304.7 98.7 335.3 74 337.2C49.3 339 24.7 312 12.3 298.5L0 285Z" fill="#4102e8"></path><path d="M0 541L12.3 541C24.7 541 49.3 541 74 541C98.7 541 123.3 541 148 541C172.7 541 197.3 541 221.8 541C246.3 541 270.7 541 295.2 541C319.7 541 344.3 541 369 541C393.7 541 418.3 541 443 541C467.7 541 492.3 541 517 541C541.7 541 566.3 541 591 541C615.7 541 640.3 541 664.8 541C689.3 541 713.7 541 738.2 541C762.7 541 787.3 541 812 541C836.7 541 861.3 541 886 541C910.7 541 935.3 541 947.7 541L960 541L960 517L947.7 510.8C935.3 504.7 910.7 492.3 886 479.8C861.3 467.3 836.7 454.7 812 430.3C787.3 406 762.7 370 738.2 368.2C713.7 366.3 689.3 398.7 664.8 424.7C640.3 450.7 615.7 470.3 591 477.5C566.3 484.7 541.7 479.3 517 458.7C492.3 438 467.7 402 443 385.8C418.3 369.7 393.7 373.3 369 395.8C344.3 418.3 319.7 459.7 295.2 483C270.7 506.3 246.3 511.7 221.8 496.3C197.3 481 172.7 445 148 432.5C123.3 420 98.7 431 74 421.2C49.3 411.3 24.7 380.7 12.3 365.3L0 350Z" fill="#3305bb"></path></svg>