<?xml version="1.0" standalone="no"?>
<!DOCTYPE svg PUBLIC "-//W3C//DTD SVG 20010904//EN"
 "http://www.w3.org/TR/2001/REC-SVG-20010904/DTD/svg10.dtd">
<svg version="1.0" xmlns="http://www.w3.org/2000/svg"
 width="1080.000000pt" height="1080.000000pt" viewBox="0 0 1080.000000 1080.000000"
 preserveAspectRatio="xMidYMid meet">

<g transform="translate(0.000000,1080.000000) scale(0.100000,-0.100000)"
fill="#ffffff" stroke="none">
<path d="M8032 7147 c-7 -7 -17 -28 -25 -45 -12 -28 -10 -51 10 -180 13 -81
28 -181 33 -222 26 -204 49 -291 88 -331 l26 -26 17 21 c15 18 19 19 42 7 45
-24 57 -10 57 69 0 40 -4 70 -10 70 -6 0 -10 36 -10 89 0 66 -4 92 -15 101
-19 15 -19 29 -1 66 13 27 29 122 29 169 0 11 -5 33 -12 48 -6 16 -11 32 -11
36 0 4 -7 22 -16 40 -18 37 -60 67 -86 63 -11 -2 -18 3 -18 12 0 9 -4 16 -9
16 -8 0 -19 -23 -35 -72 -3 -10 -15 -18 -27 -18 -20 0 -21 3 -15 50 7 53 5 58
-12 37z"/>
<path d="M7516 7108 c-13 -21 -14 -31 -1 -93 16 -76 71 -243 87 -262 5 -7 7
-16 4 -22 -8 -12 14 -111 31 -136 7 -11 13 -29 13 -41 0 -12 7 -27 15 -34 8
-7 15 -17 15 -22 0 -16 54 -57 62 -46 3 6 21 12 40 12 18 1 42 7 53 13 17 10
18 15 8 32 -7 12 -13 31 -13 43 0 13 -7 36 -15 52 -18 35 -19 55 -2 61 14 6
11 94 -4 110 -13 13 -11 119 2 132 8 8 8 17 0 31 -6 11 -11 35 -11 52 0 18 -4
29 -10 25 -5 -3 -10 1 -10 10 0 9 5 13 10 10 21 -13 8 8 -22 36 -22 20 -43 29
-66 29 -20 0 -35 6 -38 15 -10 25 -21 17 -37 -24 -9 -22 -21 -42 -27 -46 -18
-11 -40 15 -34 40 4 17 0 26 -15 34 -17 10 -23 8 -35 -11z m154 -418 c0 -5 -5
-10 -11 -10 -5 0 -7 5 -4 10 3 6 8 10 11 10 2 0 4 -4 4 -10z"/>
<path d="M3492 7037 c-14 -33 -16 -147 -3 -147 5 0 9 -26 8 -57 0 -32 5 -76
11 -98 19 -70 53 -218 59 -263 3 -23 10 -45 14 -48 5 -3 9 -18 9 -34 0 -24 6
-32 33 -43 32 -14 91 -16 103 -4 13 13 10 89 -3 94 -7 3 -13 9 -13 14 0 4 7 6
16 2 11 -4 14 0 11 18 -2 13 -7 31 -10 39 -13 34 -13 79 0 84 15 6 18 52 3 61
-15 9 -12 51 5 65 12 10 14 34 11 129 -3 68 -9 117 -15 119 -6 2 -11 12 -11
22 0 26 -51 60 -78 53 -12 -3 -29 0 -37 7 -12 10 -15 10 -16 -1 -2 -39 -11
-74 -20 -77 -5 -2 -9 -10 -9 -18 0 -44 -48 19 -52 68 l-4 43 -12 -28z m148
-37 c0 -11 -2 -20 -4 -20 -2 0 -6 9 -9 20 -3 11 -1 20 4 20 5 0 9 -9 9 -20z
m-95 -80 c3 -5 2 -10 -4 -10 -5 0 -13 5 -16 10 -3 6 -2 10 4 10 5 0 13 -4 16
-10z m165 -126 c0 -8 -4 -12 -10 -9 -5 3 -10 10 -10 16 0 5 5 9 10 9 6 0 10
-7 10 -16z m-145 -64 c27 -30 12 -34 -15 -5 -13 14 -19 25 -13 25 5 0 18 -9
28 -20z m115 -132 c0 -5 -9 -4 -20 2 -11 6 -20 18 -20 27 0 14 2 14 20 -2 11
-10 20 -22 20 -27z m15 -128 c3 -5 -1 -10 -9 -10 -9 0 -16 5 -16 10 0 6 4 10
9 10 6 0 13 -4 16 -10z m-25 -30 c0 -5 -4 -10 -10 -10 -5 0 -10 5 -10 10 0 6
5 10 10 10 6 0 10 -4 10 -10z"/>
<path d="M3028 7015 c-34 -45 -23 -199 25 -345 14 -41 30 -100 37 -130 24
-110 40 -150 62 -150 11 0 22 -8 25 -20 3 -11 9 -20 13 -20 4 0 10 9 13 20 5
20 47 29 47 11 0 -5 13 -9 29 -9 29 1 30 3 36 62 4 34 7 152 8 264 2 184 0
204 -15 213 -10 6 -18 19 -18 29 0 11 -4 20 -9 20 -5 0 -24 12 -41 27 -29 24
-33 25 -42 9 -8 -13 -13 -15 -24 -5 -8 6 -14 18 -14 25 0 25 -28 14 -35 -13
-9 -38 -34 -75 -45 -68 -6 4 -10 26 -10 50 0 50 -17 63 -42 30z"/>
<path d="M6458 6928 c-10 -10 -18 -25 -18 -33 0 -14 3 -13 25 1 24 16 33 39
18 47 -5 2 -16 -4 -25 -15z"/>
<path d="M6610 6939 c0 -6 -8 -8 -18 -5 -20 7 -44 -15 -56 -48 -4 -12 -13 -17
-27 -13 -18 5 -20 2 -14 -26 4 -18 18 -43 31 -57 21 -21 27 -23 44 -13 10 7
26 10 34 7 10 -4 17 2 21 19 7 26 41 42 59 28 6 -5 22 -11 36 -13 20 -2 26 2
28 22 2 15 -6 36 -18 49 -19 23 -21 23 -38 8 -28 -25 -60 -22 -68 7 -3 14 -3
30 1 35 3 6 1 11 -4 11 -6 0 -11 -5 -11 -11z"/>
<path d="M5685 6918 c-49 -27 -65 -50 -65 -98 0 -38 5 -52 33 -80 45 -48 81
-66 109 -54 24 10 110 10 126 0 15 -9 54 34 49 54 -2 10 -1 23 3 30 4 7 -2 31
-14 54 -23 44 -93 87 -146 90 -16 1 -32 5 -36 9 -10 10 -36 8 -59 -5z"/>
<path d="M6460 6875 c-11 -13 -10 -14 4 -9 9 3 16 10 16 15 0 13 -6 11 -20 -6z"/>
<path d="M4890 6835 c0 -8 5 -15 10 -15 6 0 10 7 10 15 0 8 -4 15 -10 15 -5 0
-10 -7 -10 -15z"/>
<path d="M4978 6833 c-8 -10 -18 -26 -22 -37 -4 -12 -13 -17 -27 -13 -18 5
-20 2 -14 -26 10 -46 29 -61 80 -63 39 -1 46 1 51 21 3 13 15 26 27 29 12 3
28 14 35 26 11 19 10 20 -23 20 -19 0 -35 4 -35 10 0 10 -40 50 -50 50 -4 0
-14 -8 -22 -17z"/>
<path d="M7195 6090 c-3 -5 -21 -10 -39 -10 -19 0 -39 -7 -46 -15 -7 -8 -20
-15 -30 -15 -37 0 -119 -58 -212 -149 -54 -53 -98 -101 -98 -108 0 -6 -8 -18
-18 -25 -32 -22 -172 -235 -172 -262 0 -6 -7 -20 -15 -30 -8 -11 -15 -28 -15
-37 0 -10 -3 -19 -7 -21 -11 -4 -53 -65 -53 -76 0 -8 -28 -69 -108 -232 -21
-43 -44 -76 -54 -78 -11 -2 -28 13 -47 40 -17 24 -42 59 -57 79 -14 20 -31 46
-37 57 -30 53 -73 111 -82 112 -6 0 -16 18 -22 40 -13 41 -69 129 -90 143 -7
4 -13 16 -13 26 0 9 -13 35 -30 57 -16 21 -30 44 -30 49 0 14 -88 105 -101
105 -6 0 -42 28 -80 62 -56 50 -85 67 -152 90 -45 15 -107 31 -138 34 -50 6
-65 3 -122 -24 -67 -32 -117 -71 -117 -91 0 -6 -4 -11 -9 -11 -12 0 -110 -154
-114 -178 -2 -11 -8 -26 -13 -34 -15 -18 -58 -109 -60 -128 -5 -28 -10 -45
-21 -65 -20 -37 -63 -177 -57 -186 11 -18 23 -8 29 23 4 18 11 39 15 48 4 8
18 49 29 90 12 41 29 88 36 103 8 16 15 34 15 42 0 7 7 18 15 25 8 7 15 23 15
36 0 12 8 29 18 36 10 7 22 25 26 41 3 15 11 27 16 27 6 0 10 7 10 15 0 18
147 172 156 163 3 -4 -8 -22 -25 -40 -17 -18 -31 -39 -31 -45 0 -7 -4 -13 -10
-13 -5 0 -10 -7 -10 -14 0 -8 -14 -35 -30 -60 -17 -25 -35 -59 -41 -75 -6 -17
-15 -31 -20 -31 -5 0 -9 -7 -9 -15 0 -9 -7 -27 -16 -40 -9 -14 -13 -25 -10
-25 4 0 2 -10 -5 -21 -6 -12 -11 -37 -11 -55 0 -23 -5 -34 -14 -34 -8 0 -14
-6 -14 -12 0 -7 -6 -25 -14 -40 -8 -14 -16 -45 -19 -68 -2 -23 -9 -45 -14 -49
-6 -3 -13 -19 -16 -36 -6 -31 -21 -92 -39 -157 -11 -37 -31 -54 -50 -42 -12 8
-4 100 11 118 13 16 17 61 6 61 -16 1 -38 -71 -61 -195 -2 -14 -9 -47 -14 -75
-6 -27 -12 -73 -13 -100 -2 -28 -6 -56 -10 -62 -4 -6 -9 -71 -12 -144 -7 -159
-12 -250 -16 -264 -1 -5 0 -71 4 -145 4 -74 9 -236 12 -360 3 -124 8 -245 11
-270 3 -25 7 -67 9 -95 15 -183 47 -382 79 -490 8 -27 20 -71 27 -98 6 -26 16
-50 20 -53 5 -3 18 -24 28 -47 22 -47 50 -76 101 -104 45 -25 78 -34 86 -22 3
5 36 9 74 9 45 0 73 5 82 14 8 7 25 17 38 21 31 9 94 69 123 115 11 19 36 55
55 80 18 25 40 59 48 75 7 17 19 39 26 49 42 65 78 126 78 135 0 5 6 16 13 23
17 18 327 644 327 661 0 3 18 45 41 94 22 48 48 104 56 123 8 19 21 48 29 64
19 40 19 63 -1 46 -19 -16 -19 -6 0 28 15 29 53 115 75 172 7 19 17 40 22 46
5 6 6 19 2 28 -4 12 -2 15 9 11 13 -5 12 -13 -5 -57 -10 -28 -28 -68 -38 -89
-26 -49 -25 -58 0 -26 11 14 41 74 66 134 24 59 50 119 58 133 16 31 44 28 71
-7 87 -115 115 -153 115 -160 0 -4 9 -19 20 -33 11 -14 41 -56 66 -95 26 -38
50 -72 53 -75 8 -7 29 -41 40 -65 5 -11 23 -37 40 -59 17 -21 31 -45 31 -52 0
-7 10 -21 23 -31 12 -10 31 -38 42 -63 10 -25 32 -60 48 -79 15 -18 32 -44 37
-57 5 -13 14 -24 20 -24 5 0 10 -6 10 -14 0 -7 18 -32 40 -55 23 -23 38 -46
35 -51 -4 -6 -1 -10 4 -10 6 0 11 -9 11 -20 0 -11 7 -23 15 -27 9 -3 24 -22
34 -42 11 -20 28 -45 40 -55 12 -11 21 -24 21 -31 0 -6 16 -26 35 -45 19 -19
35 -40 35 -47 0 -7 5 -13 10 -13 6 0 53 -43 104 -96 51 -53 98 -94 103 -91 6
4 21 -5 33 -18 13 -14 31 -25 41 -25 10 0 21 -4 24 -10 3 -5 15 -10 25 -10 10
0 20 -5 22 -10 2 -6 19 -13 37 -15 19 -3 38 -10 42 -17 10 -16 161 -21 170 -6
4 6 22 5 49 -2 42 -11 43 -11 84 27 22 21 43 39 45 41 2 1 -5 12 -16 25 -43
46 -37 91 8 66 20 -10 20 -13 6 -20 -9 -5 -14 -16 -11 -23 4 -11 10 -11 29 -2
15 7 37 39 62 93 21 46 46 86 55 89 9 3 15 11 12 19 -3 8 -12 11 -21 8 -13 -5
-13 -3 -2 16 8 12 15 17 17 11 6 -18 20 -10 15 9 -3 11 2 21 11 24 12 5 15 22
14 83 -1 53 2 79 10 82 21 7 13 22 -10 19 -20 -2 -23 3 -26 33 -2 25 -9 38
-25 45 -26 12 -37 65 -14 65 8 0 20 7 27 15 7 8 20 15 30 15 23 0 49 75 32 92
-15 15 -16 64 -2 73 6 3 10 26 10 51 0 24 -4 44 -10 44 -6 0 -10 33 -10 78 0
134 -11 232 -26 232 -15 0 -20 46 -6 52 10 4 -9 167 -21 186 -5 7 -11 38 -14
70 -3 31 -10 62 -14 68 -5 6 -14 40 -19 75 -6 35 -12 72 -13 81 -2 10 -6 21
-10 24 -4 4 -7 20 -7 35 0 15 -5 31 -11 34 -6 4 -8 13 -6 20 3 6 -3 19 -14 28
-13 12 -19 30 -19 61 0 28 -7 52 -20 69 -11 14 -20 35 -20 46 0 12 -7 24 -15
28 -11 4 -15 17 -14 42 3 50 -3 69 -75 233 -9 20 -16 41 -16 47 0 7 -8 24 -18
39 -31 47 -42 66 -61 107 -10 22 -36 67 -57 99 -22 32 -44 68 -51 80 -19 34
-125 126 -145 126 -10 0 -18 7 -18 15 0 9 -6 12 -15 9 -8 -4 -15 -1 -15 5 0 6
-6 8 -14 5 -7 -3 -16 2 -20 11 -4 11 -13 14 -25 10 -12 -4 -23 0 -28 9 -9 17
-133 45 -169 38 -13 -2 -30 1 -38 7 -10 8 -16 9 -21 1z m-185 -105 c-7 -9 -15
-13 -17 -11 -7 7 7 26 19 26 6 0 6 -6 -2 -15z m373 -58 c21 -10 57 -37 80 -60
45 -45 151 -214 162 -259 4 -15 13 -32 21 -39 8 -6 14 -20 14 -30 0 -9 7 -24
15 -32 8 -8 11 -17 8 -21 -3 -3 -1 -11 5 -18 5 -7 13 -29 17 -50 4 -20 14 -45
23 -55 10 -10 18 -39 20 -68 1 -27 7 -54 12 -59 6 -6 10 -18 10 -28 0 -11 8
-33 17 -51 9 -18 16 -39 15 -49 -2 -9 2 -19 8 -23 5 -3 10 -15 10 -27 0 -17
22 -103 50 -193 10 -33 54 -264 65 -345 3 -19 7 -51 10 -70 11 -74 25 -198 31
-280 6 -87 6 -351 -1 -405 -2 -16 1 -35 7 -42 7 -9 7 -18 -3 -29 -8 -10 -13
-46 -13 -100 -1 -46 -5 -84 -10 -84 -5 0 -6 -18 -3 -41 4 -29 1 -42 -9 -46 -8
-3 -14 -17 -14 -32 0 -15 -15 -59 -34 -98 -41 -85 -106 -139 -155 -128 -24 5
-144 94 -193 143 -9 10 -36 35 -60 58 -23 22 -49 52 -55 67 -7 15 -20 27 -28
27 -9 0 -13 5 -10 10 10 17 -114 170 -138 170 -16 0 -18 3 -9 12 17 17 15 25
-8 31 -12 3 -20 14 -20 25 0 11 -3 22 -7 24 -5 2 -16 19 -25 38 -33 66 -59
100 -77 100 -6 0 -11 11 -11 25 0 14 -8 29 -20 35 -11 6 -18 15 -15 19 3 5 -2
11 -10 15 -8 3 -15 14 -15 25 0 22 -97 171 -116 178 -7 3 -11 10 -8 17 3 8
-17 42 -44 77 -26 35 -51 72 -55 82 -3 9 -11 17 -16 17 -5 0 -19 19 -31 43
-12 23 -46 72 -76 109 -30 37 -54 71 -54 76 0 5 -9 17 -20 27 -11 10 -20 24
-20 32 0 7 -7 16 -15 19 -8 4 -15 11 -15 18 0 6 -13 26 -30 44 -40 44 -45 84
-20 156 26 78 17 85 -15 11 -14 -31 -28 -55 -30 -53 -3 2 9 36 25 74 19 46 34
68 44 66 8 -1 18 8 22 20 3 13 10 25 14 28 8 5 120 237 120 248 0 13 66 141
94 182 39 58 78 140 66 140 -15 0 -12 13 11 40 14 16 19 19 15 8 -7 -22 2 -23
26 -1 10 9 18 29 18 45 0 19 5 28 16 28 9 0 49 34 89 75 39 41 79 75 89 75 9
0 16 7 16 15 0 15 11 19 39 16 8 -2 10 2 6 10 -5 7 -3 10 6 7 8 -3 25 -1 39 5
26 10 101 26 110 23 3 -1 22 -10 43 -19z m-450 -14 c-10 -11 -27 -30 -38 -44
-11 -13 -44 -52 -72 -87 -109 -130 -223 -331 -355 -622 -81 -178 -98 -209 -98
-175 0 29 197 449 252 535 49 78 118 193 118 198 0 3 10 14 23 26 12 12 38 42
57 66 40 53 121 132 127 126 3 -2 -4 -13 -14 -23z m-28 -153 c-3 -5 -11 -10
-16 -10 -6 0 -7 5 -4 10 3 6 11 10 16 10 6 0 7 -4 4 -10z m75 6 c0 -3 -4 -8
-10 -11 -5 -3 -10 -1 -10 4 0 6 5 11 10 11 6 0 10 -2 10 -4z m-1504 -21 c-3
-8 -1 -15 4 -15 6 0 10 4 10 9 0 5 12 12 26 15 22 6 35 -2 87 -51 34 -32 82
-85 107 -118 24 -33 48 -61 52 -63 4 -2 17 -24 30 -49 12 -25 33 -56 45 -69
13 -14 23 -30 23 -35 0 -6 8 -23 18 -37 32 -50 42 -67 64 -109 12 -24 28 -43
35 -43 7 0 13 -9 13 -20 0 -11 5 -20 10 -20 6 0 10 -7 10 -16 0 -9 17 -36 38
-59 39 -46 82 -110 82 -126 0 -5 7 -9 15 -9 8 0 15 -8 15 -18 0 -11 9 -27 20
-37 11 -10 25 -35 31 -55 10 -32 8 -45 -18 -106 -17 -38 -56 -130 -87 -204
-65 -152 -83 -193 -102 -231 -8 -15 -38 -75 -68 -133 -29 -58 -51 -106 -48
-106 3 0 -2 -8 -10 -17 -11 -14 -75 -138 -126 -245 -2 -5 5 -8 15 -8 13 0 10
-5 -12 -19 -22 -13 -49 -55 -98 -152 -37 -74 -72 -141 -77 -149 -6 -8 -45 -80
-88 -160 -43 -80 -88 -161 -100 -180 -12 -19 -25 -42 -29 -50 -26 -56 -132
-199 -148 -200 -29 -1 -71 204 -90 435 -3 28 -9 100 -15 160 -13 136 -17 197
-24 350 -4 66 -11 209 -16 317 -6 108 -8 207 -5 220 3 13 8 82 11 153 3 72 6
148 7 170 2 33 -1 39 -15 37 -10 -2 -18 2 -18 8 0 5 4 10 8 10 13 0 42 68 36
84 -3 9 1 30 10 47 9 18 16 40 16 49 0 9 3 20 6 23 4 4 8 21 9 39 4 42 23 137
34 163 5 11 13 38 19 60 17 67 61 187 91 250 16 33 37 78 47 100 35 82 177
280 150 210z m-99 -77 c-14 -18 -35 -53 -47 -77 -15 -30 -24 -40 -30 -31 -4 7
-1 20 9 30 9 10 32 43 51 75 19 32 36 53 38 47 2 -6 -8 -26 -21 -44z m-140
-60 c-3 -8 -6 -5 -6 6 -1 11 2 17 5 13 3 -3 4 -12 1 -19z m-56 -115 c-12 -20
-14 -14 -5 12 4 9 9 14 11 11 3 -2 0 -13 -6 -23z m88 -25 c-9 -17 -14 -19 -17
-8 -3 7 0 16 7 18 6 2 11 11 12 20 0 10 3 12 5 5 3 -7 0 -22 -7 -35z m-108
-31 c-8 -8 -11 -7 -11 4 0 9 3 19 7 23 4 4 9 2 11 -4 3 -7 -1 -17 -7 -23z
m1599 2 c0 -12 -51 -101 -55 -97 -6 6 20 78 27 78 5 0 8 7 8 15 0 8 5 15 10
15 6 0 10 -5 10 -11z m-1619 -46 c-12 -20 -14 -14 -5 12 4 9 9 14 11 11 3 -2
0 -13 -6 -23z m59 -96 c0 -7 -7 -22 -16 -33 -14 -17 -15 -17 -10 -1 3 10 6 25
6 33 0 8 5 14 10 14 6 0 10 -6 10 -13z m-100 -42 c-6 -15 -13 -25 -17 -21 -3
3 0 17 7 31 17 32 24 26 10 -10z m1461 -46 c-25 -41 -27 -35 -5 17 9 22 19 34
21 28 2 -7 -5 -27 -16 -45z m-1388 3 c-3 -12 -10 -22 -15 -22 -5 0 -7 3 -5 8
2 4 7 16 11 26 9 25 17 16 9 -12z m-102 -49 c-9 -15 -10 -13 -11 13 0 17 3 34
8 38 11 12 14 -32 3 -51z m1512 -96 c-29 -70 -52 -94 -28 -29 18 49 46 104 51
99 2 -2 -8 -34 -23 -70z m-1537 -15 c-12 -11 -18 7 -10 30 l8 23 4 -23 c2 -13
1 -26 -2 -30z m-26 -108 c0 -8 -4 -12 -10 -9 -5 3 -10 10 -10 16 0 5 5 9 10 9
6 0 10 -7 10 -16z m2950 -26 c0 -13 -32 -6 -37 9 -3 7 3 9 16 6 12 -3 21 -10
21 -15z m-2973 -60 c-3 -8 -6 -5 -6 6 -1 11 2 17 5 13 3 -3 4 -12 1 -19z
m-117 -88 c0 -5 -4 -10 -10 -10 -5 0 -10 5 -10 10 0 6 5 10 10 10 6 0 10 -4
10 -10z m1387 -52 c-3 -7 -17 -44 -32 -83 -28 -74 -32 -82 -58 -130 -9 -16
-37 -77 -63 -135 -69 -158 -80 -181 -169 -365 -191 -394 -446 -885 -481 -926
-8 -8 -14 -19 -14 -22 0 -11 -106 -164 -145 -209 -19 -23 -35 -37 -35 -31 0 5
9 21 21 34 43 49 172 258 259 419 113 210 510 1019 510 1040 0 6 6 21 14 33 8
12 33 65 56 117 23 52 56 124 72 160 17 36 35 75 41 88 11 23 33 32 24 10z
m-1277 -18 c0 -5 -5 -10 -11 -10 -5 0 -7 5 -4 10 3 6 8 10 11 10 2 0 4 -4 4
-10z m60 -59 c0 -11 -4 -23 -10 -26 -6 -4 -10 5 -10 19 0 14 5 26 10 26 6 0
10 -9 10 -19z m-130 -10 c0 -6 -4 -13 -10 -16 -5 -3 -10 1 -10 9 0 9 5 16 10
16 6 0 10 -4 10 -9z m1380 -20 c0 -6 -4 -13 -10 -16 -5 -3 -10 1 -10 9 0 9 5
16 10 16 6 0 10 -4 10 -9z m62 -33 c-7 -7 -12 -8 -12 -2 0 14 12 26 19 19 2
-3 -1 -11 -7 -17z m-1362 2 c0 -5 -7 -10 -15 -10 -8 0 -15 5 -15 10 0 6 7 10
15 10 8 0 15 -4 15 -10z m1266 -34 c-9 -14 -16 -30 -16 -37 0 -6 -8 -27 -17
-46 -15 -33 -15 -36 0 -48 25 -18 21 -25 -8 -12 -14 7 -25 17 -25 23 0 18 71
157 77 151 3 -4 -2 -18 -11 -31z m-1288 -22 c-10 -10 -28 6 -28 24 0 15 1 15
17 -1 9 -9 14 -19 11 -23z m1362 -4 c0 -5 -5 -10 -11 -10 -5 0 -7 5 -4 10 3 6
8 10 11 10 2 0 4 -4 4 -10z m1780 0 c0 -5 -4 -10 -9 -10 -6 0 -13 5 -16 10 -3
6 1 10 9 10 9 0 16 -4 16 -10z m-3140 -150 c0 -5 -4 -10 -10 -10 -5 0 -10 5
-10 10 0 6 5 10 10 10 6 0 10 -4 10 -10z m1157 -120 c-13 -19 -15 -19 -21 -4
-4 10 1 25 11 37 15 16 18 17 21 3 2 -8 -3 -25 -11 -36z m713 6 c0 -3 -4 -8
-10 -11 -5 -3 -10 -1 -10 4 0 6 5 11 10 11 6 0 10 -2 10 -4z m-820 -236 c0 -5
-2 -10 -4 -10 -3 0 -8 5 -11 10 -3 6 -1 10 4 10 6 0 11 -4 11 -10z m2135 -50
c3 -5 1 -10 -4 -10 -6 0 -11 5 -11 10 0 6 2 10 4 10 3 0 8 -4 11 -10z m-2082
-35 c-20 -41 -22 -41 -16 3 3 18 11 32 19 32 11 0 10 -7 -3 -35z m-51 -97 c-7
-7 -12 -8 -12 -2 0 14 12 26 19 19 2 -3 -1 -11 -7 -17z m-41 -89 c-25 -41 -27
-30 -4 19 9 19 18 31 20 25 2 -6 -5 -26 -16 -44z m999 26 c0 -8 -4 -15 -10
-15 -5 0 -7 7 -4 15 4 8 8 15 10 15 2 0 4 -7 4 -15z m1055 -85 c3 -5 1 -10 -4
-10 -6 0 -11 5 -11 10 0 6 2 10 4 10 3 0 8 -4 11 -10z m13 -72 c18 -18 15 -23
-13 -23 -14 0 -25 1 -25 2 0 1 3 8 6 17 7 19 16 20 32 4z m-13 -77 c3 -5 1
-12 -4 -15 -5 -3 -7 -16 -3 -28 3 -14 2 -19 -6 -14 -7 4 -12 2 -12 -3 0 -6 -7
-11 -15 -11 -23 0 -18 17 8 25 19 6 19 8 5 12 -18 4 -24 24 -11 36 9 10 31 9
38 -2z m70 -21 c3 -6 -1 -7 -9 -4 -18 7 -21 14 -7 14 6 0 13 -4 16 -10z m-835
-20 c0 -5 -4 -10 -10 -10 -5 0 -10 5 -10 10 0 6 5 10 10 10 6 0 10 -4 10 -10z
m840 -35 c0 -8 -4 -15 -10 -15 -5 0 -10 7 -10 15 0 8 5 15 10 15 6 0 10 -7 10
-15z m-100 -35 c0 -5 -7 -10 -15 -10 -8 0 -15 5 -15 10 0 6 7 10 15 10 8 0 15
-4 15 -10z m-25 -62 c-12 -82 -32 -132 -66 -169 -45 -49 -72 -52 -30 -4 17 20
31 40 31 46 0 6 10 31 22 57 13 26 23 52 24 57 1 14 15 45 20 45 3 0 2 -15 -1
-32z m122 7 c10 -22 9 -25 -7 -25 -10 0 -20 -5 -22 -12 -7 -20 -26 1 -21 22 3
11 9 17 14 14 5 -3 9 2 9 10 0 24 14 19 27 -9z m-762 -5 c-3 -5 -12 -10 -18
-10 -7 0 -6 4 3 10 19 12 23 12 15 0z m685 -139 c0 -6 -4 -13 -10 -16 -5 -3
-10 1 -10 9 0 9 5 16 10 16 6 0 10 -4 10 -9z m-420 -66 c0 -8 -7 -15 -15 -15
-16 0 -20 12 -8 23 11 12 23 8 23 -8z m370 -35 c0 -5 -4 -10 -10 -10 -5 0 -10
5 -10 10 0 6 5 10 10 10 6 0 10 -4 10 -10z"/>
<path d="M10347 5943 c-4 -3 -7 -34 -7 -69 0 -41 -6 -73 -17 -93 -14 -23 -15
-33 -6 -42 8 -8 15 -2 28 25 10 20 20 36 24 36 3 0 5 14 5 30 -1 17 -2 50 -3
75 -1 42 -9 54 -24 38z"/>
<path d="M10445 5894 c-13 -29 -15 -42 -6 -60 l11 -24 40 21 c28 15 39 26 36
36 -4 8 -9 25 -12 37 -3 14 -14 22 -29 24 -17 1 -27 -7 -40 -34z"/>
<path d="M10182 5868 c-10 -37 1 -68 23 -68 10 0 15 11 15 34 0 19 6 36 13 39
15 5 9 13 -20 21 -19 6 -23 2 -31 -26z"/>
<path d="M10541 5854 c0 -11 3 -14 6 -6 3 7 2 16 -1 19 -3 4 -6 -2 -5 -13z"/>
<path d="M9340 5624 c0 -15 -8 -24 -25 -28 -14 -4 -25 -13 -25 -22 0 -8 4 -13
9 -10 5 3 8 -9 7 -27 -1 -30 1 -32 38 -35 22 -2 36 1 32 6 -3 5 3 17 13 26 12
11 17 26 14 44 -3 25 -3 26 6 5 8 -18 19 -23 45 -23 19 0 37 -4 40 -9 9 -13
46 -1 46 15 0 8 -6 14 -13 14 -8 0 -26 13 -40 30 -25 28 -28 28 -54 15 -28
-15 -72 -10 -85 9 -5 6 -8 2 -8 -10z"/>
<path d="M9202 5580 c0 -19 2 -27 5 -17 2 9 2 25 0 35 -3 9 -5 1 -5 -18z"/>
<path d="M9415 5540 c3 -5 8 -10 11 -10 2 0 4 5 4 10 0 6 -5 10 -11 10 -5 0
-7 -4 -4 -10z"/>
<path d="M10218 5348 c-2 -16 -14 -26 -43 -34 -31 -9 -36 -13 -22 -19 9 -4 17
-12 17 -18 0 -17 50 -77 65 -77 7 0 17 -15 20 -32 4 -18 11 -37 15 -43 4 -5
11 -21 15 -35 4 -14 13 -38 20 -55 25 -59 29 -70 32 -100 6 -72 7 -475 1 -478
-4 -1 -10 -20 -13 -42 -3 -22 -9 -65 -14 -95 -5 -30 -7 -60 -4 -67 7 -18 -54
-74 -72 -66 -9 3 -14 10 -12 17 8 25 -48 38 -165 37 -64 -1 -119 3 -122 8 -4
5 -25 12 -49 16 -23 4 -48 12 -56 19 -8 6 -16 10 -18 8 -2 -2 -40 15 -84 38
-45 22 -87 40 -93 40 -13 0 -86 73 -86 86 0 19 -47 74 -62 74 -10 0 -18 7 -18
15 0 8 -5 15 -11 15 -6 0 -8 7 -5 16 4 9 1 22 -5 30 -12 15 -3 198 11 224 2 3
3 12 4 20 2 22 33 24 39 3 3 -12 5 -8 6 10 0 15 6 27 11 27 6 0 15 10 20 23
20 44 83 115 126 140 25 14 118 26 128 16 16 -15 24 -10 28 14 3 22 7 23 83
26 22 1 26 4 17 13 -17 17 -15 28 5 28 11 0 -1 14 -31 35 -27 19 -59 35 -71
35 -12 0 -25 3 -28 7 -8 7 -32 11 -130 19 -132 11 -348 -46 -403 -107 -9 -10
-22 -19 -28 -19 -17 -1 -73 -56 -91 -89 -8 -17 -19 -31 -24 -31 -5 0 -14 -12
-20 -27 -6 -16 -22 -47 -35 -70 -13 -23 -21 -44 -18 -47 2 -3 0 -11 -6 -18
-15 -18 -23 -146 -9 -151 7 -2 7 -9 2 -18 -10 -16 -7 -68 4 -84 5 -5 14 -32
21 -59 11 -40 28 -64 95 -130 73 -73 166 -136 200 -136 7 0 24 -9 38 -20 14
-11 32 -20 40 -20 8 0 20 -7 27 -15 7 -8 23 -15 36 -15 12 0 25 -4 28 -9 3 -4
27 -14 53 -21 27 -7 82 -24 123 -37 100 -32 258 -44 272 -20 7 14 12 15 28 4
16 -9 24 -9 40 1 11 6 30 12 42 12 13 0 41 7 63 15 22 8 55 14 73 15 29 0 32
-3 32 -28 0 -15 -4 -32 -9 -37 -17 -19 -23 -55 -9 -55 8 0 29 30 47 68 19 37
38 75 43 85 5 10 6 22 2 28 -3 5 -2 15 3 22 13 17 30 82 38 142 3 28 8 66 11
85 19 138 25 239 21 328 -6 96 -5 102 14 102 10 0 19 -6 19 -14 0 -8 5 -16 12
-18 9 -3 10 -16 2 -51 -6 -25 -8 -44 -4 -42 14 9 21 -40 22 -148 0 -59 -4
-113 -10 -120 -5 -6 -13 -37 -17 -67 -6 -53 -21 -119 -33 -150 -3 -8 -7 -19
-7 -25 -2 -11 -21 -60 -35 -90 -26 -55 -60 -139 -60 -147 0 -6 -20 -30 -45
-55 -25 -24 -45 -49 -45 -55 0 -5 -11 -23 -25 -40 -14 -16 -25 -27 -25 -23 0
12 40 83 55 99 12 12 14 20 5 36 -13 25 -26 26 -33 3 -9 -29 -75 -145 -85
-152 -5 -3 -24 -33 -41 -66 -18 -33 -43 -71 -56 -85 -46 -47 -95 -102 -95
-105 0 -2 10 -5 23 -7 12 -2 26 -13 32 -25 5 -13 12 -23 15 -23 3 0 30 15 60
32 30 18 62 32 70 33 9 0 16 12 18 32 2 20 12 37 26 47 13 8 33 31 45 50 14
22 35 39 58 47 33 10 35 14 30 44 -6 36 4 45 47 45 16 0 25 9 35 36 11 32 11
37 -6 50 -17 13 -16 14 9 8 37 -8 68 4 68 27 0 11 7 22 15 25 8 4 15 17 15 30
0 15 8 28 19 32 65 25 153 226 187 430 24 144 17 401 -13 420 -8 6 -24 49 -27
74 -1 4 -7 13 -13 20 -7 6 -13 17 -13 23 0 23 -32 75 -46 75 -9 0 -14 10 -14
28 0 28 -26 62 -47 62 -6 0 -13 10 -16 23 -8 28 -93 101 -112 93 -9 -3 -12 0
-8 9 6 16 -33 35 -73 35 -13 0 -24 5 -24 10 0 6 -11 10 -24 10 -18 0 -26 -6
-28 -22z m129 -54 c-3 -3 -12 -4 -19 -1 -8 3 -5 6 6 6 11 1 17 -2 13 -5z m63
-198 c0 -7 -8 -20 -17 -27 -15 -12 -16 -12 -10 4 4 10 7 23 7 28 0 5 5 9 10 9
6 0 10 -6 10 -14z m-870 -136 c0 -5 -2 -10 -4 -10 -3 0 -8 5 -11 10 -3 6 -1
10 4 10 6 0 11 -4 11 -10z m-354 -82 c-11 -76 -12 -82 -25 -126 -6 -23 -9 -47
-6 -52 3 -6 1 -10 -6 -10 -6 0 -9 -8 -6 -20 4 -16 0 -20 -19 -20 -20 0 -24 5
-24 29 0 17 -4 32 -9 35 -17 11 34 149 70 189 24 27 31 19 25 -25z m1354 3 c0
-6 -4 -13 -10 -16 -5 -3 -10 1 -10 9 0 9 5 16 10 16 6 0 10 -4 10 -9z m-1100
-18 c0 -5 -5 -26 -11 -48 -7 -22 -13 -56 -14 -75 -6 -76 -18 -140 -26 -140 -7
0 -11 20 -24 138 -5 43 -3 52 10 52 10 0 15 9 15 28 0 15 5 33 12 40 13 13 38
16 38 5z m-181 -187 c-9 -8 -10 -5 -5 14 3 14 7 34 7 45 1 11 4 5 6 -14 3 -19
-1 -39 -8 -45z m1297 -70 c-4 -23 -9 -72 -11 -111 -6 -77 -21 -141 -34 -149
-5 -3 -12 -23 -16 -43 -7 -40 -21 -63 -37 -63 -10 0 0 69 12 85 12 15 40 247
33 273 -3 13 -1 22 6 22 6 0 11 8 11 18 0 26 11 34 27 20 11 -8 13 -24 9 -52z
m-1441 24 c3 -5 2 -10 -4 -10 -5 0 -13 5 -16 10 -3 6 -2 10 4 10 5 0 13 -4 16
-10z m1535 -66 c-5 -19 -12 -39 -16 -42 -4 -4 -4 1 -1 11 4 10 7 32 7 48 0 17
4 28 9 25 5 -3 5 -22 1 -42z m-13 -91 c-3 -10 -5 -4 -5 12 0 17 2 24 5 18 2
-7 2 -21 0 -30z m-11 -91 c-12 -11 -16 6 -9 39 l8 34 3 -33 c2 -19 1 -36 -2
-40z m-32 -87 c-9 -31 -22 -58 -27 -62 -6 -4 -8 0 -5 8 3 8 14 40 24 71 11 32
21 53 22 47 2 -5 -4 -34 -14 -64z m-199 -285 c3 -5 2 -10 -4 -10 -5 0 -13 5
-16 10 -3 6 -2 10 4 10 5 0 13 -4 16 -10z m-327 -332 c19 -19 14 -30 -8 -18
-11 6 -20 15 -20 20 0 14 14 12 28 -2z m-78 -108 c0 -5 -4 -10 -10 -10 -5 0
-10 5 -10 10 0 6 5 10 10 10 6 0 10 -4 10 -10z"/>
<path d="M2528 5335 c-3 -3 -12 -8 -20 -9 -14 -3 -96 -39 -143 -64 -16 -8 -46
-28 -66 -44 -20 -15 -41 -28 -46 -28 -4 0 -51 -43 -103 -95 -57 -57 -103 -95
-115 -95 -13 0 -32 18 -54 50 -40 58 -120 140 -137 140 -7 0 -14 3 -16 8 -2 4
-28 19 -58 34 -59 29 -127 35 -277 22 -68 -6 -73 -8 -85 -35 -7 -16 -18 -29
-24 -29 -7 0 -17 -12 -23 -27 -6 -16 -15 -35 -20 -43 -16 -27 -30 -64 -37
-100 -3 -19 -10 -39 -14 -45 -4 -5 -10 -25 -14 -44 -3 -19 -11 -41 -18 -48 -6
-8 -13 -22 -14 -31 -4 -29 -10 -46 -21 -67 -6 -11 -16 -38 -23 -60 -7 -22 -16
-44 -20 -50 -4 -5 -12 -26 -18 -45 -14 -48 -61 -178 -78 -217 -8 -17 -14 -40
-14 -52 0 -12 -4 -21 -10 -21 -5 0 -10 -11 -10 -24 0 -14 -4 -27 -9 -30 -5 -4
-12 -24 -16 -46 -4 -22 -10 -40 -15 -40 -4 0 -10 -18 -14 -40 -3 -23 -10 -49
-15 -58 -4 -9 -14 -30 -22 -47 l-15 -30 -114 -3 c-63 -1 -119 -7 -124 -12 -6
-6 -35 -10 -65 -10 -31 -1 -87 -5 -126 -11 -74 -10 -100 -14 -180 -24 -27 -4
-59 -10 -70 -15 -11 -5 -50 -12 -87 -15 -37 -4 -70 -11 -73 -16 -4 -5 -17 -9
-30 -9 -24 0 -65 -45 -65 -72 1 -24 27 -48 53 -48 13 0 27 -6 30 -14 8 -19
103 -40 122 -26 6 4 87 8 180 9 94 2 184 5 200 7 17 3 53 7 80 9 28 2 82 7
121 11 39 4 74 3 77 -2 4 -8 -26 -148 -40 -184 -3 -8 -5 -19 -4 -24 1 -4 -2
-13 -7 -20 -17 -22 -44 -167 -39 -203 11 -67 21 -61 42 28 20 83 44 173 61
227 8 23 14 54 14 67 0 14 4 25 9 25 5 0 12 17 16 38 8 45 21 62 47 62 16 0
19 -5 15 -22 -19 -77 -29 -115 -36 -128 -5 -9 -12 -31 -16 -50 -4 -19 -11 -41
-15 -50 -5 -8 -22 -69 -39 -134 l-32 -120 21 -20 21 -21 5 22 c6 23 29 37 45
27 6 -3 16 0 24 6 8 7 26 9 39 6 20 -5 29 0 45 23 12 16 21 35 21 43 0 8 4 18
9 24 6 5 11 21 13 35 2 15 9 33 15 40 11 14 37 84 91 244 15 44 29 82 33 85 3
3 8 12 11 21 4 11 24 18 65 22 71 7 234 -2 249 -15 7 -5 29 -8 50 -8 42 1 109
-8 134 -17 8 -3 34 -5 58 -4 24 2 48 -2 55 -7 7 -6 37 -13 67 -16 129 -14 168
-17 229 -19 62 -3 65 -4 72 -31 5 -16 6 -33 4 -37 -3 -4 2 -9 10 -13 10 -3 15
-19 15 -45 0 -42 17 -91 32 -91 4 0 8 -7 8 -16 0 -46 225 -201 277 -191 13 2
26 0 29 -5 3 -5 14 -6 24 -3 11 3 20 0 24 -10 3 -9 10 -14 15 -11 4 3 23 1 42
-4 19 -6 84 -11 144 -12 61 0 122 -5 138 -9 20 -6 27 -4 27 7 0 15 26 19 34 5
3 -5 43 -8 88 -6 46 2 173 7 283 11 288 10 288 10 425 18 69 4 132 10 140 14
8 3 31 6 50 7 19 1 60 10 90 19 30 9 75 22 100 27 25 6 55 15 68 21 24 12 31
48 9 48 -8 0 -22 9 -33 21 -17 19 -27 20 -174 18 -85 -2 -159 -6 -165 -9 -5
-3 -30 -5 -55 -6 -72 -1 -734 -5 -740 -4 -3 1 -39 2 -80 4 -92 5 -186 14 -220
23 -14 3 -27 7 -30 7 -25 5 -81 35 -108 58 -18 15 -36 28 -40 28 -14 0 -31 55
-37 120 -10 99 38 277 83 306 41 26 62 51 56 67 -3 8 3 21 14 28 26 19 43 54
36 73 -4 11 -2 15 7 11 8 -3 24 10 39 32 14 20 42 54 63 76 20 21 37 41 37 43
0 5 17 24 99 112 44 47 68 81 68 95 -1 12 2 38 6 57 6 34 5 36 -49 73 -30 20
-65 37 -77 37 -13 0 -28 5 -35 12 -9 9 -90 13 -290 16 -152 2 -284 6 -292 9
-8 3 -26 7 -40 8 -14 2 -35 6 -48 10 -21 7 -23 12 -17 49 4 22 14 52 22 65 8
13 10 20 4 17 -6 -4 -11 -2 -11 4 0 6 12 15 26 20 15 6 24 16 21 24 -3 7 7 20
24 30 16 9 29 23 29 30 0 6 18 29 40 51 30 30 37 42 30 55 -8 14 -5 18 16 18
17 0 38 13 63 39 25 28 49 42 76 47 21 4 50 16 64 27 14 11 32 17 43 14 13 -5
18 -1 18 12 0 40 -16 47 -112 51 -51 2 -96 1 -100 -3z m-68 -219 c0 -2 -8 -10
-17 -17 -16 -13 -17 -12 -4 4 13 16 21 21 21 13z m-1045 -88 c-9 -29 -23 -66
-30 -83 -8 -16 -18 -46 -24 -65 -15 -53 -40 -120 -61 -166 -10 -23 -22 -55
-26 -70 -4 -16 -10 -33 -14 -39 -4 -5 -11 -26 -15 -45 -4 -19 -11 -39 -15 -45
-4 -5 -11 -26 -15 -45 -4 -19 -11 -41 -16 -50 -12 -20 -58 -155 -71 -205 -6
-22 -14 -44 -19 -50 -4 -5 -10 -27 -14 -48 -4 -20 -11 -40 -16 -43 -5 -3 -7
-9 -4 -14 3 -4 -1 -13 -9 -19 -18 -15 -49 -2 -43 18 15 50 99 288 106 301 5 9
12 31 16 50 4 19 10 40 14 45 3 6 6 12 7 15 6 33 18 70 28 90 8 14 17 43 21
65 4 22 10 45 15 50 13 17 62 159 62 178 -1 9 3 17 9 17 5 0 9 8 9 18 0 41 49
152 83 190 32 35 43 12 22 -50z m205 -27 c0 -5 -6 -14 -14 -20 -12 -10 -13 -8
-9 8 5 21 23 30 23 12z m510 -1 c0 -5 -5 -10 -11 -10 -5 0 -7 5 -4 10 3 6 8
10 11 10 2 0 4 -4 4 -10z m-477 -28 c-3 -14 4 -22 26 -32 18 -7 31 -20 31 -30
0 -9 9 -29 20 -43 11 -14 20 -28 20 -31 0 -3 24 -57 53 -119 30 -61 62 -132
71 -157 20 -48 78 -177 101 -223 8 -16 15 -35 15 -43 0 -8 11 -35 24 -62 49
-99 67 -145 59 -153 -5 -5 -52 -11 -104 -14 -51 -3 -101 -7 -109 -10 -8 -3
-49 -7 -90 -10 -41 -3 -88 -8 -105 -11 -16 -3 -96 -8 -177 -11 -127 -4 -149
-3 -154 10 -3 9 -12 13 -20 10 -10 -4 -8 8 8 47 15 36 24 47 30 38 5 -8 7 -4
3 12 -3 14 1 41 9 60 8 19 15 28 16 20 0 -13 1 -13 10 0 13 21 12 43 -1 34 -7
-4 -10 -1 -7 7 3 8 10 13 14 12 5 -1 9 16 9 37 0 21 6 48 12 61 6 13 39 103
73 199 35 96 67 177 71 178 5 2 9 19 9 37 0 19 5 37 10 40 6 3 10 20 10 36 0
18 9 39 23 53 13 13 21 28 19 35 -5 16 5 41 17 41 5 0 7 -8 4 -18z m-63 -36
c0 -13 -7 -26 -14 -29 -10 -4 -13 -1 -10 9 2 7 6 21 9 29 7 23 15 18 15 -9z
m510 9 c-7 -9 -15 -13 -19 -10 -3 3 1 10 9 15 21 14 24 12 10 -5z m-660 -135
c0 -11 -7 -20 -15 -20 -13 0 -14 4 -5 20 6 11 13 20 15 20 3 0 5 -9 5 -20z
m748 -245 c-3 -3 -9 2 -12 12 -6 14 -5 15 5 6 7 -7 10 -15 7 -18z m494 6 c4
-3 -26 -40 -66 -81 -40 -41 -105 -114 -145 -162 -39 -49 -76 -88 -81 -88 -12
0 -58 96 -66 138 -6 30 -34 46 -34 20 0 -6 -3 -9 -6 -6 -3 4 0 16 6 28 12 22
12 21 -35 125 -8 16 -12 32 -9 36 5 9 426 -1 436 -10z m-1246 -48 c-11 -11
-19 6 -11 24 8 17 8 17 12 0 3 -10 2 -21 -1 -24z m1394 -277 c0 -3 -4 -8 -10
-11 -5 -3 -10 -1 -10 4 0 6 5 11 10 11 6 0 10 -2 10 -4z m-353 -101 c-4 -8
-11 -15 -17 -15 -14 0 -13 27 3 33 16 6 21 1 14 -18z m166 -166 c-1 -8 -10
-39 -19 -69 -9 -30 -22 -80 -29 -110 -9 -43 -16 -55 -31 -55 -15 0 -18 6 -16
26 1 17 -3 29 -13 33 -20 7 -19 29 2 74 18 39 61 102 78 114 14 11 30 3 28
-13z m-184 -176 c0 -5 -4 -17 -9 -28 -8 -18 -9 -17 -9 8 -1 15 4 27 9 27 6 0
10 -3 9 -7z m-108 -33 c6 -27 -14 -60 -38 -60 -14 0 -19 70 -6 84 14 13 37 1
44 -24z m-1186 -33 c-19 -64 -38 -95 -29 -47 8 42 32 105 39 99 2 -3 -2 -26
-10 -52z m-35 -107 c0 -5 -2 -10 -4 -10 -3 0 -8 5 -11 10 -3 6 -1 10 4 10 6 0
11 -4 11 -10z m-49 -137 c-8 -15 -10 -15 -11 -2 0 17 10 32 18 25 2 -3 -1 -13
-7 -23z m-26 -79 c-15 -15 -15 -14 -9 12 10 42 19 52 22 26 2 -12 -4 -29 -13
-38z"/>
<path d="M1330 4079 c0 -5 5 -7 10 -4 6 3 10 8 10 11 0 2 -4 4 -10 4 -5 0 -10
-5 -10 -11z"/>
<path d="M8122 3200 c-32 -66 -57 -102 -94 -135 -28 -25 -45 -45 -38 -45 35 0
138 119 140 160 0 9 11 32 25 52 25 37 32 58 18 58 -5 -1 -28 -41 -51 -90z"/>
</g>
</svg>
