<?xml version="1.0" standalone="no"?>
<!DOCTYPE svg PUBLIC "-//W3C//DTD SVG 20010904//EN"
 "http://www.w3.org/TR/2001/REC-SVG-20010904/DTD/svg10.dtd">
<svg version="1.0" xmlns="http://www.w3.org/2000/svg"
 width="1080.000000pt" height="1080.000000pt" viewBox="0 0 1080.000000 1080.000000"
 preserveAspectRatio="xMidYMid meet">

<g transform="translate(0.000000,1080.000000) scale(0.100000,-0.100000)"
fill="#000000" stroke="none">
<path d="M3786 8129 c-31 -35 -38 -39 -57 -29 -13 8 -19 8 -15 2 4 -6 1 -14
-7 -19 -17 -11 -47 -59 -47 -76 0 -7 -18 -28 -40 -46 -22 -17 -40 -38 -40 -45
0 -7 -11 -25 -25 -40 -14 -15 -25 -38 -25 -51 0 -13 -4 -27 -10 -30 -18 -11
-10 -30 19 -48 16 -9 38 -17 48 -17 27 0 75 53 71 78 -2 14 13 36 51 71 43 40
57 48 75 42 17 -7 21 -17 22 -57 0 -27 3 -58 7 -69 8 -25 -1 -38 -37 -50 -20
-7 -33 -22 -45 -50 -9 -23 -25 -54 -37 -70 -22 -31 -72 -134 -94 -195 -8 -19
-19 -44 -27 -54 -7 -11 -10 -30 -7 -42 4 -16 0 -26 -15 -34 -12 -6 -21 -19
-21 -29 0 -10 -7 -32 -15 -47 -8 -16 -15 -39 -15 -50 0 -24 -7 -38 -68 -140
-23 -39 -51 -94 -61 -123 -10 -29 -23 -57 -30 -64 -6 -6 -11 -18 -11 -27 0 -9
-7 -25 -15 -36 -8 -10 -15 -29 -15 -42 0 -12 -4 -30 -10 -40 -29 -52 -60 -138
-54 -154 4 -13 -2 -28 -16 -43 -12 -13 -24 -41 -27 -64 -3 -24 -11 -41 -19
-41 -21 0 -74 -130 -74 -182 0 -15 -10 -34 -22 -45 -13 -10 -33 -45 -46 -78
-13 -33 -30 -75 -38 -93 -8 -18 -14 -46 -14 -62 0 -17 -4 -30 -10 -30 -13 0
-40 -65 -40 -96 0 -13 -9 -28 -19 -34 -11 -5 -25 -27 -32 -47 -6 -21 -24 -65
-39 -98 -15 -33 -33 -78 -40 -100 -7 -22 -17 -52 -23 -68 -7 -19 -6 -31 3 -42
14 -17 5 -35 -18 -35 -18 0 -36 -32 -48 -85 -24 -105 -87 -147 -133 -89 -16
21 -19 35 -14 72 3 26 12 54 19 63 8 8 14 20 14 25 0 8 29 73 66 145 8 15 15
35 17 45 2 11 17 49 35 85 18 37 32 72 32 78 0 6 9 28 20 48 11 21 20 50 20
64 0 14 9 38 20 52 11 14 20 37 20 52 0 27 43 127 68 157 8 9 15 33 17 53 2
20 12 48 22 63 10 15 25 47 34 72 8 25 32 79 52 121 20 42 37 81 37 86 0 5 11
32 25 59 14 27 23 55 20 63 -3 8 2 22 11 33 20 22 74 145 74 169 0 9 9 24 19
33 22 20 57 91 90 181 27 72 34 86 66 144 14 24 25 55 25 67 0 13 11 43 25 68
14 25 25 51 25 59 0 8 9 22 20 32 11 10 20 31 20 46 0 16 7 32 17 38 14 8 15
12 4 25 -7 9 -24 16 -37 16 -13 0 -24 4 -24 8 0 13 45 52 59 52 6 0 22 9 34
21 21 19 21 21 5 33 -10 7 -18 18 -18 23 0 6 -6 16 -13 22 -17 13 -40 -26 -46
-74 0 -6 -14 -18 -30 -28 -21 -12 -28 -22 -24 -37 3 -11 -2 -31 -11 -45 -9
-13 -16 -39 -16 -56 0 -29 -40 -98 -62 -107 -4 -2 -8 -10 -8 -17 0 -8 -9 -19
-21 -26 -15 -8 -20 -18 -16 -35 2 -13 -2 -32 -9 -41 -7 -10 -14 -33 -14 -50 0
-23 -7 -37 -25 -49 -16 -10 -25 -26 -25 -42 0 -14 -14 -54 -30 -89 -19 -41
-28 -72 -24 -85 4 -14 -2 -28 -19 -46 -26 -29 -53 -84 -97 -202 -7 -19 -19
-42 -27 -51 -7 -8 -13 -28 -13 -42 0 -15 -4 -35 -9 -45 -30 -57 -120 -253
-130 -283 -6 -19 -11 -45 -11 -57 0 -12 -13 -41 -30 -64 -16 -22 -30 -52 -30
-65 0 -13 -4 -31 -9 -41 -5 -9 -17 -34 -25 -54 -9 -20 -21 -40 -26 -43 -6 -3
-10 -16 -10 -29 0 -13 -11 -44 -25 -70 -14 -26 -25 -60 -25 -77 0 -16 -4 -29
-9 -29 -12 0 -41 -58 -41 -82 0 -10 -15 -47 -34 -81 -33 -60 -55 -144 -52
-197 1 -18 -5 -26 -19 -28 -12 -2 -26 -16 -34 -34 -8 -17 -22 -39 -33 -50 -22
-22 -81 -24 -98 -3 -7 8 -16 13 -20 10 -20 -12 -142 -7 -158 7 -11 9 -46 15
-101 17 -65 2 -87 6 -97 19 -10 14 -14 14 -28 3 -13 -11 -20 -11 -28 -3 -17
17 -32 15 -59 -9 -22 -19 -24 -19 -37 -2 -10 14 -27 18 -71 18 -33 1 -65 6
-72 12 -9 7 -78 11 -184 12 -131 2 -173 5 -185 16 -13 12 -61 15 -246 15 -126
0 -243 0 -261 0 -17 0 -34 4 -37 8 -8 13 -306 16 -306 3 0 -16 -81 -18 -97 -2
-12 11 -19 12 -34 3 -10 -7 -27 -12 -36 -12 -21 0 -113 -101 -113 -123 0 -8
-7 -20 -15 -27 -14 -12 -14 -15 1 -32 10 -10 18 -26 19 -36 3 -42 25 -62 66
-62 36 0 41 -3 54 -34 14 -34 53 -66 79 -66 7 0 16 -7 20 -15 3 -10 19 -15 44
-15 21 0 43 -5 48 -10 6 -6 36 -12 66 -13 30 -1 62 -8 70 -14 11 -10 17 -10
26 -1 9 9 15 9 24 0 8 -8 46 -12 105 -12 77 0 94 -3 102 -17 8 -15 13 -16 30
-6 13 8 22 9 26 3 4 -6 66 -10 149 -10 90 0 146 -4 153 -11 8 -8 107 -11 325
-10 263 1 315 4 324 16 14 19 31 19 67 0 21 -11 67 -15 173 -16 127 -1 144 -3
144 -17 0 -10 -7 -26 -15 -36 -8 -11 -15 -28 -15 -38 0 -20 -19 -59 -34 -70
-6 -4 -5 -12 2 -21 9 -11 5 -29 -22 -84 -19 -39 -38 -92 -42 -119 -4 -27 -18
-68 -30 -91 -13 -23 -24 -53 -24 -66 0 -14 -7 -28 -16 -31 -11 -4 -14 -14 -9
-34 4 -22 0 -33 -20 -50 -14 -12 -25 -30 -25 -40 0 -10 -7 -27 -15 -38 -8 -10
-15 -33 -15 -50 0 -17 -7 -37 -16 -45 -9 -7 -13 -21 -10 -33 3 -12 -2 -30 -10
-40 -8 -11 -14 -32 -14 -47 0 -15 -7 -29 -15 -33 -9 -3 -15 -18 -15 -35 0 -16
-4 -33 -10 -36 -5 -3 -10 -17 -10 -30 0 -12 -7 -25 -15 -29 -10 -3 -15 -19
-15 -45 0 -22 -4 -43 -10 -46 -5 -3 -10 -17 -10 -29 0 -13 -7 -29 -15 -36 -10
-8 -15 -30 -15 -65 0 -41 -5 -57 -24 -76 -17 -18 -23 -35 -24 -72 0 -30 -6
-55 -16 -66 -10 -11 -16 -36 -16 -69 0 -28 -4 -53 -8 -56 -5 -3 -9 -42 -9 -88
-1 -73 0 -80 11 -56 6 15 19 33 28 40 8 7 28 59 43 116 15 56 31 105 36 108 5
3 6 16 3 29 -4 16 1 37 15 60 12 20 21 42 21 49 0 8 7 19 15 26 8 7 15 23 15
36 0 13 6 38 14 56 21 51 36 102 36 126 0 11 4 23 9 26 5 4 12 25 16 49 4 23
11 47 15 52 15 18 50 114 54 148 6 46 22 83 39 90 8 3 17 21 21 41 4 19 18 55
31 78 14 24 25 55 25 70 0 15 5 30 10 33 6 3 10 19 10 34 0 26 40 121 63 149
6 8 12 31 13 53 1 23 15 59 33 89 17 28 31 60 31 71 0 12 12 44 26 73 55 108
48 101 101 101 43 0 48 -3 51 -24 2 -13 -1 -28 -7 -34 -6 -6 -11 -27 -11 -47
0 -23 -9 -49 -25 -70 -15 -20 -25 -47 -25 -66 0 -45 -16 -85 -44 -109 -22 -19
-58 -100 -76 -173 -4 -18 -12 -38 -18 -45 -5 -7 -13 -23 -17 -37 -4 -14 -20
-53 -36 -88 -16 -35 -27 -67 -24 -72 3 -5 -3 -26 -13 -47 -47 -92 -52 -106
-52 -131 0 -15 -8 -50 -19 -77 -39 -103 -93 -241 -110 -280 -10 -22 -22 -55
-25 -72 -4 -18 -12 -35 -17 -38 -5 -4 -9 -18 -9 -33 0 -15 -7 -36 -15 -46 -8
-11 -15 -29 -15 -41 0 -12 -3 -25 -6 -28 -15 -14 -41 -110 -36 -129 3 -11 -1
-24 -9 -29 -8 -4 -14 -16 -14 -26 0 -10 -13 -26 -30 -37 -29 -19 -30 -22 -33
-109 -2 -81 0 -90 20 -108 30 -25 44 -24 73 5 37 37 81 43 111 15 22 -20 25
-21 41 -7 10 9 35 19 56 22 30 6 42 4 51 -10 12 -15 15 -14 42 10 16 15 36 34
45 42 10 9 19 25 22 37 10 41 45 132 71 184 14 29 26 56 26 59 0 4 15 45 34
93 19 47 48 123 66 169 18 45 37 85 41 88 5 3 9 15 9 28 0 12 4 26 9 31 5 6
23 53 41 105 17 52 35 103 41 112 5 10 9 24 9 31 0 7 13 40 30 72 19 36 28 66
24 80 -3 13 -1 26 5 29 6 4 11 17 11 29 0 12 7 31 15 41 8 11 15 30 15 43 0
13 5 23 10 23 6 0 10 16 10 35 0 22 6 38 15 41 9 4 15 19 15 35 0 16 5 29 10
29 6 0 10 14 10 30 0 18 6 33 15 36 8 4 15 14 15 24 0 10 7 23 15 30 8 7 15
25 15 41 0 16 4 29 9 29 5 0 16 23 26 52 9 29 23 57 32 63 8 6 27 40 43 75 33
75 54 94 74 68 18 -24 31 -23 49 5 14 21 16 21 33 6 11 -9 29 -20 42 -23 12
-4 22 -11 22 -15 0 -4 29 -8 65 -9 l65 -1 -6 27 -6 27 27 -28 c21 -22 33 -27
55 -22 18 4 39 -1 64 -16 20 -12 45 -19 56 -16 11 3 24 -1 31 -9 6 -8 18 -14
26 -14 9 0 37 -8 64 -17 45 -16 49 -16 67 0 25 22 39 21 52 -4 14 -25 68 -49
109 -49 18 0 38 -9 49 -21 15 -15 26 -18 46 -13 17 4 33 1 44 -8 11 -9 47 -15
107 -17 50 -1 95 -6 100 -11 6 -4 37 -16 70 -26 33 -10 67 -24 76 -31 8 -7 30
-13 47 -13 17 0 34 -5 37 -11 4 -6 13 -8 20 -5 19 7 148 -13 159 -24 6 -6 34
-10 64 -10 29 0 63 -5 75 -12 12 -6 59 -12 104 -12 51 -1 87 -6 95 -13 6 -7
20 -13 30 -13 17 0 23 -11 19 -34 -1 -5 4 -16 12 -25 20 -23 47 -81 47 -100 0
-9 11 -25 25 -35 14 -10 25 -25 25 -33 0 -16 220 -243 236 -243 6 0 27 -16 47
-35 20 -19 42 -35 50 -35 8 0 20 -7 27 -15 7 -8 16 -13 20 -10 4 3 23 -9 41
-25 19 -16 43 -30 54 -30 11 0 32 -11 47 -25 15 -14 37 -25 49 -25 12 0 37
-11 55 -25 18 -14 44 -25 57 -25 14 0 30 -7 37 -15 7 -8 27 -15 46 -15 18 0
36 -4 39 -10 3 -5 24 -10 45 -10 21 0 40 -5 42 -12 3 -8 26 -13 61 -13 32 -1
63 -7 69 -13 7 -7 38 -12 69 -12 35 0 61 -5 68 -14 7 -8 34 -13 71 -14 41 -1
65 -6 76 -17 11 -11 20 -13 28 -6 6 5 18 6 25 2 7 -5 52 -6 99 -3 75 4 87 3
99 -14 11 -15 17 -16 33 -6 11 7 21 8 25 2 7 -12 583 -12 590 0 4 6 14 5 25
-3 16 -9 24 -9 43 3 18 12 64 15 240 16 153 0 221 4 229 12 9 9 73 12 219 12
171 0 209 3 219 15 7 8 17 12 24 8 16 -11 76 -11 82 -1 3 5 78 9 167 9 216 0
211 -1 219 12 4 7 11 7 23 -3 12 -10 19 -10 27 -2 8 8 63 12 168 12 86 0 160
4 166 9 15 14 73 21 80 10 4 -7 10 -7 18 0 6 6 68 11 136 12 79 1 128 6 132
13 5 7 47 10 122 9 83 -2 125 2 150 12 20 8 66 15 104 15 38 0 73 5 80 12 8 8
15 8 25 -1 11 -9 17 -8 27 4 7 9 19 14 25 11 7 -2 18 1 24 7 8 8 14 8 23 -1 9
-9 16 -8 30 5 10 9 35 16 58 16 22 0 43 3 45 8 3 4 25 11 50 14 24 4 46 13 49
21 3 9 21 14 49 14 28 0 49 6 57 15 7 9 20 13 27 10 29 -11 58 5 60 33 0 14 6
28 12 30 21 7 11 30 -19 41 -16 5 -30 14 -30 20 0 15 -60 41 -97 41 -21 0 -36
6 -39 15 -9 23 -319 22 -328 -1 -5 -12 -23 -15 -96 -13 -58 1 -95 -3 -104 -11
-11 -8 -59 -11 -160 -11 -93 1 -147 -2 -151 -9 -5 -8 -11 -7 -21 1 -11 9 -17
9 -29 -1 -11 -9 -19 -10 -28 -1 -10 8 -17 7 -25 -1 -8 -8 -15 -8 -26 1 -11 10
-16 9 -23 -3 -7 -13 -50 -16 -308 -16 -196 -1 -304 -5 -312 -12 -9 -7 -17 -7
-26 1 -10 8 -17 7 -26 -2 -9 -9 -14 -9 -21 3 -8 13 -12 13 -32 1 -14 -9 -45
-13 -83 -12 -33 2 -69 2 -80 1 -11 -1 -159 -3 -330 -4 -251 -2 -313 0 -326 11
-13 11 -18 11 -27 0 -12 -15 -145 -13 -150 2 -2 5 -132 10 -294 11 -257 1
-293 3 -303 17 -11 15 -13 15 -24 -3 -11 -18 -11 -18 -25 -1 -12 15 -18 16
-35 8 -12 -7 -22 -7 -26 -2 -3 5 -56 9 -119 9 -83 -1 -119 3 -134 13 -13 10
-40 14 -76 12 -39 -2 -60 2 -71 13 -12 12 -19 13 -29 5 -10 -8 -16 -9 -21 -1
-3 5 -32 10 -64 10 -40 0 -63 5 -71 15 -7 8 -27 15 -46 15 -18 0 -36 5 -39 10
-3 6 -23 10 -45 10 -24 0 -40 5 -44 15 -3 8 -17 15 -32 15 -24 0 -94 42 -102
62 -2 4 -10 8 -17 8 -29 0 -145 91 -145 113 0 8 -11 24 -25 37 -14 13 -25 33
-25 46 0 12 -7 27 -15 34 -9 8 -15 30 -15 56 0 24 -4 44 -10 44 -26 0 2 108
34 131 5 4 6 23 2 43 -4 20 -3 51 3 69 21 71 34 133 33 157 -2 43 8 70 26 70
10 0 23 5 30 12 8 8 15 8 26 -1 15 -13 132 -11 154 2 6 5 18 5 25 0 18 -12 76
-13 83 -2 4 6 11 6 20 -2 11 -9 17 -9 29 1 11 9 19 9 28 2 14 -12 75 -11 95 2
7 4 20 2 29 -6 13 -10 17 -10 20 0 5 14 33 17 33 3 0 -10 141 -8 157 2 7 4 14
4 16 -1 6 -9 1114 -7 1138 3 8 3 28 1 43 -5 40 -15 43 -13 62 26 9 20 24 38
31 41 18 7 43 -17 47 -43 2 -16 14 -20 83 -24 45 -3 87 -11 96 -18 9 -8 36
-13 64 -11 26 1 65 -2 85 -6 44 -9 64 0 47 21 -16 19 -4 29 34 30 98 2 109 4
114 24 5 20 15 24 42 21 7 -2 11 4 9 11 -3 7 -18 14 -34 16 -16 2 -33 8 -39
13 -5 5 -22 9 -37 9 -16 0 -31 7 -34 15 -5 11 -22 15 -69 15 -38 0 -65 4 -67
11 -3 8 -48 14 -126 17 -67 3 -125 9 -128 13 -7 12 -61 11 -69 -1 -10 -15 -55
-12 -61 5 -5 11 -19 14 -64 10 -40 -3 -64 1 -76 10 -25 19 -54 19 -76 -2 -17
-15 -19 -15 -36 0 -14 13 -38 17 -95 17 -42 0 -79 5 -82 10 -5 8 -11 7 -21 -1
-11 -9 -18 -9 -29 1 -20 16 -194 24 -211 9 -7 -6 -19 -7 -25 -3 -7 4 -60 8
-118 9 -70 1 -113 6 -128 15 -16 11 -25 11 -35 2 -11 -9 -18 -9 -27 1 -11 9
-14 9 -18 0 -6 -15 -33 -17 -33 -3 0 6 -135 10 -385 10 -301 0 -385 3 -386 13
-5 44 5 95 24 115 12 13 22 29 22 37 0 7 12 23 28 35 15 12 27 29 27 39 0 9
16 32 35 51 19 19 35 42 35 51 0 10 6 22 14 26 8 4 16 24 18 43 3 31 6 35 36
38 23 2 36 10 42 25 4 12 35 48 68 81 40 38 58 64 54 74 -3 9 -1 13 5 9 15 -9
101 69 105 96 2 14 11 23 25 25 14 2 23 11 25 25 2 13 11 23 24 25 22 3 146
125 157 155 4 12 13 16 24 13 21 -6 149 108 154 139 2 10 17 23 34 28 39 13
82 57 77 80 -2 9 1 17 7 17 6 0 11 -4 11 -10 0 -5 5 -10 10 -10 6 0 10 11 10
25 0 14 4 25 9 25 11 0 43 61 36 68 -3 3 -14 -3 -24 -12 -11 -10 -24 -15 -29
-12 -15 9 -12 137 4 161 13 21 12 25 -29 64 -40 39 -67 58 -107 77 -8 4 -29
18 -46 31 -17 13 -38 23 -48 23 -9 0 -30 13 -46 29 -20 19 -38 27 -50 24 -12
-3 -22 1 -26 11 -4 11 -19 16 -49 16 -24 0 -48 6 -54 14 -7 8 -20 12 -30 9 -9
-2 -23 3 -30 11 -8 9 -28 16 -46 16 -18 0 -38 6 -45 14 -7 10 -30 15 -63 14
-29 0 -53 5 -55 11 -2 6 -21 11 -42 11 -21 0 -43 6 -50 15 -7 8 -29 15 -50 15
-21 0 -43 6 -49 14 -8 9 -25 12 -54 9 -31 -4 -46 -1 -56 11 -7 9 -28 16 -46
16 -18 0 -38 7 -45 15 -9 11 -22 14 -40 10 -18 -4 -31 -1 -40 10 -7 8 -27 15
-45 15 -18 0 -38 7 -45 15 -8 10 -26 15 -48 13 -21 -1 -37 3 -40 10 -2 7 -19
12 -37 12 -21 0 -38 6 -43 16 -7 12 -17 15 -33 11 -14 -4 -30 -1 -39 7 -8 8
-24 16 -35 18 -16 3 -20 12 -23 53 -2 35 2 51 13 57 8 5 15 17 15 27 0 10 11
28 25 41 14 13 25 30 25 37 0 8 8 16 18 20 30 11 62 46 62 69 0 20 4 22 33 17
23 -3 37 0 46 11 7 9 19 16 26 16 7 0 18 7 25 15 17 21 189 105 215 105 12 0
30 7 41 15 10 8 35 15 55 15 20 0 42 7 49 15 7 8 19 15 28 15 9 0 26 10 39 22
17 16 37 23 64 23 39 0 43 4 39 38 -1 10 6 27 15 37 15 17 15 20 0 44 -10 14
-25 26 -35 26 -10 0 -23 7 -30 15 -7 8 -16 13 -20 10 -4 -3 -14 2 -21 11 -22
27 -66 44 -113 44 -25 0 -48 5 -52 11 -4 7 -37 10 -88 9 -44 -2 -85 -2 -91 0
-5 1 -61 1 -124 0 -83 -1 -118 -5 -128 -16 -8 -8 -32 -14 -53 -14 -21 0 -42
-4 -45 -10 -3 -5 -19 -10 -34 -10 -16 0 -41 -6 -56 -14 -15 -8 -33 -12 -40
-10 -6 3 -18 -2 -25 -11 -7 -8 -20 -15 -30 -15 -10 0 -23 -7 -30 -14 -6 -8
-28 -20 -48 -27 -20 -6 -41 -16 -47 -23 -5 -6 -27 -20 -48 -31 -21 -11 -43
-28 -48 -37 -5 -10 -16 -18 -24 -18 -18 0 -168 -103 -215 -147 -52 -49 -110
-56 -110 -14 0 10 -7 24 -15 31 -9 7 -14 19 -11 27 3 8 -1 16 -9 19 -8 4 -15
14 -15 24 0 18 -175 210 -191 210 -5 0 -26 10 -47 23 -20 13 -57 31 -82 42
-25 11 -62 29 -82 42 -28 17 -53 23 -97 23 -33 0 -63 5 -66 10 -3 6 -14 10
-25 10 -10 0 -21 7 -24 16 -6 16 -8 16 -24 0 -21 -18 -131 -23 -148 -6 -6 6
-36 13 -66 15 -54 4 -57 3 -92 -36z m304 -149 c0 -5 -2 -10 -4 -10 -3 0 -8 5
-11 10 -3 6 -1 10 4 10 6 0 11 -4 11 -10z m1110 -120 c0 -5 -4 -10 -10 -10 -5
0 -10 5 -10 10 0 6 5 10 10 10 6 0 10 -4 10 -10z m-1360 -330 c0 -5 -7 -10
-15 -10 -8 0 -15 5 -15 10 0 6 7 10 15 10 8 0 15 -4 15 -10z m1730 -10 c-10
-19 -40 -28 -40 -12 0 13 23 32 37 32 11 0 11 -5 3 -20z m-1500 -36 c0 -13 -4
-32 -9 -42 -5 -9 -19 -37 -32 -62 -50 -101 -51 -102 -63 -90 -8 8 -6 19 6 41
17 28 15 59 -3 59 -5 0 -9 5 -9 10 0 6 11 8 25 4 20 -5 25 -3 25 14 0 11 7 22
15 26 9 3 15 18 15 34 0 16 3 32 6 35 12 11 24 -4 24 -29z m915 -1 c-8 -48
-26 -85 -42 -91 -19 -6 -16 41 4 88 23 53 48 55 38 3z m382 -105 c-3 -8 -6 -5
-6 6 -1 11 2 17 5 13 3 -3 4 -12 1 -19z m-1625 -25 c-8 -46 -42 -75 -42 -36 0
13 36 63 45 63 1 0 0 -12 -3 -27z m388 -2 c0 -10 -17 -54 -39 -97 -21 -44 -53
-110 -70 -149 -18 -38 -36 -79 -41 -90 -19 -41 -29 -73 -23 -79 9 -9 33 14 33
32 0 8 32 79 70 158 39 79 70 148 70 154 0 5 9 14 20 20 15 8 21 8 24 -2 2 -7
12 -39 21 -70 9 -32 21 -60 26 -64 5 -3 9 -15 9 -27 0 -12 7 -31 15 -41 8 -11
15 -28 15 -38 0 -18 3 -25 33 -86 9 -19 17 -39 17 -46 0 -7 11 -34 25 -60 14
-26 25 -56 25 -67 0 -10 4 -27 9 -37 24 -43 41 -87 41 -102 0 -10 7 -23 15
-30 8 -7 15 -21 15 -31 0 -19 2 -26 33 -87 9 -19 17 -40 17 -47 0 -8 9 -19 20
-25 15 -8 18 -17 14 -39 -4 -16 -1 -32 5 -35 6 -4 11 -18 11 -30 0 -13 7 -29
15 -36 8 -7 15 -21 15 -31 0 -10 5 -21 10 -24 6 -3 10 -13 10 -22 0 -9 9 -36
20 -60 11 -24 29 -62 40 -86 11 -24 20 -50 20 -58 0 -8 12 -36 25 -64 14 -27
25 -55 25 -61 0 -10 21 -59 41 -96 5 -10 9 -26 9 -37 0 -10 7 -24 15 -31 8 -7
15 -21 15 -31 0 -10 5 -21 10 -24 6 -3 10 -13 10 -20 0 -13 12 -43 65 -160 7
-16 19 -48 25 -70 7 -22 18 -53 26 -68 8 -16 14 -34 14 -42 0 -7 7 -26 15 -41
28 -54 17 -83 -29 -75 -15 3 -372 1 -610 -4 -137 -2 -229 -8 -247 -16 -22 -8
-33 -9 -43 0 -14 12 -236 13 -255 2 -6 -4 -47 -3 -92 2 -61 7 -87 6 -105 -3
-19 -10 -26 -10 -38 -1 -10 9 -37 11 -83 7 -37 -2 -88 -5 -112 -5 -25 0 -50
-6 -61 -16 -24 -22 -50 -9 -50 26 0 33 -6 36 -32 12 -13 -12 -22 -13 -29 -6
-8 8 -1 32 24 85 55 114 83 179 97 228 12 43 34 99 51 130 18 32 37 77 54 125
10 28 24 59 32 70 7 11 13 28 13 38 0 10 11 35 25 55 14 20 25 42 25 49 0 6 6
24 14 40 8 15 24 55 36 88 12 33 28 72 36 87 8 14 14 33 14 41 0 9 9 31 19 49
11 18 22 44 25 58 2 14 21 54 40 90 20 36 36 75 36 86 0 12 7 27 15 34 8 6 17
22 20 33 4 12 22 60 42 107 19 47 40 96 45 110 6 14 14 32 19 40 5 8 13 24 18
35 31 71 56 122 66 135 6 8 24 47 39 85 16 39 40 95 54 125 14 30 33 71 41 90
28 61 51 80 51 41z m1337 -23 c-3 -8 -6 -5 -6 6 -1 11 2 17 5 13 3 -3 4 -12 1
-19z m-1750 -54 c3 -9 1 -24 -6 -33 -6 -9 -16 -28 -22 -43 -11 -27 -39 -39
-39 -17 0 19 42 109 52 109 5 0 11 -7 15 -16z m243 -16 c-1 -21 -69 -170 -85
-188 -7 -8 -15 -26 -17 -39 -1 -14 -9 -26 -15 -29 -19 -6 -16 47 2 54 8 4 15
11 15 16 0 16 84 188 93 188 4 0 7 -1 7 -2z m-320 -142 c0 -2 -7 -17 -15 -32
-8 -16 -15 -39 -15 -51 0 -14 -6 -23 -15 -23 -21 0 -19 27 5 57 11 14 20 32
20 39 0 8 5 14 10 14 6 0 10 -2 10 -4z m200 -155 c0 -11 -4 -22 -9 -26 -13 -7
-41 -64 -41 -81 0 -13 -12 -42 -56 -139 -13 -27 -25 -57 -28 -65 -3 -8 -10
-22 -15 -30 -5 -8 -17 -32 -27 -52 -17 -35 -34 -50 -34 -29 0 19 31 81 40 81
6 0 10 10 10 23 0 12 9 41 20 62 l20 40 -22 17 c-25 19 -25 20 17 34 20 6 33
19 40 40 6 17 15 37 21 45 7 8 18 33 25 57 12 43 39 58 39 23z m1260 -40 c0
-5 9 -7 21 -4 24 7 96 -14 120 -34 8 -7 26 -13 40 -13 13 0 33 -7 43 -15 11
-8 37 -15 57 -15 21 0 41 -5 44 -10 10 -16 75 -40 109 -40 17 0 41 -7 52 -15
12 -8 24 -12 27 -9 2 3 22 -2 42 -10 21 -9 49 -16 64 -16 14 0 35 -7 45 -15
11 -8 34 -15 52 -15 18 0 34 -6 36 -12 3 -8 21 -12 50 -11 30 2 50 -3 58 -12
7 -8 25 -15 40 -15 14 0 30 -3 34 -7 4 -5 26 -13 49 -18 51 -13 55 -35 11 -67
-47 -35 -209 -185 -268 -248 -28 -30 -81 -85 -118 -121 -47 -46 -66 -72 -62
-83 3 -9 1 -16 -5 -16 -12 0 -96 -88 -128 -136 -26 -37 -60 -45 -69 -16 -7 21
-17 46 -38 94 -9 20 -16 43 -16 51 0 9 -4 19 -10 22 -5 3 -10 19 -10 34 0 16
-7 34 -15 41 -8 7 -15 18 -15 25 0 7 -7 26 -15 41 -8 16 -15 37 -15 46 0 9 -4
20 -10 23 -5 3 -10 16 -10 29 0 12 -4 26 -9 32 -13 12 -91 213 -91 233 0 9 -7
25 -15 35 -8 11 -15 32 -15 46 0 14 -4 30 -9 36 -5 5 -14 26 -21 47 -8 27 -17
37 -32 37 -14 0 -18 5 -14 16 15 40 17 65 6 79 -9 10 -9 15 -1 15 6 0 11 -4
11 -9z m-1550 -38 c-1 -21 -29 -88 -39 -91 -19 -6 -24 28 -7 47 9 10 16 25 16
34 0 9 7 17 15 17 8 0 15 -3 15 -7z m-105 -210 c-4 -10 -10 -26 -12 -35 -7
-22 -22 -23 -30 -3 -6 16 22 55 40 55 5 0 6 -8 2 -17z m-65 -155 c0 -16 -3
-19 -11 -11 -6 6 -8 16 -5 22 11 17 16 13 16 -11z m250 -27 c0 -20 -13 -35
-23 -25 -7 8 4 44 14 44 5 0 9 -9 9 -19z m-269 -21 c5 -43 2 -54 -20 -62 -21
-7 -23 -6 -17 14 3 13 6 31 6 41 0 18 29 25 31 7z m3619 -25 c0 -8 -9 -15 -20
-15 -20 0 -26 11 -13 23 12 13 33 7 33 -8z m-3390 -42 c-4 -21 -15 -51 -24
-68 -9 -16 -16 -38 -16 -47 0 -9 -4 -19 -9 -22 -5 -3 -19 -27 -32 -53 -15 -33
-24 -42 -27 -31 -4 20 32 130 54 165 8 12 14 29 14 38 0 15 29 52 41 54 4 1 3
-16 -1 -36z m-258 -45 c14 -26 13 -41 -7 -83 -22 -47 -62 -155 -79 -215 -9
-30 -27 -77 -41 -104 -14 -28 -23 -58 -19 -68 3 -11 -1 -20 -10 -24 -9 -3 -16
-14 -16 -23 0 -10 -11 -28 -24 -40 -33 -31 -41 -89 -16 -116 l20 -21 -41 -18
c-27 -12 -39 -23 -37 -35 2 -10 -13 -35 -32 -56 -58 -63 -64 -70 -86 -101 -15
-21 -20 -39 -17 -58 5 -25 3 -27 -18 -24 -21 3 -24 8 -21 38 2 19 11 46 20 60
32 47 40 74 29 98 -8 16 -7 26 1 34 7 7 12 21 12 33 0 12 6 30 14 40 7 10 11
27 8 37 -3 12 3 21 21 27 17 7 27 20 32 42 4 18 18 52 31 77 13 25 24 54 24
66 0 12 7 30 15 40 8 11 15 32 15 47 0 14 7 32 15 39 8 7 15 23 15 36 0 12 4
25 9 29 6 3 16 18 24 33 8 15 26 49 40 76 15 27 27 59 27 72 0 26 45 84 66 84
7 0 19 -10 26 -22z m44 -155 c-10 -10 -19 5 -10 18 6 11 8 11 12 0 2 -7 1 -15
-2 -18z m104 -54 c0 -5 -18 -54 -40 -108 -22 -53 -40 -101 -40 -106 0 -5 -9
-27 -19 -49 -11 -23 -29 -63 -41 -91 -12 -27 -31 -70 -43 -95 -11 -24 -21 -59
-21 -77 0 -20 -5 -33 -13 -33 -7 0 -13 -6 -13 -14 0 -8 -6 -21 -12 -28 -14
-14 -38 -76 -38 -97 0 -7 -7 -19 -15 -27 -8 -9 -15 -26 -15 -39 0 -12 -7 -25
-15 -29 -8 -3 -15 -14 -15 -25 0 -11 -5 -23 -10 -26 -6 -4 -8 -21 -4 -41 5
-27 3 -34 -10 -34 -8 0 -18 -11 -22 -25 -8 -32 -34 -33 -34 -1 0 14 -4 36 -10
50 -5 14 -5 28 -1 31 5 3 12 -3 16 -12 5 -16 8 -15 25 7 11 14 20 32 20 41 0
8 7 24 15 35 8 10 15 28 15 39 0 12 16 52 36 90 19 39 42 90 50 115 9 25 26
68 39 95 13 28 27 60 30 73 4 12 11 22 16 22 5 0 9 6 9 12 0 13 42 131 66 185
8 17 14 36 14 42 0 6 11 29 25 51 14 22 25 46 25 53 0 8 3 17 7 20 10 11 23 8
23 -4z m-122 -154 c-12 -27 -28 -34 -28 -12 0 14 20 37 32 37 4 0 2 -11 -4
-25z m3012 -100 c0 -18 -21 -24 -43 -13 -14 7 -16 13 -7 23 13 16 50 8 50 -10z
m-3058 -32 c-7 -3 -18 -17 -24 -32 -9 -22 -12 -23 -15 -8 -5 18 22 47 42 46 6
0 4 -3 -3 -6z m-42 -78 c0 -21 -17 -27 -24 -9 -10 25 -7 34 9 28 8 -4 15 -12
15 -19z m-20 -80 c0 -20 -26 -19 -34 1 -11 28 -7 35 14 24 11 -6 20 -17 20
-25z m-395 -395 c3 -5 1 -10 -4 -10 -6 0 -11 5 -11 10 0 6 2 10 4 10 3 0 8 -4
11 -10z m25 -54 c0 -16 7 -27 20 -31 11 -3 20 -11 20 -16 0 -15 -27 -21 -47
-10 -15 7 -18 18 -15 45 5 40 22 49 22 12z m5248 -214 c2 -7 -3 -12 -12 -12
-9 0 -16 7 -16 16 0 17 22 14 28 -4z m-3158 -142 c9 -14 1 -58 -11 -66 -5 -3
-9 -16 -9 -30 l0 -25 -82 5 c-139 9 -202 17 -217 29 -13 11 -46 16 -196 33
-60 7 -81 20 -64 40 9 11 48 14 163 15 83 1 196 4 251 8 118 8 156 6 165 -9z
m-2910 -31 c0 -5 -7 -9 -15 -9 -15 0 -20 12 -9 23 8 8 24 -1 24 -14z m640 -94
c0 -18 -56 -49 -76 -41 -11 4 -12 10 -2 31 9 19 19 25 45 25 22 0 33 -5 33
-15z m189 -79 c-6 -25 -15 -49 -20 -52 -5 -3 -9 -16 -9 -29 0 -13 -4 -26 -9
-30 -5 -3 -17 -29 -26 -58 -10 -28 -21 -56 -26 -61 -5 -6 -9 -18 -9 -28 0 -18
-17 -62 -56 -143 -13 -28 -24 -56 -24 -62 0 -7 -6 -16 -14 -20 -8 -4 -16 -21
-18 -37 -1 -16 -9 -31 -15 -34 -18 -5 -16 43 2 58 8 7 15 27 15 45 0 17 3 35
7 39 11 11 33 79 33 104 0 19 -4 21 -25 16 -15 -4 -25 -2 -25 4 0 6 17 12 38
14 28 2 37 7 37 21 0 10 8 23 18 28 9 6 17 16 17 24 0 8 9 30 21 49 11 20 27
59 34 87 12 45 54 123 63 115 1 -2 -2 -24 -9 -50z m-242 -33 c-8 -9 -20 -12
-26 -9 -19 12 -12 46 12 55 18 7 23 5 25 -12 2 -11 -3 -26 -11 -34z m-31 -37
c5 -20 -27 -106 -40 -106 -3 0 -11 -3 -20 -6 -20 -8 -22 19 -3 38 7 7 19 32
26 56 16 47 28 53 37 18z m150 -77 c10 -17 -13 -36 -27 -22 -12 12 -4 33 11
33 5 0 12 -5 16 -11z m-236 -109 c0 -5 -4 -10 -10 -10 -5 0 -10 5 -10 10 0 6
5 10 10 10 6 0 10 -4 10 -10z m-10 -74 c0 -8 -4 -18 -10 -21 -5 -3 -10 3 -10
14 0 12 5 21 10 21 6 0 10 -6 10 -14z m-30 -50 c0 -8 -4 -18 -10 -21 -5 -3
-10 3 -10 14 0 12 5 21 10 21 6 0 10 -6 10 -14z m-28 -68 l-22 -22 0 21 c0 12
7 23 18 25 27 6 28 -1 4 -24z m-12 -72 c0 -17 -27 -29 -35 -16 -4 6 -3 15 0
20 9 15 35 12 35 -4z m174 -146 c-15 -44 -31 -83 -36 -86 -4 -3 -8 -17 -8 -32
0 -15 -7 -36 -15 -46 -8 -11 -15 -29 -15 -41 0 -12 -11 -36 -25 -55 -14 -19
-25 -42 -25 -53 0 -10 -7 -25 -15 -33 -8 -9 -15 -25 -15 -38 0 -12 -4 -26 -9
-32 -4 -5 -16 -30 -26 -56 -10 -27 -22 -48 -27 -48 -6 0 -7 8 -3 18 4 9 10 27
12 40 3 12 9 25 14 28 5 3 9 15 9 28 0 12 7 31 15 42 8 10 15 33 15 51 0 17 4
34 9 37 5 3 16 29 26 58 9 29 28 76 41 104 13 28 24 56 24 62 0 12 48 110 63
130 21 26 18 0 -9 -78z m-266 -115 c2 -12 -8 -31 -21 -43 l-25 -23 2 46 c1 40
4 45 21 43 11 -2 21 -12 23 -23z m-84 -91 c9 -22 8 -24 -9 -24 -8 0 -15 9 -15
20 0 24 15 27 24 4z m11 -84 c-5 -8 -11 -8 -17 -2 -6 6 -7 16 -3 22 5 8 11 8
17 2 6 -6 7 -16 3 -22z m-25 -65 c0 -7 -6 -18 -13 -22 -8 -4 -17 -17 -21 -27
-5 -14 -10 -16 -17 -9 -8 8 -4 20 12 42 25 33 39 40 39 16z m-60 -136 c0 -5
-4 -9 -10 -9 -5 0 -10 7 -10 16 0 8 5 12 10 9 6 -3 10 -10 10 -16z m-25 -67
c0 -18 -20 -15 -23 4 -3 10 1 15 10 12 7 -3 13 -10 13 -16z m214 -38 c-12 -28
-13 -28 -17 -6 -2 13 2 30 9 39 18 21 22 2 8 -33z m-239 -28 c0 -19 -33 -52
-38 -38 -4 14 16 52 28 52 6 0 10 -6 10 -14z m220 -23 c0 -25 -18 -92 -34
-128 -17 -38 -63 -145 -70 -165 -3 -8 -10 -22 -15 -30 -5 -8 -13 -24 -17 -35
-7 -19 -8 -18 -12 4 -2 13 1 33 6 45 22 48 72 193 79 229 3 15 14 32 24 38 11
5 19 20 19 34 0 14 5 25 10 25 6 0 10 -8 10 -17z m-250 -70 c-1 -27 -28 -59
-40 -47 -7 7 -4 19 10 37 25 32 30 33 30 10z m-32 -85 c-4 -27 -28 -36 -28
-10 0 20 8 32 22 32 5 0 8 -10 6 -22z m-28 -52 c0 -8 -4 -17 -9 -21 -12 -7
-24 12 -16 25 9 15 25 12 25 -4z m-200 -242 c0 -17 -22 -14 -28 4 -2 7 3 12
12 12 9 0 16 -7 16 -16z m292 -46 c-7 -7 -12 -8 -12 -2 0 14 12 26 19 19 2 -3
-1 -11 -7 -17z"/>
<path d="M3941 6904 c0 -11 3 -14 6 -6 3 7 2 16 -1 19 -3 4 -6 -2 -5 -13z"/>
<path d="M3907 6838 c-20 -31 -30 -68 -20 -68 11 0 47 79 40 87 -3 2 -12 -6
-20 -19z"/>
<path d="M3856 6724 c-4 -10 -1 -14 6 -12 15 5 23 28 10 28 -5 0 -13 -7 -16
-16z"/>
<path d="M3834 6676 c-8 -22 3 -33 18 -18 9 9 9 15 0 24 -9 9 -13 7 -18 -6z"/>
<path d="M3803 6598 c-5 -7 -14 -25 -21 -40 -10 -23 -9 -28 3 -28 8 0 15 8 15
19 0 10 7 24 15 31 17 14 20 30 6 30 -5 0 -13 -6 -18 -12z"/>
<path d="M3760 6489 c0 -11 5 -17 10 -14 6 3 10 13 10 21 0 8 -4 14 -10 14 -5
0 -10 -9 -10 -21z"/>
<path d="M3677 6316 c-6 -16 2 -28 14 -20 12 7 11 34 0 34 -5 0 -11 -6 -14
-14z"/>
<path d="M3660 6260 c0 -19 3 -21 12 -12 9 9 9 15 0 24 -9 9 -12 7 -12 -12z"/>
<path d="M3627 6189 c-4 -16 -3 -18 9 -8 16 13 19 29 5 29 -5 0 -11 -9 -14
-21z"/>
<path d="M3557 6037 c-15 -29 -27 -59 -27 -66 0 -8 -6 -22 -14 -30 -8 -9 -17
-32 -21 -51 -6 -31 -5 -33 7 -20 16 16 68 134 68 152 0 6 8 20 17 30 10 11 13
22 7 28 -6 6 -20 -10 -37 -43z"/>
<path d="M3477 5836 c-4 -10 -5 -21 -2 -24 9 -9 17 6 13 25 -3 17 -4 17 -11
-1z"/>
<path d="M3440 5749 c-6 -11 -10 -26 -8 -33 2 -7 10 2 19 20 18 36 7 48 -11
13z"/>
<path d="M3245 5279 c-9 -39 1 -50 15 -15 12 34 13 46 1 46 -5 0 -12 -14 -16
-31z"/>
<path d="M8365 4911 c-7 -12 12 -24 25 -16 11 7 4 25 -10 25 -5 0 -11 -4 -15
-9z"/>
<path d="M5871 4741 c-1 -24 2 -32 9 -25 7 7 7 19 1 35 -9 23 -10 22 -10 -10z"/>
<path d="M5846 4661 c-4 -7 -5 -15 -2 -18 9 -9 19 4 14 18 -4 11 -6 11 -12 0z"/>
</g>
</svg>
