<?xml version="1.0" standalone="no"?>
<!DOCTYPE svg PUBLIC "-//W3C//DTD SVG 20010904//EN"
 "http://www.w3.org/TR/2001/REC-SVG-20010904/DTD/svg10.dtd">
<svg version="1.0" xmlns="http://www.w3.org/2000/svg"
 width="1080.000000pt" height="1080.000000pt" viewBox="0 0 1080.000000 1080.000000"
 preserveAspectRatio="xMidYMid meet">

<g transform="translate(0.000000,1080.000000) scale(0.100000,-0.100000)"
fill="#000000" stroke="none">
<path d="M6343 9011 c2 -43 -2 -51 -30 -75 -25 -21 -33 -36 -35 -69 -3 -40 -4
-42 -43 -48 -45 -8 -65 3 -65 35 0 12 -10 28 -22 36 -22 14 -28 16 -55 19 -8
1 -13 15 -13 36 0 22 -6 38 -15 41 -8 4 -15 12 -15 20 0 12 -4 12 -20 2 -15
-9 -19 -20 -15 -38 4 -20 -2 -29 -28 -45 -33 -21 -36 -42 -4 -38 11 2 17 -4
17 -18 0 -14 -5 -19 -17 -17 -9 2 -28 -8 -41 -21 -23 -23 -24 -51 0 -51 18 0
43 -59 39 -92 -2 -25 1 -28 27 -28 17 0 32 -6 36 -15 4 -10 19 -15 49 -15 27
0 49 -6 57 -15 18 -21 86 -20 94 2 5 12 9 14 18 5 9 -9 9 -15 0 -24 -19 -19
-15 -58 7 -58 10 0 24 -7 31 -15 8 -10 31 -15 66 -15 42 0 56 4 68 21 8 12 12
27 10 34 -3 7 3 19 13 26 10 8 26 30 35 49 15 32 16 36 1 52 -15 17 -15 18 1
18 9 0 19 -7 22 -15 4 -8 12 -15 20 -15 13 0 16 -13 18 -79 1 -13 6 -26 12
-28 13 -4 84 63 84 80 0 7 12 25 26 41 23 26 30 28 74 24 l48 -5 5 56 c3 31 4
71 2 89 -1 17 -3 43 -4 56 -1 19 -7 25 -28 28 -25 3 -28 8 -31 45 l-3 41 -47
4 c-47 4 -58 -3 -92 -54 -7 -9 -194 -13 -209 -3 -6 3 -11 24 -11 46 0 32 -4
39 -19 39 -16 0 -19 -7 -18 -49z m-295 -97 c16 -5 22 -14 22 -35 0 -15 -5 -31
-12 -35 -14 -9 -48 31 -48 57 0 21 4 22 38 13z m462 -3 c0 -6 -4 -13 -10 -16
-5 -3 -10 1 -10 9 0 9 5 16 10 16 6 0 10 -4 10 -9z m-471 -135 c27 -29 24 -60
-6 -64 -20 -3 -22 0 -17 26 4 17 1 32 -5 36 -13 8 -15 26 -3 26 5 0 19 -11 31
-24z m222 -36 c23 -13 28 -80 5 -80 -13 0 -36 48 -36 76 0 17 5 17 31 4z"/>
<path d="M6900 8769 c0 -24 23 -21 28 4 2 10 -3 17 -12 17 -10 0 -16 -9 -16
-21z"/>
<path d="M3138 8240 c-16 -16 -28 -38 -28 -49 0 -53 -63 -66 -119 -24 -20 16
-41 27 -47 25 -6 -1 -21 9 -34 23 -30 31 -42 32 -34 1 8 -35 -36 -78 -88 -85
-34 -5 -43 -11 -48 -31 -8 -35 -36 -33 -32 3 2 21 -1 27 -18 27 -20 0 -25 -15
-21 -66 1 -11 -8 -33 -20 -48 l-22 -28 54 -54 c42 -43 60 -54 85 -54 26 0 34
-5 42 -29 l10 -28 128 -6 c120 -5 130 -5 146 14 9 10 24 19 32 19 9 0 19 7 22
15 4 8 15 15 25 15 10 0 25 13 34 30 13 25 21 30 54 30 25 0 44 -7 56 -20 21
-24 55 -11 55 21 0 11 5 17 10 14 6 -4 9 -14 8 -23 -2 -11 4 -17 16 -17 17 0
19 8 20 65 0 64 0 65 -26 62 -18 -2 -32 5 -46 23 -16 20 -26 24 -48 19 -25 -5
-31 -1 -46 28 -9 18 -20 55 -24 81 -6 47 -7 48 -38 45 -24 -2 -31 1 -30 15 1
9 1 17 0 17 0 -1 -13 -14 -28 -30z"/>
<path d="M5040 7339 c-8 -14 -15 -17 -24 -10 -16 13 -112 -1 -151 -23 -22 -12
-43 -15 -81 -10 -48 6 -53 4 -87 -29 -20 -19 -37 -43 -37 -53 0 -11 -7 -28
-15 -38 -8 -11 -15 -26 -15 -34 0 -42 -95 -69 -131 -36 -13 12 -22 13 -36 5
-11 -5 -25 -6 -31 -2 -7 4 -72 8 -144 9 -113 2 -132 0 -143 -15 -11 -15 -15
-15 -29 -4 -12 10 -19 11 -30 2 -7 -6 -21 -8 -30 -5 -10 4 -22 0 -29 -9 -8
-11 -41 -20 -100 -27 -48 -6 -97 -15 -110 -20 -21 -8 -70 -21 -92 -25 -20 -3
-63 -24 -70 -34 -3 -6 -19 -11 -34 -11 -15 0 -36 -7 -47 -15 -10 -8 -31 -15
-45 -15 -15 0 -32 -7 -39 -15 -7 -8 -20 -15 -30 -15 -10 0 -23 -7 -30 -15 -7
-8 -28 -15 -46 -15 -30 0 -34 -3 -34 -25 0 -21 -5 -25 -30 -25 -29 0 -124 -43
-136 -61 -3 -5 -16 -9 -28 -9 -13 0 -29 -7 -36 -15 -7 -8 -23 -15 -37 -15 -18
0 -27 -8 -35 -30 -6 -19 -19 -32 -34 -36 -13 -4 -32 -16 -42 -28 -9 -12 -50
-43 -89 -69 -40 -26 -73 -55 -73 -63 0 -9 -23 -41 -50 -71 -27 -30 -50 -59
-50 -65 0 -6 -14 -24 -31 -40 -16 -16 -28 -35 -26 -41 2 -6 -11 -31 -30 -55
-18 -24 -33 -54 -33 -67 0 -14 -12 -34 -30 -48 -23 -20 -30 -34 -30 -60 0 -23
-6 -37 -16 -41 -10 -4 -14 -14 -11 -25 2 -11 -4 -32 -14 -48 -10 -15 -19 -38
-19 -51 0 -13 -7 -30 -15 -39 -11 -10 -14 -25 -10 -47 5 -23 1 -39 -15 -59
-15 -19 -20 -35 -16 -51 4 -15 -1 -32 -14 -49 -17 -22 -19 -36 -15 -123 3 -79
1 -103 -13 -126 -15 -25 -15 -30 -2 -38 12 -7 11 -12 -4 -29 -18 -20 -18 -22
-1 -41 17 -19 17 -21 0 -40 -17 -19 -17 -21 -1 -39 16 -18 20 -44 30 -223 1
-20 7 -42 13 -50 6 -7 14 -31 17 -54 4 -23 20 -78 36 -124 16 -46 27 -87 25
-91 -3 -4 2 -12 10 -19 8 -7 15 -23 15 -35 0 -13 7 -25 15 -29 8 -3 15 -12 15
-21 0 -8 11 -33 25 -55 14 -22 25 -43 25 -48 0 -4 15 -23 34 -41 19 -18 33
-38 30 -45 -7 -19 322 -346 348 -346 8 0 30 -16 49 -36 21 -22 41 -33 51 -30
12 3 28 -9 48 -34 16 -21 46 -45 66 -55 19 -9 37 -22 40 -30 3 -7 14 -11 24
-8 13 4 28 -5 46 -26 14 -17 34 -31 45 -31 10 0 24 -9 31 -19 6 -10 17 -17 25
-14 7 3 26 -6 43 -20 18 -16 37 -23 49 -20 13 3 24 -2 32 -15 7 -12 19 -17 30
-15 13 4 22 -3 30 -21 7 -14 20 -26 29 -26 10 0 23 -7 30 -15 7 -8 20 -15 30
-15 10 0 23 -6 29 -14 7 -8 23 -17 36 -20 14 -4 25 -11 25 -16 0 -6 14 -10 30
-10 18 0 33 -6 36 -15 4 -8 17 -15 29 -15 13 0 30 -7 39 -15 8 -8 26 -15 41
-15 14 0 28 -7 31 -15 4 -9 19 -15 39 -15 18 0 38 -7 45 -15 7 -8 25 -15 40
-15 15 0 33 -7 40 -15 7 -8 25 -15 40 -15 15 0 33 -7 40 -15 7 -8 25 -15 41
-15 15 0 34 -7 43 -15 8 -8 30 -15 49 -15 19 0 47 -7 63 -15 16 -8 62 -15 102
-16 46 -1 76 -7 83 -15 6 -8 28 -14 48 -14 20 0 42 -5 49 -12 9 -9 15 -9 24 0
16 16 43 15 57 -2 13 -16 131 -14 231 3 30 5 76 12 102 16 26 3 64 18 85 32
31 21 42 24 64 16 16 -6 33 -7 40 -2 8 5 26 9 40 9 16 0 40 13 59 30 20 18 43
30 60 30 15 0 33 7 40 15 7 8 19 15 27 15 8 0 26 9 40 20 16 12 34 18 45 14
14 -4 29 5 54 30 23 24 44 36 62 36 26 0 27 2 30 65 2 58 0 65 -17 65 -10 0
-24 7 -31 15 -7 8 -23 15 -35 15 -13 0 -25 7 -29 15 -4 12 -27 15 -113 15 -78
1 -113 5 -127 15 -16 12 -21 12 -40 0 -11 -8 -29 -15 -40 -15 -10 0 -25 -8
-31 -17 -13 -17 -14 -17 -32 0 -22 19 -73 23 -91 5 -8 -8 -15 -8 -27 2 -13 11
-18 10 -29 -6 -14 -18 -15 -18 -33 -1 -13 11 -36 17 -70 17 -36 0 -53 4 -57
15 -3 9 -19 15 -41 15 -22 0 -38 6 -41 15 -4 9 -19 15 -36 15 -35 0 -83 23
-91 44 -4 9 -13 13 -21 10 -19 -7 -83 13 -93 29 -8 12 -69 37 -91 37 -6 0 -33
20 -59 45 -25 25 -54 45 -63 45 -9 0 -35 20 -60 45 -24 24 -51 45 -60 47 -23
4 -358 326 -366 352 -4 12 -20 33 -35 47 -16 14 -29 36 -29 47 0 13 -6 22 -15
22 -8 0 -15 6 -15 14 0 8 -7 16 -15 20 -8 3 -15 17 -15 31 0 16 -6 25 -16 25
-11 0 -15 8 -12 28 2 21 -1 27 -15 25 -16 -1 -18 4 -12 33 5 30 3 34 -15 34
-19 0 -21 4 -15 29 4 21 2 30 -9 34 -9 4 -16 18 -16 32 0 14 -7 28 -15 31 -11
5 -15 21 -15 61 0 35 -5 60 -15 69 -9 9 -15 34 -15 61 0 26 -6 53 -14 62 -16
17 -19 144 -13 443 3 121 7 151 20 166 10 11 16 34 16 58 -2 53 26 203 40 217
6 6 11 28 11 48 0 20 7 42 15 49 8 7 15 20 15 30 0 10 7 23 15 30 8 7 15 20
15 29 0 10 14 30 30 46 17 16 30 36 30 46 0 9 7 22 15 29 8 7 15 20 15 29 0
21 251 271 271 271 8 0 32 18 54 40 21 22 54 45 72 51 18 6 33 15 33 20 0 5 8
9 18 9 10 0 33 16 52 35 19 19 42 35 51 35 10 0 21 5 24 10 3 6 14 10 23 10
27 0 120 99 104 109 -9 5 -12 23 -10 52 3 43 4 44 41 47 26 2 39 -1 43 -12 4
-11 19 -16 45 -16 39 0 119 -34 119 -51 0 -5 10 -9 22 -9 12 0 29 -7 39 -16
12 -10 38 -16 83 -16 44 -1 67 -6 70 -15 3 -7 13 -13 22 -13 10 0 25 -7 34
-15 11 -10 44 -15 109 -16 67 -2 94 -6 98 -16 3 -8 21 -13 43 -13 21 0 43 -7
50 -15 7 -8 29 -15 50 -15 21 0 43 -7 50 -15 7 -8 29 -15 50 -15 21 0 43 -7
50 -15 7 -8 29 -15 50 -15 24 0 40 -5 44 -15 3 -9 18 -15 39 -15 19 0 40 -7
47 -15 7 -8 20 -15 30 -15 10 0 23 -7 30 -15 7 -8 23 -15 35 -15 13 0 25 -7
29 -15 3 -8 14 -15 24 -15 10 0 27 -9 37 -20 11 -12 31 -20 52 -20 21 0 33 -5
33 -13 0 -27 84 -106 115 -109 22 -2 31 -9 33 -25 2 -12 24 -38 49 -59 29 -24
54 -56 69 -90 13 -29 28 -55 33 -59 6 -3 11 -15 11 -26 0 -19 33 -59 48 -59
20 0 31 -23 20 -43 -9 -18 -6 -24 18 -43 22 -18 28 -31 28 -62 1 -22 8 -48 16
-58 24 -30 40 -62 40 -81 0 -10 9 -31 20 -48 15 -23 19 -40 14 -71 -4 -31 -2
-45 11 -57 9 -10 19 -36 21 -60 6 -56 12 -92 24 -151 5 -26 7 -58 4 -70 -3
-14 1 -28 10 -35 18 -15 22 -86 6 -96 -7 -4 -8 -11 -2 -18 9 -11 17 -133 14
-207 -1 -19 -2 -51 -3 -70 0 -19 -8 -43 -17 -53 -16 -18 -16 -20 1 -32 21 -15
22 -29 3 -44 -10 -9 -14 -39 -13 -118 0 -87 -3 -108 -16 -118 -14 -10 -17 -30
-17 -96 0 -57 -5 -94 -16 -114 -10 -18 -14 -43 -10 -63 4 -25 0 -38 -16 -54
-16 -16 -19 -28 -15 -62 5 -34 3 -44 -13 -54 -13 -8 -20 -23 -20 -43 0 -18 -7
-38 -17 -45 -17 -13 -17 -15 0 -28 23 -18 22 -23 -14 -55 -26 -24 -30 -33 -24
-62 5 -27 2 -40 -14 -58 -12 -13 -21 -33 -21 -45 -1 -12 -7 -32 -15 -46 -7
-14 -11 -37 -8 -51 4 -22 -2 -32 -31 -54 -35 -27 -36 -28 -19 -47 17 -19 17
-20 -1 -34 -10 -7 -23 -15 -29 -17 -6 -2 -10 -20 -9 -41 2 -47 -13 -76 -37
-76 -12 0 -21 -10 -25 -25 -4 -14 -11 -25 -16 -25 -6 0 -10 -15 -10 -33 0 -25
-9 -42 -35 -67 -19 -18 -32 -37 -29 -42 3 -5 -2 -21 -12 -36 -10 -15 -26 -44
-36 -64 -9 -21 -22 -43 -28 -50 -6 -7 -24 -28 -40 -47 -17 -19 -30 -43 -30
-52 0 -10 -11 -39 -25 -65 -14 -26 -25 -53 -25 -60 0 -7 -9 -18 -20 -24 -11
-6 -20 -19 -20 -29 0 -10 -7 -24 -15 -31 -8 -7 -19 -27 -23 -44 -4 -17 -18
-35 -30 -41 -12 -5 -22 -13 -22 -17 0 -4 -13 -27 -30 -51 -16 -25 -30 -49 -30
-53 -1 -5 -14 -25 -30 -44 -17 -19 -30 -38 -30 -43 0 -10 -103 -168 -122 -188
-8 -8 -27 -33 -41 -56 -14 -23 -31 -44 -37 -48 -5 -3 -10 -16 -10 -29 0 -12
-13 -35 -30 -51 -16 -16 -30 -36 -30 -45 0 -21 -76 -100 -96 -100 -8 0 -22
-16 -30 -35 -8 -20 -33 -52 -56 -73 -23 -20 -69 -65 -101 -99 -47 -49 -66 -63
-89 -63 -16 0 -40 -7 -53 -16 -22 -14 -25 -23 -25 -78 0 -35 3 -65 6 -69 10
-10 34 4 34 20 0 9 10 2 26 -16 16 -20 35 -31 51 -31 14 0 31 -6 37 -14 12
-15 54 -19 179 -17 74 1 77 2 77 25 0 30 16 36 100 36 48 0 71 4 80 15 7 8 28
15 46 15 19 0 34 4 34 9 0 5 13 14 29 19 16 6 44 24 62 41 17 17 38 31 45 31
10 0 8 9 -6 32 -23 39 -25 48 -7 48 8 0 19 -11 25 -25 6 -14 16 -25 22 -25 5
0 10 11 10 25 0 21 5 25 30 25 24 0 30 4 30 21 0 12 8 28 18 35 16 12 16 14
-3 28 -26 19 -11 34 17 17 18 -11 24 -9 54 20 37 36 43 63 18 77 -9 5 -14 14
-10 21 10 15 33 14 39 -1 6 -17 107 81 107 104 0 22 46 68 69 68 26 0 51 32
51 67 0 17 7 36 15 43 21 17 19 30 -5 30 -25 0 -25 13 -3 51 22 37 32 37 31
-1 -1 -35 8 -48 23 -33 8 8 8 17 0 31 -6 11 -8 34 -5 51 6 26 11 31 35 31 19
0 29 -5 29 -15 0 -8 7 -15 15 -15 10 0 15 10 15 30 0 20 5 30 15 30 23 0 19
41 -5 47 -21 6 -27 28 -10 38 6 4 7 13 1 23 -10 20 -4 42 11 42 5 0 21 9 35
20 48 38 59 -1 14 -52 -31 -37 -30 -58 3 -58 23 0 86 57 86 78 0 6 14 27 30
45 17 19 30 41 30 48 0 7 14 28 31 45 37 38 33 59 -10 67 -41 9 -42 37 -1 37
32 0 37 9 18 28 -9 9 -9 15 -1 23 8 8 16 6 29 -10 28 -32 52 -27 56 10 2 18
10 35 18 39 8 4 27 13 43 21 20 9 27 20 27 40 0 15 7 29 15 33 8 3 15 17 15
31 0 18 7 28 24 35 15 5 27 20 31 39 7 32 20 45 45 46 8 0 16 9 18 21 2 11 23
40 47 64 35 35 45 51 45 77 0 21 6 36 15 39 10 4 15 20 15 46 0 39 -1 40 -30
36 -36 -5 -40 14 -8 36 28 20 58 20 58 1 0 -9 9 -15 21 -15 19 0 20 4 14 40
-5 32 -4 40 8 40 24 0 87 64 87 89 0 12 7 24 15 27 8 4 15 16 15 28 0 13 24
44 60 80 33 32 60 66 60 76 0 10 7 23 15 30 8 7 15 20 15 30 0 10 7 23 15 30
8 7 15 20 15 30 0 10 7 23 15 30 8 7 15 23 15 35 0 13 7 25 15 29 8 3 15 16
15 30 0 13 7 26 15 30 8 3 15 14 15 24 0 11 7 25 15 32 8 7 15 27 15 45 0 18
7 38 15 45 8 7 15 21 15 32 0 15 -5 19 -20 15 -29 -7 -35 10 -13 41 10 15 21
34 25 42 6 11 7 10 7 -5 -2 -37 1 -45 16 -45 21 0 20 68 -2 92 -15 17 -15 20
-1 34 11 12 21 13 34 6 32 -16 44 -3 44 46 0 28 6 52 17 64 22 24 12 32 -22
16 -24 -11 -29 -10 -41 7 -21 29 -17 57 14 87 31 29 46 88 62 238 4 41 13 122
19 180 6 58 12 218 12 357 0 203 -3 263 -16 307 -15 53 -16 131 0 155 3 6 12
11 20 11 11 0 13 -12 9 -53 -3 -30 0 -65 7 -82 7 -17 16 -57 21 -90 15 -92 20
-415 9 -495 -5 -40 -7 -78 -4 -86 8 -22 24 -5 17 20 -4 16 0 25 11 30 13 5 15
13 11 32 -5 20 -1 33 16 51 l22 24 -22 6 c-21 5 -22 9 -16 57 4 28 15 60 25
71 18 20 18 22 1 45 -20 29 -19 25 -23 194 -3 117 -5 129 -22 134 -18 5 -19
12 -13 73 5 61 4 69 -14 79 -12 6 -19 19 -17 32 3 30 -21 34 -32 4 -6 -13 -19
-30 -31 -36 -40 -22 -56 17 -18 45 l23 15 -25 73 c-23 65 -28 72 -55 77 -21 4
-31 11 -33 27 -2 13 -16 35 -31 51 -25 24 -29 37 -35 117 -4 49 -11 92 -15 95
-4 3 -10 13 -14 23 -5 12 -17 17 -47 17 -27 0 -40 4 -40 14 0 7 -7 19 -15 26
-8 7 -15 25 -15 39 0 30 -36 71 -62 71 -9 0 -21 7 -28 15 -7 8 -20 15 -29 15
-22 0 -61 41 -61 63 0 10 -8 20 -17 24 -10 3 -34 19 -54 35 -20 15 -41 28 -46
28 -5 0 -22 14 -38 30 -16 17 -36 30 -46 30 -9 0 -22 7 -29 15 -7 8 -20 15
-30 15 -10 0 -23 7 -30 15 -7 8 -18 15 -24 15 -7 0 -22 9 -33 20 -15 13 -33
19 -58 17 -28 -1 -40 3 -49 18 -16 28 -27 35 -62 35 -18 0 -38 8 -50 21 -13
15 -26 19 -45 15 -20 -4 -32 1 -48 20 -11 13 -32 24 -46 24 -13 0 -33 9 -44
21 -15 16 -26 19 -48 15 -22 -5 -36 -1 -56 14 -15 12 -31 19 -36 15 -10 -6
-95 12 -123 26 -10 5 -37 9 -61 9 -23 0 -52 7 -64 15 -13 9 -47 15 -92 16 -46
1 -75 6 -82 15 -8 10 -36 14 -90 14 -45 0 -81 5 -85 11 -3 6 -17 8 -29 5 -13
-3 -27 -2 -30 4 -10 16 -81 12 -95 -5 -19 -23 -54 -15 -58 13 -3 22 -16 29
-26 13 -8 -13 -117 -10 -122 3 -7 17 -221 21 -240 5 -11 -9 -18 -9 -26 -1 -17
17 -26 15 -38 -9z m-2255 -1507 c-3 -18 -13 -92 -21 -165 -28 -244 -48 -395
-70 -510 -8 -42 -14 -98 -14 -122 0 -25 -4 -45 -9 -45 -15 0 -20 58 -21 285
-1 188 2 232 19 305 26 110 66 245 88 293 16 37 17 38 26 15 4 -12 5 -38 2
-56z m815 -92 c-29 -73 -30 -573 -2 -627 5 -10 13 -37 17 -60 4 -24 11 -45 16
-49 5 -3 9 -15 9 -27 0 -12 11 -46 25 -75 28 -61 32 -87 9 -57 -14 17 -43 75
-85 170 -43 99 -73 279 -66 408 9 173 28 284 64 387 4 10 8 5 14 -15 6 -18 5
-40 -1 -55z m-199 -298 c1 -111 -1 -205 -5 -209 -15 -15 -26 25 -27 102 -3
175 0 305 6 316 18 28 24 -21 26 -209z m4221 26 c4 -217 -37 -552 -67 -549
-13 2 -12 30 4 161 10 80 20 346 21 543 0 4 9 7 20 7 18 0 19 -9 22 -162z
m-779 -66 c4 -196 -9 -436 -22 -428 -3 2 -5 48 -4 103 4 228 4 263 -2 273 -9
14 -8 130 1 166 13 50 25 -1 27 -114z m429 -34 c-9 -9 -12 -7 -12 12 0 19 3
21 12 12 9 -9 9 -15 0 -24z m-4204 -156 c2 -105 0 -172 -6 -172 -16 0 -22 56
-22 207 0 111 3 144 13 141 9 -4 13 -50 15 -176z m3837 31 c3 -16 13 -54 22
-86 14 -48 14 -67 5 -105 -6 -26 -14 -126 -16 -222 -4 -126 -11 -196 -25 -250
-11 -41 -27 -115 -37 -165 -9 -49 -28 -121 -41 -159 -12 -38 -23 -75 -23 -83
0 -20 -43 -113 -52 -113 -4 0 -8 -5 -8 -11 0 -5 -11 -35 -25 -65 -17 -38 -30
-54 -44 -54 -25 0 -35 -40 -14 -55 15 -11 14 -17 -8 -60 -13 -27 -34 -55 -46
-63 -23 -14 -23 -14 -23 32 0 37 5 52 25 70 l25 23 -22 15 c-22 14 -21 15 20
56 23 23 47 42 52 42 6 0 10 4 10 9 0 6 -4 13 -10 16 -16 10 -11 33 9 40 23 7
35 86 18 122 -8 18 -7 27 3 36 10 9 13 9 17 0 7 -20 25 -15 21 5 -1 9 1 23 6
30 4 7 2 35 -4 63 -13 54 -9 69 14 50 20 -17 26 -1 16 45 -13 52 -12 57 4 51
16 -6 29 76 19 124 -5 25 -2 29 16 29 17 0 21 6 22 33 3 48 1 67 -10 127 -6
30 -8 79 -4 108 6 55 18 62 18 10 0 -17 5 -33 11 -35 15 -5 26 127 22 277 -1
63 1 121 6 128 12 20 25 14 31 -15z m345 -233 c0 -16 -4 -30 -10 -30 -11 0
-14 43 -3 53 11 12 13 8 13 -23z m-58 -72 c-9 -9 -12 -7 -12 12 0 19 3 21 12
12 9 -9 9 -15 0 -24z m358 -73 c0 -14 -4 -25 -10 -25 -5 0 -10 11 -10 25 0 14
5 25 10 25 6 0 10 -11 10 -25z m-735 -195 c4 -6 1 -18 -6 -26 -11 -13 -14 -13
-27 0 -8 8 -11 19 -8 25 9 14 33 14 41 1z m821 -126 c-10 -26 -26 -4 -20 24 4
15 10 32 13 37 8 13 14 -42 7 -61z m-192 -62 c-7 -34 -21 -42 -31 -17 -5 14
25 60 34 52 2 -2 0 -18 -3 -35z m-18 -79 c-11 -11 -19 6 -11 24 8 17 8 17 12
0 3 -10 2 -21 -1 -24z m-50 -181 c6 -4 13 -15 17 -24 5 -13 1 -18 -13 -18 -16
0 -40 26 -40 44 0 8 23 7 36 -2z m-478 -234 c-2 -24 -7 -43 -13 -43 -5 0 -11
19 -13 43 -3 33 0 42 13 42 13 0 16 -9 13 -42z m402 -83 c0 -9 -6 -15 -14 -13
-7 2 -22 -8 -33 -21 -12 -15 -25 -21 -32 -17 -21 13 -7 38 29 51 48 17 50 17
50 0z m-112 -113 c2 -7 -3 -12 -12 -12 -9 0 -16 7 -16 16 0 17 22 14 28 -4z
m-620 -79 c-2 -10 -10 -18 -18 -18 -8 0 -16 8 -18 18 -2 12 3 17 18 17 15 0
20 -5 18 -17z m527 -113 c-3 -5 -11 -10 -16 -10 -6 0 -7 5 -4 10 3 6 11 10 16
10 6 0 7 -4 4 -10z m-576 -14 c14 -17 -11 -41 -34 -32 -18 7 -20 32 -2 39 20
9 24 8 36 -7z m-49 -60 c0 -3 -4 -8 -10 -11 -5 -3 -10 -1 -10 4 0 6 5 11 10
11 6 0 10 -2 10 -4z m530 -96 c-8 -16 -17 -19 -33 -14 -28 8 -30 11 -22 23 3
6 20 11 36 11 27 0 29 -2 19 -20z m-632 -66 c-4 -25 -36 -30 -45 -8 -4 11 1
22 12 30 22 16 39 5 33 -22z m-28 -79 c0 -8 -7 -15 -15 -15 -8 0 -15 7 -15 15
0 8 7 15 15 15 8 0 15 -7 15 -15z m510 -119 c0 -8 -5 -18 -11 -22 -14 -8 -33
11 -25 25 10 16 36 13 36 -3z m-50 -86 c0 -20 -25 -38 -37 -26 -5 5 24 46 34
46 1 0 3 -9 3 -20z m-50 -45 c0 -17 -2 -18 -24 -9 -23 9 -20 24 4 24 11 0 20
-7 20 -15z m-265 -205 c0 -22 -29 -18 -33 3 -3 14 1 18 15 15 10 -2 18 -10 18
-18z m-425 -5 c0 -8 -7 -15 -15 -15 -8 0 -15 7 -15 15 0 8 7 15 15 15 8 0 15
-7 15 -15z m534 -44 c9 -15 -23 -36 -36 -23 -5 5 -7 15 -4 21 9 13 33 14 40 2z
m-484 -21 c0 -5 -4 -10 -10 -10 -5 0 -10 5 -10 10 0 6 5 10 10 10 6 0 10 -4
10 -10z m460 -38 c0 -24 -19 -42 -36 -35 -15 5 -19 35 -7 46 14 14 43 7 43
-11z m-543 -58 c-9 -9 -28 6 -21 18 4 6 10 6 17 -1 6 -6 8 -13 4 -17z m-39
-62 c6 -18 -15 -14 -22 4 -4 10 -1 14 6 12 6 -2 14 -10 16 -16z m228 -213 c10
-17 -13 -36 -27 -22 -12 12 -4 33 11 33 5 0 12 -5 16 -11z m-486 -244 c0 -8
-4 -15 -10 -15 -5 0 -10 7 -10 15 0 8 5 15 10 15 6 0 10 -7 10 -15z m230 -45
c0 -5 -4 -10 -10 -10 -5 0 -10 5 -10 10 0 6 5 10 10 10 6 0 10 -4 10 -10z
m-30 -170 c0 -11 -6 -20 -14 -20 -18 0 -29 16 -21 30 11 18 35 11 35 -10z
m-290 -206 c0 -9 -5 -14 -12 -12 -18 6 -21 28 -4 28 9 0 16 -7 16 -16z"/>
<path d="M7707 6123 c-2 -4 -1 -17 3 -27 6 -19 7 -19 14 -1 7 19 -8 44 -17 28z"/>
<path d="M7756 5003 c-10 -65 -22 -127 -26 -138 -19 -46 -32 -114 -25 -134 9
-30 25 -26 25 7 0 15 7 39 15 55 7 15 15 58 17 96 2 38 10 76 17 85 13 15 23
110 14 133 -12 30 -20 6 -37 -104z"/>
</g>
</svg>
